<?xml version="1.0" encoding="utf-8"?>
<!-- Generator: Adobe Illustrator 19.1.0, SVG Export Plug-In . SVG Version: 6.00 Build 0)  -->
<svg version="1.1" xmlns="http://www.w3.org/2000/svg" xmlns:xlink="http://www.w3.org/1999/xlink" x="0px" y="0px"
	 viewBox="0 0 15 15" style="enable-background:new 0 0 15 15;" xml:space="preserve">
<style type="text/css">
	.st0{fill:#FFFFFF;}
	.st1{fill:#FFFFFF;}
	.st2{fill:#FFFFFF;}
	.st3{fill:none;stroke:#FFFFFF;stroke-width:2;stroke-linecap:square;stroke-linejoin:round;stroke-miterlimit:10;}
	.st4{fill:none;stroke:#FFFFFF;stroke-width:2;stroke-linejoin:round;stroke-miterlimit:10;}
	.st5{fill:none;stroke:#FFFFFF;stroke-width:2;stroke-linecap:round;stroke-linejoin:round;stroke-miterlimit:10;}
	.st6{fill:none;stroke:#FFFFFF;stroke-linejoin:round;stroke-miterlimit:10;}
	.st7{fill:none;stroke:#FFFFFF;stroke-width:2;stroke-linecap:round;stroke-miterlimit:10;}
	.st8{fill:none;stroke:#FFFFFF;stroke-width:2;stroke-linecap:round;stroke-linejoin:round;}
	.st9{fill:none;stroke:#FFFFFF;stroke-width:2;stroke-linecap:round;stroke-linejoin:round;stroke-dasharray:0,2;}
	.st10{fill:none;stroke:#FFFFFF;stroke-width:2;stroke-miterlimit:10;}
	.st11{fill:none;stroke:#FFFFFF;stroke-width:2.0333;stroke-linejoin:round;stroke-miterlimit:10;}
	.st12{fill:none;stroke:#FFFFFF;stroke-width:2;stroke-linecap:square;stroke-miterlimit:10;}
</style>
<g id="guides">

		<rect x="-754.2" y="-253.4" transform="matrix(1 -2.306807e-03 2.306807e-03 1 0.5549 -1.7127)" class="st0" width="24" height="24"/>

		<rect x="-752.2" y="-251.4" transform="matrix(1 -2.306807e-03 2.306807e-03 1 0.5549 -1.7127)" class="st1" width="20" height="20"/>
	<rect x="-812.8" y="-253.3" class="st0" width="24" height="24"/>
	<rect x="-810.9" y="-251.4" class="st1" width="20" height="20"/>

		<rect x="-812.7" y="-194.7" transform="matrix(2.306807e-03 1 -1 2.306807e-03 -981.6378 618.424)" class="st0" width="24" height="24"/>

		<rect x="-810.7" y="-192.7" transform="matrix(2.306807e-03 1 -1 2.306807e-03 -981.6378 618.424)" class="st1" width="20" height="20"/>

		<rect x="-754.1" y="-194.7" transform="matrix(2.306807e-03 1 -1 2.306807e-03 -923.1661 559.8173)" class="st0" width="24" height="24"/>

		<rect x="-752.1" y="-192.7" transform="matrix(2.306807e-03 1 -1 2.306807e-03 -923.1661 559.8173)" class="st1" width="20" height="20"/>

		<rect x="-637" y="-253.4" transform="matrix(1 -2.306807e-03 2.306807e-03 1 0.5552 -1.4423)" class="st0" width="24" height="24"/>

		<rect x="-635" y="-251.4" transform="matrix(1 -2.306807e-03 2.306807e-03 1 0.5552 -1.4423)" class="st1" width="20" height="20"/>
	<rect x="-695.6" y="-253.3" class="st0" width="24" height="24"/>
	<rect x="-693.7" y="-251.4" class="st1" width="20" height="20"/>

		<rect x="-695.5" y="-194.7" transform="matrix(2.306807e-03 1 -1 2.306807e-03 -864.6945 501.2106)" class="st0" width="24" height="24"/>

		<rect x="-693.5" y="-192.7" transform="matrix(2.306807e-03 1 -1 2.306807e-03 -864.6945 501.2106)" class="st1" width="20" height="20"/>

		<rect x="-636.9" y="-194.7" transform="matrix(2.306807e-03 1 -1 2.306807e-03 -806.2228 442.6039)" class="st0" width="24" height="24"/>

		<rect x="-634.9" y="-192.7" transform="matrix(2.306807e-03 1 -1 2.306807e-03 -806.2228 442.6039)" class="st1" width="20" height="20"/>

		<rect x="-519.7" y="-253.4" transform="matrix(1 -2.306807e-03 2.306807e-03 1 0.5555 -1.1719)" class="st0" width="24" height="24"/>

		<rect x="-517.7" y="-251.4" transform="matrix(1 -2.306807e-03 2.306807e-03 1 0.5555 -1.1719)" class="st1" width="20" height="20"/>

		<rect x="-290.7" y="-19.4" transform="matrix(1 -2.306807e-03 2.306807e-03 1 1.633675e-02 -0.643)" class="st0" width="24" height="24"/>

		<rect x="-288.7" y="-17.4" transform="matrix(1 -2.306807e-03 2.306807e-03 1 1.633675e-02 -0.643)" class="st1" width="20" height="20"/>
	<rect x="-578.4" y="-253.3" class="st0" width="24" height="24"/>
	<rect x="-576.5" y="-251.4" class="st1" width="20" height="20"/>

		<rect x="-578.3" y="-194.7" transform="matrix(2.306807e-03 1 -1 2.306807e-03 -747.7512 383.9972)" class="st0" width="24" height="24"/>

		<rect x="-576.3" y="-192.7" transform="matrix(2.306807e-03 1 -1 2.306807e-03 -747.7512 383.9972)" class="st1" width="20" height="20"/>

		<rect x="-519.7" y="-194.7" transform="matrix(2.306807e-03 1 -1 2.306807e-03 -689.2795 325.3905)" class="st0" width="24" height="24"/>

		<rect x="-517.7" y="-192.7" transform="matrix(2.306807e-03 1 -1 2.306807e-03 -689.2795 325.3905)" class="st1" width="20" height="20"/>

		<rect x="-402.5" y="-253.4" transform="matrix(1 -2.306807e-03 2.306807e-03 1 0.5558 -0.9015)" class="st0" width="24" height="24"/>

		<rect x="-400.5" y="-251.4" transform="matrix(1 -2.306807e-03 2.306807e-03 1 0.5558 -0.9015)" class="st1" width="20" height="20"/>
	<rect x="-461.2" y="-253.3" class="st0" width="24" height="24"/>
	<rect x="-459.3" y="-251.4" class="st1" width="20" height="20"/>

		<rect x="-461.1" y="-194.7" transform="matrix(2.306807e-03 1 -1 2.306807e-03 -630.8079 266.7838)" class="st0" width="24" height="24"/>

		<rect x="-459.1" y="-192.7" transform="matrix(2.306807e-03 1 -1 2.306807e-03 -630.8079 266.7838)" class="st1" width="20" height="20"/>

		<rect x="-402.5" y="-194.7" transform="matrix(2.306807e-03 1 -1 2.306807e-03 -572.3362 208.1771)" class="st0" width="24" height="24"/>

		<rect x="-400.5" y="-192.7" transform="matrix(2.306807e-03 1 -1 2.306807e-03 -572.3362 208.1771)" class="st1" width="20" height="20"/>

		<rect x="-343.9" y="-253.4" transform="matrix(1 -2.306807e-03 2.306807e-03 1 0.556 -0.7663)" class="st0" width="24" height="24"/>

		<rect x="-341.9" y="-251.4" transform="matrix(1 -2.306807e-03 2.306807e-03 1 0.556 -0.7663)" class="st1" width="20" height="20"/>

		<rect x="-343.9" y="-194.7" transform="matrix(2.306807e-03 1 -1 2.306807e-03 -513.8646 149.5704)" class="st0" width="24" height="24"/>

		<rect x="-341.9" y="-192.7" transform="matrix(2.306807e-03 1 -1 2.306807e-03 -513.8646 149.5704)" class="st1" width="20" height="20"/>

		<rect x="-754.2" y="-136.1" transform="matrix(1 -2.306807e-03 2.306807e-03 1 0.2842 -1.7124)" class="st0" width="24" height="24"/>

		<rect x="-752.2" y="-134.1" transform="matrix(1 -2.306807e-03 2.306807e-03 1 0.2842 -1.7124)" class="st1" width="20" height="20"/>
	<rect x="-812.8" y="-135.9" class="st0" width="24" height="24"/>
	<rect x="-810.9" y="-134.1" class="st1" width="20" height="20"/>

		<rect x="-812.7" y="-77.4" transform="matrix(2.306807e-03 1 -1 2.306807e-03 -864.312 735.4794)" class="st0" width="24" height="24"/>

		<rect x="-810.7" y="-75.4" transform="matrix(2.306807e-03 1 -1 2.306807e-03 -864.312 735.4794)" class="st1" width="20" height="20"/>

		<rect x="-754.1" y="-77.4" transform="matrix(2.306807e-03 1 -1 2.306807e-03 -805.8404 676.8727)" class="st0" width="24" height="24"/>

		<rect x="-752.1" y="-75.4" transform="matrix(2.306807e-03 1 -1 2.306807e-03 -805.8404 676.8727)" class="st1" width="20" height="20"/>
	<rect x="-637" y="-136.1" transform="matrix(1 -2.306807e-03 2.306807e-03 1 0.2846 -1.442)" class="st0" width="24" height="24"/>
	<rect x="-635" y="-134.1" transform="matrix(1 -2.306807e-03 2.306807e-03 1 0.2846 -1.442)" class="st1" width="20" height="20"/>
	<rect x="-695.6" y="-135.9" class="st0" width="24" height="24"/>
	<rect x="-693.7" y="-134.1" class="st1" width="20" height="20"/>

		<rect x="-695.5" y="-77.4" transform="matrix(2.306807e-03 1 -1 2.306807e-03 -747.3687 618.266)" class="st0" width="24" height="24"/>

		<rect x="-693.5" y="-75.4" transform="matrix(2.306807e-03 1 -1 2.306807e-03 -747.3687 618.266)" class="st1" width="20" height="20"/>

		<rect x="-636.9" y="-77.4" transform="matrix(2.306807e-03 1 -1 2.306807e-03 -688.897 559.6593)" class="st0" width="24" height="24"/>

		<rect x="-634.9" y="-75.4" transform="matrix(2.306807e-03 1 -1 2.306807e-03 -688.897 559.6593)" class="st1" width="20" height="20"/>

		<rect x="-519.7" y="-136.1" transform="matrix(1 -2.306807e-03 2.306807e-03 1 0.2849 -1.1716)" class="st0" width="24" height="24"/>

		<rect x="-517.7" y="-134.1" transform="matrix(1 -2.306807e-03 2.306807e-03 1 0.2849 -1.1716)" class="st1" width="20" height="20"/>
	<rect x="-578.4" y="-135.9" class="st0" width="24" height="24"/>
	<rect x="-576.5" y="-134.1" class="st1" width="20" height="20"/>

		<rect x="-578.3" y="-77.4" transform="matrix(2.306807e-03 1 -1 2.306807e-03 -630.4254 501.0526)" class="st0" width="24" height="24"/>

		<rect x="-576.3" y="-75.4" transform="matrix(2.306807e-03 1 -1 2.306807e-03 -630.4254 501.0526)" class="st1" width="20" height="20"/>

		<rect x="-519.7" y="-77.4" transform="matrix(2.306807e-03 1 -1 2.306807e-03 -571.9537 442.4459)" class="st0" width="24" height="24"/>

		<rect x="-517.7" y="-75.4" transform="matrix(2.306807e-03 1 -1 2.306807e-03 -571.9537 442.4459)" class="st1" width="20" height="20"/>

		<rect x="-402.5" y="-136.1" transform="matrix(1 -2.306807e-03 2.306807e-03 1 0.2852 -0.9012)" class="st0" width="24" height="24"/>

		<rect x="-400.5" y="-134.1" transform="matrix(1 -2.306807e-03 2.306807e-03 1 0.2852 -0.9012)" class="st1" width="20" height="20"/>
	<rect x="-461.2" y="-135.9" class="st0" width="24" height="24"/>
	<rect x="-459.3" y="-134.1" class="st1" width="20" height="20"/>

		<rect x="-461.1" y="-77.4" transform="matrix(2.306807e-03 1 -1 2.306807e-03 -513.4821 383.8392)" class="st0" width="24" height="24"/>

		<rect x="-459.1" y="-75.4" transform="matrix(2.306807e-03 1 -1 2.306807e-03 -513.4821 383.8392)" class="st1" width="20" height="20"/>

		<rect x="-402.5" y="-77.4" transform="matrix(2.306807e-03 1 -1 2.306807e-03 -455.0104 325.2325)" class="st0" width="24" height="24"/>

		<rect x="-400.5" y="-75.4" transform="matrix(2.306807e-03 1 -1 2.306807e-03 -455.0104 325.2325)" class="st1" width="20" height="20"/>

		<rect x="-343.9" y="-136.1" transform="matrix(1 -2.306807e-03 2.306807e-03 1 0.2853 -0.766)" class="st0" width="24" height="24"/>

		<rect x="-341.9" y="-134.1" transform="matrix(1 -2.306807e-03 2.306807e-03 1 0.2853 -0.766)" class="st1" width="20" height="20"/>

		<rect x="-343.9" y="-77.4" transform="matrix(2.306807e-03 1 -1 2.306807e-03 -396.5388 266.6258)" class="st0" width="24" height="24"/>

		<rect x="-341.9" y="-75.4" transform="matrix(2.306807e-03 1 -1 2.306807e-03 -396.5388 266.6258)" class="st1" width="20" height="20"/>

		<rect x="-754.2" y="-19.1" transform="matrix(1 -2.306807e-03 2.306807e-03 1 1.435008e-02 -1.7121)" class="st0" width="24" height="24"/>

		<rect x="-752.2" y="-17.1" transform="matrix(1 -2.306807e-03 2.306807e-03 1 1.435008e-02 -1.7121)" class="st1" width="20" height="20"/>
	<rect x="-812.8" y="-18.9" class="st0" width="24" height="24"/>
	<rect x="-810.9" y="-17.1" class="st1" width="20" height="20"/>

		<rect x="-812.7" y="39.6" transform="matrix(2.306807e-03 1 -1 2.306807e-03 -747.3117 852.2101)" class="st0" width="24" height="24"/>

		<rect x="-810.7" y="41.6" transform="matrix(2.306807e-03 1 -1 2.306807e-03 -747.3117 852.2101)" class="st1" width="20" height="20"/>

		<rect x="-754.1" y="39.6" transform="matrix(2.306807e-03 1 -1 2.306807e-03 -688.84 793.6034)" class="st0" width="24" height="24"/>

		<rect x="-752.1" y="41.6" transform="matrix(2.306807e-03 1 -1 2.306807e-03 -688.84 793.6034)" class="st1" width="20" height="20"/>

		<rect x="-637" y="-19.1" transform="matrix(1 -2.306807e-03 2.306807e-03 1 1.466195e-02 -1.4417)" class="st0" width="24" height="24"/>

		<rect x="-635" y="-17.1" transform="matrix(1 -2.306807e-03 2.306807e-03 1 1.466195e-02 -1.4417)" class="st1" width="20" height="20"/>
	<rect x="-695.6" y="-18.9" class="st0" width="24" height="24"/>
	<rect x="-693.7" y="-17.1" class="st1" width="20" height="20"/>

		<rect x="-695.5" y="39.6" transform="matrix(2.306807e-03 1 -1 2.306807e-03 -630.3684 734.9967)" class="st0" width="24" height="24"/>

		<rect x="-693.5" y="41.6" transform="matrix(2.306807e-03 1 -1 2.306807e-03 -630.3684 734.9967)" class="st1" width="20" height="20"/>

		<rect x="-636.9" y="39.6" transform="matrix(2.306807e-03 1 -1 2.306807e-03 -571.8967 676.39)" class="st0" width="24" height="24"/>

		<rect x="-634.9" y="41.6" transform="matrix(2.306807e-03 1 -1 2.306807e-03 -571.8967 676.39)" class="st1" width="20" height="20"/>

		<rect x="-519.7" y="-19.1" transform="matrix(1 -2.306807e-03 2.306807e-03 1 1.497382e-02 -1.1713)" class="st0" width="24" height="24"/>

		<rect x="-517.7" y="-17.1" transform="matrix(1 -2.306807e-03 2.306807e-03 1 1.497382e-02 -1.1713)" class="st1" width="20" height="20"/>
	<rect x="-578.4" y="-18.9" class="st0" width="24" height="24"/>
	<rect x="-576.5" y="-17.1" class="st1" width="20" height="20"/>

		<rect x="-578.3" y="39.6" transform="matrix(2.306807e-03 1 -1 2.306807e-03 -513.4251 617.7833)" class="st0" width="24" height="24"/>

		<rect x="-576.3" y="41.6" transform="matrix(2.306807e-03 1 -1 2.306807e-03 -513.4251 617.7833)" class="st1" width="20" height="20"/>

		<rect x="-519.7" y="39.6" transform="matrix(2.306807e-03 1 -1 2.306807e-03 -454.9534 559.1766)" class="st0" width="24" height="24"/>

		<rect x="-517.7" y="41.6" transform="matrix(2.306807e-03 1 -1 2.306807e-03 -454.9534 559.1766)" class="st1" width="20" height="20"/>

		<rect x="-402.5" y="-19.1" transform="matrix(1 -2.306807e-03 2.306807e-03 1 1.528569e-02 -0.9009)" class="st0" width="24" height="24"/>

		<rect x="-400.5" y="-17.1" transform="matrix(1 -2.306807e-03 2.306807e-03 1 1.528569e-02 -0.9009)" class="st1" width="20" height="20"/>
	<rect x="-461.2" y="-18.9" class="st0" width="24" height="24"/>
	<rect x="-459.3" y="-17.1" class="st1" width="20" height="20"/>

		<rect x="-461.1" y="39.6" transform="matrix(2.306807e-03 1 -1 2.306807e-03 -396.4818 500.5699)" class="st0" width="24" height="24"/>

		<rect x="-459.1" y="41.6" transform="matrix(2.306807e-03 1 -1 2.306807e-03 -396.4818 500.5699)" class="st1" width="20" height="20"/>

		<rect x="-402.5" y="39.6" transform="matrix(2.306807e-03 1 -1 2.306807e-03 -338.0101 441.9633)" class="st0" width="24" height="24"/>

		<rect x="-400.5" y="41.6" transform="matrix(2.306807e-03 1 -1 2.306807e-03 -338.0101 441.9633)" class="st1" width="20" height="20"/>

		<rect x="-343.9" y="-19.1" transform="matrix(1 -2.306807e-03 2.306807e-03 1 1.544162e-02 -0.7657)" class="st0" width="24" height="24"/>

		<rect x="-341.9" y="-17.1" transform="matrix(1 -2.306807e-03 2.306807e-03 1 1.544162e-02 -0.7657)" class="st1" width="20" height="20"/>

		<rect x="-343.9" y="39.6" transform="matrix(2.306807e-03 1 -1 2.306807e-03 -279.5385 383.3566)" class="st0" width="24" height="24"/>

		<rect x="-341.9" y="41.6" transform="matrix(2.306807e-03 1 -1 2.306807e-03 -279.5385 383.3566)" class="st1" width="20" height="20"/>

		<rect x="-284.9" y="39.6" transform="matrix(2.306807e-03 1 -1 2.306807e-03 -220.6549 324.337)" class="st0" width="24" height="24"/>

		<rect x="-282.9" y="41.6" transform="matrix(2.306807e-03 1 -1 2.306807e-03 -220.6549 324.337)" class="st1" width="20" height="20"/>
</g>
<g id="icons">
	<g>
		<circle class="st2" cx="-749.9" cy="-190" r="1.1"/>
		<path class="st3" d="M-733.8-184.9c0,0-1.9,0-3.8-1.6c-1.7-1.5-4-1.4-5,0.4c-1-1.8-3.3-1.9-5-0.4c-1.8,1.6-3.8,1.6-3.8,1.6
			s1.8,2.5,3.6,4.2c1.7,1.6,3.8,1.8,5.2,1.8c1.4,0,3.5-0.2,5.2-1.8c0.6-0.5,1.1-1.2,1.7-1.8L-733.8-184.9z"/>
	</g>
	<path class="st4" d="M-678.4-128.4h4.4v3.7c0,0-6.7-0.6-7.2,6.5h-2.2h-2.2c-0.4-7.1-7.4-6.5-7.4-6.5v-3.7h4.5"/>
	<path class="st5" d="M-561.9-114.3h-9.6v-5.8c0-1.8,1.4-3.2,3.2-3.2h3.2c1.8,0,3.2,1.4,3.2,3.2V-114.3z"/>
	<polyline class="st3" points="-564.8,-126.2 -564.8,-133.4 -568.5,-133.4 -568.5,-126.2 	"/>
	<path class="st6" d="M-498.1-123.7"/>
	<circle class="st2" cx="-449.4" cy="-243.5" r="1.6"/>
	<path class="st5" d="M-690.4-72.7l12.4,3.3c0.6,0.2,0.8,1,0.2,1.4l-3.4,2.1l3.5,2.9c0.5,0.4,0.5,1.2,0.1,1.6l-1,1.1
		c-0.4,0.5-1.2,0.5-1.6,0.1l-3.5-2.9l-1.5,3.5c-0.3,0.6-1.1,0.6-1.4,0l-4.8-12.1C-691.6-72.2-691-72.8-690.4-72.7z"/>
	<path class="st5" d="M-692.6-71.2"/>
	<g>
		<path class="st3" d="M-615.8-183.2c0,5.5-4.3,10-9.7,10c-5.5,0-10.1-4.4-10.1-9.9c0-5.4,4.6-9.8,9.6-9.9c0,0,0,10,0,10h5"/>
		<circle class="st2" cx="-618.3" cy="-190.1" r="0.7"/>
		<circle class="st2" cx="-616.3" cy="-187.1" r="0.7"/>
		<circle class="st2" cx="-621.5" cy="-192.1" r="0.7"/>
	</g>
	<g>
		<path class="st5" d="M-499.5-126.2v9.5c0,1-0.8,1.8-1.8,1.8h-12.2c-1,0-1.8-0.8-1.8-1.8v-9.5"/>
		<path class="st4" d="M-505.4-130.7h3.9c1.1,0,2,0.9,2,2v3h-15.9v-3c0-1.1,0.9-2,2-2h1.1"/>
		<path class="st5" d="M-504.6-114.9"/>
		<path class="st5" d="M-499.5-120"/>
		<polyline class="st5" points="-503.5,-114.9 -503.5,-118.9 -499.5,-118.9 		"/>
		<polygon class="st2" points="-500,-118.9 -500,-115 -503.6,-115 		"/>
		<line class="st3" x1="-511" y1="-133" x2="-511" y2="-129"/>
		<line class="st3" x1="-505" y1="-133" x2="-505" y2="-129"/>
		<rect x="-510" y="-132" class="st2" width="3" height="2"/>
	</g>
	<path class="st6" d="M-382.1-64.7"/>
	<g>
		<path class="st5" d="M-387.6-57.9"/>
		<path class="st5" d="M-382.5-63"/>
		<path class="st5" d="M-386.4-57.8h-7.6c-1.1,0-1.9-0.9-1.9-1.9v-5.7c0-1.1,0.9-1.9,1.9-1.9h7.6c1.1,0,1.9,0.9,1.9,1.9v5.7
			C-384.5-58.7-385.4-57.8-386.4-57.8z"/>
		<path class="st4" d="M-393.1-68.1v-3.9c0-1.6,1.3-2.8,2.8-2.8l0,0c1.6,0,2.8,1.3,2.8,2.8v0.9"/>
	</g>
	<path class="st6" d="M-323.1-64.7"/>
	<g>
		<path class="st5" d="M-328.6-57.9"/>
		<path class="st5" d="M-323.5-63"/>
		<path class="st5" d="M-327.4-57.8h-7.6c-1.1,0-1.9-0.9-1.9-1.9v-5.7c0-1.1,0.9-1.9,1.9-1.9h7.6c1.1,0,1.9,0.9,1.9,1.9v5.7
			C-325.5-58.7-326.4-57.8-327.4-57.8z"/>
		<path class="st4" d="M-334.1-68.1v-3.9c0-1.6,1.3-2.8,2.8-2.8l0,0c1.6,0,2.8,1.3,2.8,2.8v3.9"/>
	</g>
	<g>
		<path class="st5" d="M-440.5-126.2v9.5c0,1-0.8,1.8-1.8,1.8h-12.2c-1,0-1.8-0.8-1.8-1.8v-9.5"/>
		<path class="st4" d="M-446.4-130.7h3.9c1.1,0,2,0.9,2,2v3h-15.9v-3c0-1.1,0.9-2,2-2h1.1"/>
		<path class="st5" d="M-445.6-114.9"/>
		<path class="st5" d="M-440.5-120"/>
		<line class="st3" x1="-452" y1="-133" x2="-452" y2="-129"/>
		<line class="st3" x1="-446" y1="-133" x2="-446" y2="-129"/>
		<rect x="-451" y="-132" class="st2" width="3" height="2"/>
	</g>
	<g>
		<path class="st3" d="M-505.6-187.1l1.6-1c1-0.5,1.2-1.7,0.4-2.5l0,0c-0.7-0.7-1.9-0.6-2.4,0.3l-0.4,0.5c-0.8,0.9-1.5,1.9-2.1,2.9
			l-2.6,4.3"/>
		<path class="st3" d="M-510.2-187.1l-1.6-1c-1-0.5-1.2-1.7-0.4-2.5l0,0c0.7-0.7,1.9-0.6,2.4,0.3l0.4,0.5c0.8,0.9,1.5,1.9,2.1,2.9
			l2.6,4.3"/>
		<g>
			<path class="st2" d="M-501.6-173.7h-12.8c-1.1,0-2-0.9-2-2v-8.7c0-1.1,0.9-2,2-2h0.8l1.4,0.9l-0.8,1.1h-1.3l0,8.7l12.8,0l0-8.7
				l-1.2,0l-0.9-1.3l1.2-0.7h0.9c1.1,0,2,0.9,2,2v8.7C-499.6-174.6-500.5-173.7-501.6-173.7z"/>
		</g>
	</g>
	<path class="st5" d="M-683.3-173.8"/>
	<path class="st5" d="M-673.8,0.3L-673.8,0.3c0-3.9-3.2-7.2-7.2-7.2h-1.4c-3.9,0-7.2,3.2-7.2,7.2v0H-673.8z"/>
	<circle class="st5" cx="-681.6" cy="-10.5" r="3.7"/>
	<g>
		<line class="st5" x1="-328" y1="-250" x2="-328" y2="-244"/>
		<line class="st5" x1="-325" y1="-247" x2="-331" y2="-247"/>
	</g>
	<path class="st2" d="M-680.4-127v-2.9c0-0.4-0.4-0.7-0.8-0.5l-2.1,1.1c-0.2,0.1-0.3,0.1-0.5,0l-2.1-1.1c-0.4-0.2-0.8,0.1-0.8,0.5
		v2.9c0,0.4,0.4,0.7,0.8,0.5l2.1-1.1c0.2-0.1,0.3-0.1,0.5,0l2.1,1.1C-680.8-126.3-680.4-126.6-680.4-127z"/>
	<rect x="-454.1" y="-123.7" class="st2" width="2.1" height="2.1"/>
	<rect x="-454.1" y="-120.7" class="st2" width="2.1" height="2.1"/>
	<rect x="-451.1" y="-123.7" class="st2" width="2.1" height="2.1"/>
	<polygon class="st2" points="-334,-131 -331,-131 -331,-133 -334,-133 -334,-135 -336,-135 -336,-129 -334,-129 	"/>
	<rect x="-327.5" y="-119.7" class="st2" width="2.1" height="2.1"/>
	<rect x="-330.5" y="-119.7" class="st2" width="2.1" height="2.1"/>
	<rect x="-327.5" y="-122.7" class="st2" width="2.1" height="2.1"/>
	<g>
		<path class="st5" d="M-382.5-126.2v9.5c0,1-0.8,1.8-1.8,1.8h-12.2c-1,0-1.8-0.8-1.8-1.8v-9.5"/>
		<path class="st4" d="M-388.4-130.7h3.9c1.1,0,2,0.9,2,2v3h-15.9v-3c0-1.1,0.9-2,2-2h1.1"/>
		<path class="st5" d="M-387.6-114.9"/>
		<path class="st5" d="M-382.5-120"/>
		<line class="st3" x1="-394" y1="-133" x2="-394" y2="-129"/>
		<line class="st3" x1="-388" y1="-133" x2="-388" y2="-129"/>
		<rect x="-393" y="-132" class="st2" width="3" height="2"/>
	</g>
	<g>
		<line class="st3" x1="-562.1" y1="-65.7" x2="-568.9" y2="-65.7"/>
		<line class="st3" x1="-564.5" y1="-74.3" x2="-576.3" y2="-74.3"/>
		<path class="st3" d="M-572.7-62.9l3.2,1c0.9,0.3,1.4,1.3,1.1,2.2v0c-0.3,0.9-1.2,1.3-2.1,1.1l-5.9-1.8"/>
		<line class="st3" x1="-561.3" y1="-62.9" x2="-571.6" y2="-62.9"/>
		<line class="st3" x1="-568.9" y1="-68.6" x2="-562.1" y2="-68.6"/>
		<line class="st3" x1="-558.4" y1="-65.7" x2="-562.1" y2="-65.7"/>
		<line class="st3" x1="-562.1" y1="-62.9" x2="-560.4" y2="-62.9"/>
		<line class="st3" x1="-560.4" y1="-71.5" x2="-568.9" y2="-71.5"/>
		<line class="st3" x1="-562.1" y1="-68.6" x2="-558.4" y2="-68.6"/>
	</g>
	<g>
		<line class="st5" x1="-457" y1="-69" x2="-441" y2="-69"/>
		<line class="st5" x1="-457" y1="-63" x2="-441" y2="-63"/>
		<path class="st5" d="M-445-65.4c0,4.9-3.5,8.9-3.5,8.9s-3.5-4-3.5-8.9s3.5-8.9,3.5-8.9S-445-70.3-445-65.4z"/>
		<circle class="st5" cx="-448.7" cy="-65.4" r="9.1"/>
	</g>
	<path class="st7" d="M-444.5-238.4l-4,4.4c-0.5,0.5-1.4,0.5-1.9,0l-4-4.4c-2.7-2.7-2.7-7.1,0-9.8v0c2.7-2.7,7.1-2.7,9.8,0l0,0
		C-441.8-245.5-441.8-241.1-444.5-238.4z"/>
	<path class="st3" d="M-330-237.7c-3.2-0.5-5.9-3.1-6.4-6.4c-0.3-1.9,0.1-3.7,1-5.1c0.5-0.8-0.5-1.7-1.3-1.2
		c-2.6,1.8-4.2,4.8-3.9,8.3c0.3,4.6,4.1,8.4,8.7,8.7c3.4,0.2,6.5-1.4,8.3-3.9c0.5-0.8-0.3-1.8-1.2-1.3
		C-326.3-237.8-328.1-237.4-330-237.7z"/>
	<circle class="st5" cx="-566.4" cy="-183.4" r="9.7"/>
	<g>
		<g>
			<g>
				<line class="st8" x1="-502.5" y1="41.2" x2="-502.5" y2="41.2"/>
				<line class="st9" x1="-505" y1="41" x2="-512" y2="41"/>
				<line class="st8" x1="-512.5" y1="41.2" x2="-512.5" y2="41.2"/>
			</g>
		</g>
		<line class="st5" x1="-503" y1="41" x2="-503" y2="44"/>
		<line class="st5" x1="-513" y1="41" x2="-513" y2="44"/>
		<rect x="-513.9" y="44.7" class="st0" width="13.9" height="1.9"/>
		<path class="st5" d="M-502.7,61.1h-9.3c-1,0-1.9-0.8-1.9-1.9V47.1c0-1,0.8-1.9,1.9-1.9h9.3c1,0,1.9,0.8,1.9,1.9v12.1
			C-500.9,60.3-501.7,61.1-502.7,61.1z"/>
		<line class="st5" x1="-511" y1="49" x2="-505" y2="49"/>
		<rect x="-508.5" y="52.9" class="st2" width="2.2" height="2.2"/>
		<rect x="-508.5" y="55.7" class="st2" width="2.2" height="2.2"/>
		<rect x="-505.7" y="52.9" class="st2" width="2.2" height="2.2"/>
		<rect x="-505.7" y="55.7" class="st2" width="2.2" height="2.2"/>
		<rect x="-511.3" y="52.9" class="st2" width="2.2" height="2.2"/>
		<rect x="-511.3" y="55.7" class="st2" width="2.2" height="2.2"/>
	</g>
	<circle class="st5" cx="-507.2" cy="-7.1" r="8.3"/>
	<circle class="st5" cx="-566.2" cy="-7.1" r="8.3"/>
	<circle class="st5" cx="-390.2" cy="-7.1" r="8.3"/>
	<circle class="st2" cx="-507.5" cy="-10.8" r="1.2"/>
	<g>
		<rect x="-509" y="-9" class="st2" width="2" height="7"/>
	</g>
	<path class="st5" d="M-574.7-239l6.1-9.5c1.1-1.7,3.6-1.7,4.7,0l6.1,9.5c1.2,1.9-0.1,4.3-2.3,4.3h-12.3
		C-574.6-234.7-575.9-237.2-574.7-239z"/>
	<line class="st4" x1="-567" y1="-246" x2="-567" y2="-241"/>
	<circle class="st2" cx="-566.5" cy="-238.4" r="1"/>
	<path class="st5" d="M-682.7-248.3l1.4,3.9c0.1,0.3,0.4,0.6,0.8,0.6l4.2,0.1c0.8,0,1.1,1,0.5,1.5l-3.3,2.5
		c-0.3,0.2-0.4,0.6-0.3,0.9l1.2,4c0.2,0.8-0.6,1.4-1.3,0.9l-3.4-2.4c-0.3-0.2-0.7-0.2-1,0l-3.4,2.4c-0.6,0.5-1.5-0.2-1.3-0.9l1.2-4
		c0.1-0.3,0-0.7-0.3-0.9l-3.3-2.5c-0.6-0.5-0.3-1.5,0.5-1.5l4.2-0.1c0.3,0,0.7-0.2,0.8-0.6l1.4-3.9C-684-249-683-249-682.7-248.3z"
		/>
	<g>
		<path class="st5" d="M-793-181.3c-1.1,0-2-0.8-1.9-2c0.1-1,1-1.7,1.9-1.7h0.6v-2.7c0-0.5-0.4-1-1-1h-15.6c-0.5,0-1,0.4-1,1v2.7h1
			c1,0,1.9,0.7,1.9,1.7c0.1,1.2-0.8,2-1.9,2h-1v2.7c0,0.5,0.4,1,1,1h15.6c0.5,0,1-0.4,1-1v-2.7H-793z"/>
		<circle class="st2" cx="-798.2" cy="-187.1" r="0.6"/>
		<circle class="st2" cx="-798.2" cy="-185.1" r="0.6"/>
		<circle class="st2" cx="-798.2" cy="-183.1" r="0.6"/>
		<circle class="st2" cx="-798.2" cy="-181.1" r="0.6"/>
		<circle class="st2" cx="-798.2" cy="-179.1" r="0.6"/>
	</g>
	<path class="st4" d="M-811.5-131.8h1.7c1,0,1.9,0.7,2.2,1.7l2.6,10.9c0.2,0.8,0.9,1.4,1.8,1.4h8.8"/>
	<path class="st4" d="M-807.1-128.8h12.5c0.8,0,1.4,0.7,1.2,1.5l-1.1,4.9c-0.1,0.6-0.6,0.9-1.2,0.9h-9.6"/>
	<circle class="st2" cx="-797.2" cy="-116.1" r="1.2"/>
	<circle class="st2" cx="-803.2" cy="-116.1" r="1.2"/>
	<path class="st4" d="M-811.5-131.8h1.7c1,0,1.9,0.7,2.2,1.7l2.6,10.9c0.2,0.8,0.9,1.4,1.8,1.4h8.8"/>
	<path class="st4" d="M-807.1-128.8h12.5c0.8,0,1.4,0.7,1.2,1.5l-1.1,4.9c-0.1,0.6-0.6,0.9-1.2,0.9h-9.6"/>
	<circle class="st2" cx="-797.2" cy="-116.1" r="1.2"/>
	<circle class="st2" cx="-803.2" cy="-116.1" r="1.2"/>
	<path class="st4" d="M-735.5-118.8h-11.2c-1.1,0-1.9-0.9-1.9-1.9l0.1-9.7c0-1.3-1-2.4-2.4-2.4h-1"/>
	<path class="st4" d="M-748.1-129.8h15l-2.5,6.4c-0.1,0.6-0.6,0.9-1.2,0.9h-11.3"/>
	<circle class="st2" cx="-738.2" cy="-116.1" r="1.2"/>
	<circle class="st2" cx="-746.2" cy="-116.1" r="1.2"/>
	<path class="st5" d="M-623.1-57.1l0-8.3l1.1,0.6c0.9,0.5,2,0.3,2.5-0.6l0,0c0.5-0.9,0.3-2-0.6-2.5l-5.5-3.3c-0.9-0.5-2-0.3-2.5,0.6
		v0c-0.5,0.9-0.3,2,0.6,2.5l1.1,0.7l-7.4,3.8c-1.1,0.4-1.1,1.7-0.1,2.4l8.7,5.3C-624.2-55.3-623-55.9-623.1-57.1z"/>
	<circle class="st5" cx="-617.1" cy="-72.8" r="2"/>
	<circle class="st2" cx="-622.9" cy="-73.9" r="1.3"/>
	<path class="st5" d="M-737.2-69.9c0-3.2-2.6-5.8-5.8-5.8c-1.6,0-3.1,0.8-4.1,2c-2.9,3.3-1.4,6.7,0.8,8.4c0.7,0.6,1.1,1.4,1.1,2.3
		v0.9c0,1.2,1,2.2,2.2,2.2l0,0c1.2,0,2.2-1,2.2-2.2V-63c0-0.9,0.4-1.7,1.1-2.3C-738.4-66.3-737.2-68-737.2-69.9z"/>
	<g>
		<path class="st2" d="M-741.1-55.3c-0.7,0.4-1.4,0.5-2,0.5c-1.2,0-2-0.5-2.1-0.5l-0.5-0.3l0.7-1.9l0.8,0.5c0.1,0,1,0.5,2.2,0
			l0.9-0.4l0.7,1.9"/>
	</g>
	<path class="st4" d="M-749.4-8.4c-0.8,0-1.5,0.8-1.3,1.6l1.4,6.1c0.1,0.6,0.7,1,1.3,1h12.7c0.6,0,1.1-0.4,1.3-1l1.4-6.1
		c0.2-0.8-0.4-1.6-1.3-1.6H-749.4z"/>
	<path class="st4" d="M-744.4-9.6"/>
	<path class="st4" d="M-748.5-6.8"/>
	<line class="st4" x1="-738.5" y1="-15.4" x2="-735.5" y2="-8.6"/>
	<line class="st4" x1="-747.5" y1="-8.6" x2="-744.5" y2="-15.4"/>
	<path class="st4" d="M-807.4-8.4c-0.8,0-1.5,0.8-1.3,1.6l1.4,6.1c0.1,0.6,0.7,1,1.3,1h11.7c0.6,0,1.1-0.4,1.3-1l1.4-6.1
		c0.2-0.8-0.4-1.6-1.3-1.6H-807.4z"/>
	<path class="st4" d="M-803.4-9.6"/>
	<path class="st4" d="M-807.5-6.8"/>
	<line class="st4" x1="-794.5" y1="-8.6" x2="-797.5" y2="-15.4"/>
	<line class="st4" x1="-805.5" y1="-8.6" x2="-802.5" y2="-15.4"/>
	<line class="st4" x1="-799" y1="-6" x2="-799" y2="-2"/>
	<line class="st4" x1="-796" y1="-6" x2="-796" y2="-2"/>
	<line class="st4" x1="-802" y1="-6" x2="-802" y2="-2"/>
	<line class="st4" x1="-805" y1="-6" x2="-805" y2="-2"/>
	<path class="st5" d="M-624,44.3l-3.4,3.6h-4.4c-1.4,0-2.5,1.1-2.5,2.5V52c0,1.4,1.1,2.5,2.5,2.5h4.4l3.5,3.9
		c0.7,0.7,1.9,0.3,1.9-0.7V45C-622.1,44-623.3,43.5-624,44.3z"/>
	<g>
		<path class="st2" d="M-620,47V49c1,0.3,1.7,1.3,1.7,2.4c0,1.1-0.7,2-1.7,2.4v1.9c2-0.4,3.6-2.2,3.6-4.3
			C-616.4,49.2-618,47.4-620,47z"/>
	</g>
	<g>
		<path class="st2" d="M-394.5-122.5v-1.1h1.6c0.4,0,0.6,0.3,0.6,0.6v6h-1.2v-5.3c0-0.1-0.1-0.3-0.3-0.3H-394.5z"/>
		<path class="st2" d="M-391-122.5v-1.1h3.8c0.5,0,0.9,0.6,0.7,1l-2.7,5.6h-1.3l2.6-5.4c0-0.1,0-0.2-0.1-0.2H-391z"/>
	</g>
	<g>
		<path class="st2" d="M-339-120.4v-5.6h5.9l2-2h-7.9v-1.7c0-0.6,1.1-1.3,1.7-1.3h0.3v-2h-0.3c-1.7,0-3.7,1.6-3.7,3.3v2.6v0.4v8.4
			L-339-120.4z"/>
		<polygon class="st2" points="-326.1,-133 -328,-133 -328,-135 -330,-135 -330,-129.4 		"/>
		<path class="st2" d="M-324.8-130.1c0,0.1-0.2,0.2-0.2,0.4v1.7h-1.9l-2,2h3.9v8.3c0,0.5,0.2,0.7-0.3,0.7h-12.2
			c-0.1,0-0.2,0.1-0.3,0.1l-1.5,1.4c0.5,0.4,1.1,0.5,1.7,0.5h12.2c1.6,0,2.3-1.1,2.3-2.7v-9.1v-0.4v-2.6c0-0.7-0.1-1.3-0.5-1.8
			L-324.8-130.1z"/>
	</g>
	<line class="st4" x1="-321.6" y1="-134.2" x2="-341.5" y2="-114.3"/>
	<g>
		<path class="st2" d="M-804.4-68.4v-3.7c0-0.2,0.1-0.3,0.3-0.3h5.4c0.2,0,0.3,0.1,0.3,0.3v3.7h2v-5.1c0-0.5-0.4-0.9-0.9-0.9h-7.9
			c-0.7,0-1.2,0.5-1.2,1.2v4.8H-804.4z"/>
	</g>
	<path class="st4" d="M-805.7-58.7h-2.2c-0.8,0-1.5-0.7-1.5-1.5V-65c0-0.8,0.7-1.5,1.5-1.5h13.1c0.8,0,1.5,0.7,1.5,1.5v4.9
		c0,0.8-0.7,1.5-1.5,1.5h-2.5"/>
	<rect x="-805.5" y="-62.9" class="st5" width="8.2" height="5.5"/>
	<polyline class="st3" points="-390.8,-10.2 -388,-7.4 -390.8,-4.5 	"/>
	<circle class="st5" cx="-332.2" cy="-8.1" r="8.3"/>
	<polyline class="st3" points="-331.6,-5 -334.4,-7.8 -331.6,-10.6 	"/>
	<line class="st4" x1="-563.5" y1="-11.8" x2="-568.8" y2="-2.8"/>
	<circle class="st2" cx="-563.2" cy="-4.5" r="1.7"/>
	<circle class="st2" cx="-569.2" cy="-9.5" r="1.7"/>
	<path class="st5" d="M-446.4,59.9h-6.5c-1,0-1.9-0.8-1.9-1.9V44.2c0-1,0.8-1.9,1.9-1.9h6.5c1,0,1.9,0.8,1.9,1.9v13.9
		C-444.5,59.1-445.3,59.9-446.4,59.9z"/>
	<line class="st5" x1="-455" y1="55" x2="-445" y2="55"/>
	<line class="st5" x1="-455" y1="46" x2="-445" y2="46"/>
	<path class="st5" d="M-382.4,54.2l-4.6,4.6c-0.7,0.7-1.9,0.7-2.6,0l-7.9-7.9c-0.5-0.5-0.8-1.2-0.8-1.9l0-3.4c0-1.4,1.2-2.6,2.6-2.6
		l3.5-0.1c0.7,0,1.4,0.3,1.9,0.8l7.9,7.9C-381.7,52.3-381.7,53.5-382.4,54.2z"/>
	<circle class="st2" cx="-394.5" cy="46.6" r="1.4"/>
	<path class="st5" d="M-679.4-189.7c-2.2,0-4,1.6-4.4,3.7c-0.4-2.1-2.2-3.7-4.4-3.7c-2.5,0-4.5,2-4.5,4.5c0,3.7,4.9,8,7.5,9.9
		c0.9,0.6,2,0.6,2.9,0c2.6-1.9,7.5-6.2,7.5-9.9C-674.9-187.6-676.9-189.7-679.4-189.7z"/>
	<path class="st2" d="M-386.1-250.1l3.8,3.8c0.3,0.3,0.3,0.7,0,1l-3.8,3.8c-0.5,0.5-1.2,0.1-1.2-0.5v-7.7
		C-387.3-250.3-386.6-250.6-386.1-250.1z"/>
	<g>
		<path class="st3" d="M-446.4-187.1l1.6-1c1-0.5,1.2-1.7,0.4-2.5l0,0c-0.7-0.7-1.9-0.6-2.4,0.3l-0.4,0.5c-0.8,0.9-1.5,1.9-2.1,2.9
			l-2.6,4.3"/>
		<path class="st3" d="M-451.1-187.1l-1.6-1c-1-0.5-1.2-1.7-0.4-2.5l0,0c0.7-0.7,1.9-0.6,2.4,0.3l0.4,0.5c0.8,0.9,1.5,1.9,2.1,2.9
			l2.6,4.3"/>
		<g>
			<path class="st2" d="M-440.4-174.7h-16.8c-1.1,0-2-0.9-2-2v-7.7c0-1.1,0.9-2,2-2h2.8l1.4,0.9l-0.8,1.1h-3.3l0,7.7l16.8,0l0-7.7
				l-3.2,0l-0.9-1.3l1.2-0.7h2.9c1.1,0,2,0.9,2,2v7.7C-438.4-175.6-439.3-174.7-440.4-174.7z"/>
		</g>
		<line class="st3" x1="-456" y1="-179" x2="-443" y2="-179"/>
	</g>
	<polyline class="st3" points="-567,-189 -567,-183 -564,-183 	"/>
	<path class="st5" d="M-383.6-177.4h-14.3c-0.9,0-1.6-0.7-1.6-1.6v-7.8c0-0.9,0.7-1.6,1.6-1.6h14.3c0.9,0,1.6,0.7,1.6,1.6v7.8
		C-382.1-178.1-382.8-177.4-383.6-177.4z"/>
	<polyline class="st4" points="-383,-187.4 -390.5,-181.7 -399,-187.9 	"/>
	<path class="st5" d="M-618.5-1.8v-8.8c0-3.4-2.7-6.1-6.1-6.1h-1.9"/>
	<path class="st5" d="M-632.6-1.5v-9.2c0-3.4,2.7-6.1,6.1-6.1h1.9"/>
	<path class="st4" d="M-618,2V0.5c0-1.7-1.2-3.5-2.9-3.5h-1.2c-0.9,0-1.9-0.3-1.9-1.3v-1.3c1-0.7,2-2,2-3.5v-0.7
		c0,0.1-0.4,0.1-0.7,0.1c-2.3,0-4.3-1.8-4.4-4.1c-1.6,0.5-2.9,1.9-2.9,3.7v1c0,1.6,1,3,2,3.6v1.2c0,0.9,0.2,1.3-0.7,1.3h-1.2
		c-1.7,0-4.1,1.8-4.1,3.5V2"/>
	<path class="st3" d="M-337.7-178.2h-3.3c-0.3,0-0.5-0.2-0.5-0.5v-1.7v-1.9c0-2,1.6-3.5,3.5-3.5h2.5"/>
	<line class="st3" x1="-329.4" y1="-178.2" x2="-332.9" y2="-178.2"/>
	<path class="st3" d="M-335.5-180.8v-7.3c0-0.8,0.7-1.5,1.5-1.5h10.9c0.8,0,1.5,0.7,1.5,1.5v9.9h-3.6"/>
	<circle class="st3" cx="-327.4" cy="-178.2" r="2"/>
	<path class="st5" d="M-323.5,43.5l-0.3-0.3L-325,42c-0.3-0.3-1-0.3-1.3,0c0,0-3.7,3.4-3.7,3.4v0c0,0.3,0,0.7,0.3,0.9l0.2,0
		c0,0,1.3,1.2,1.3,1.2l0.4,0.3c0.6,0.6,0,1.5-0.6,2.3c-1,1.2-2.1,2.3-3,3.1c-1.5,1.2-2.1,1.7-2.7,1.1l-1.5-1.5
		c-0.3-0.3-1.2-0.3-1.4,0c0,0-3.8,3.3-3.8,3.3v0c0,0.3,0.2,0.7,0.4,0.9l1.8,1.5c0.7,0.7,4.9,2.1,11.2-4.4
		C-321.5,48.1-322.8,44.3-323.5,43.5z"/>
	<path class="st5" d="M-615.7-129v3.8c0,0-6.7-0.6-7.2,6.5h-2.2h-2.2c-0.4-7.1-7.4-6.5-7.4-6.5v-3.7L-615.7-129z"/>
	<path class="st2" d="M-622.9-124.9v-2.2c0-0.3-0.3-0.5-0.6-0.4l-1.5,0.8c-0.1,0.1-0.2,0.1-0.4,0l-1.5-0.8c-0.3-0.1-0.6,0.1-0.6,0.4
		v2.2c0,0.3,0.3,0.5,0.6,0.4l1.5-0.8c0.1-0.1,0.2-0.1,0.4,0l1.5,0.8C-623.2-124.4-622.9-124.6-622.9-124.9z"/>
	<path class="st4" d="M-558.9,55.1v2.1c0,1.1-0.9,2-2,2h-11.7c-1.1,0-2-0.9-2-2v-9.7c0-1.1,0.9-2,2-2h11.7c1.1,0,2,0.9,2,2v2.2"/>
	<polyline class="st4" points="-557.6,50.6 -557.6,55 -564.8,55 -564.8,49.6 -557.6,49.6 -557.6,50.6 	"/>
	<g>
		<path class="st2" d="M-566,45l2.7-1.4l0.8,1.4h2.3l-1.9-3.2c-0.3-0.5-0.8-0.6-1.3-0.4l-7,3.6H-566z"/>
	</g>
	<circle class="st2" cx="-561.8" cy="52.3" r="0.8"/>
	<path class="st2" d="M-454.5-9.2c-0.9-0.4-1.5-1.3-1.5-2.3v-0.9c0-1.4,1.4-2.5,2.8-2.5c0.6,0,1.3,0.2,1.8,0.6
		c0.5-0.4,1.1-0.7,1.7-0.9l-0.1-0.3c-0.8-0.8-1.9-1.4-3-1.4c0,0,0,0,0,0c0,0,0,0,0,0c-2.4,0-5.2,2.2-5.2,4.6v0.9c0,1.5,1,2.9,2,3.7
		v0.5c0,0.3,0.6,0.3,0.3,0.3h-1c-2,0-4.3,1.8-4.3,3.8V-1h2v-2.2c0-1,1.2-1.8,2.3-1.8h1c1.3,0,1.7-1.1,1.7-2.3v-1
		C-454-8.7-454.2-9-454.5-9.2z"/>
	<g>
		<path class="st2" d="M-440.4,2h-13.9c-0.5,0-0.9-0.4-0.9-0.9v-1.7c0-2.1,1.7-3.8,3.8-3.8h1.1c0.3,0,0.6-0.3,0.6-0.6v-0.5
			c-1.3-0.8-2.1-2.3-2.1-3.8v-0.9c0-2.5,2-4.5,4.5-4.5l0,0c0,0,0,0,0,0c0,0,0,0,0,0c2.5,0,4.5,2,4.5,4.5v0.9c0,1.5-0.7,2.9-2,3.7V-5
			c0,0.3,0.3,0.6,0.6,0.6h1.1c2.1,0,3.8,1.7,3.8,3.8v1.7C-439.5,1.6-439.9,2-440.4,2z M-453.5,0.2h12.1v-0.8c0-1.1-0.9-1.9-1.9-1.9
			h-1.1c-1.3,0-2.4-1.1-2.4-2.4v-1.2c0-0.4,0.2-0.7,0.5-0.8c0.9-0.4,1.5-1.3,1.5-2.3v-0.9c0-1.5-1.2-2.6-2.7-2.6
			c-1.5,0-2.7,1.2-2.7,2.6v0.9c0,1.1,0.6,2,1.6,2.5c0.3,0.1,0.5,0.5,0.5,0.8V-5c0,1.3-1.1,2.4-2.4,2.4h-1.1c-1.1,0-1.9,0.9-1.9,1.9
			V0.2z"/>
	</g>
	<path class="st2" d="M-449.3,58.2h-0.5c-0.2,0-0.3-0.1-0.3-0.3v-0.3c0-0.2,0.1-0.3,0.3-0.3h0.5c0.2,0,0.3,0.1,0.3,0.3v0.3
		C-449,58.1-449.1,58.2-449.3,58.2z"/>
	<circle class="st3" cx="-335.6" cy="-177.9" r="1.9"/>
	<ellipse class="st4" cx="-742" cy="44.2" rx="5.5" ry="1.9"/>
	<path class="st4" d="M-737,44v14.1c0,1.1-2.2,2.1-5.5,2.1s-5.5-0.8-5.5-1.8V44"/>
	<path class="st2" d="M-737.8,54.5c-0.2,0.3-1.7,1.2-4.5,1.2c-1.2,0-1.7-0.1-2.7-0.2v2.2c1,0.1,1.7,0.2,2.6,0.2
		c2.1,0,4.4-0.5,5.4-1.4v-1.8L-737.8,54.5z"/>
	<path class="st2" d="M-737.8,47.6c-0.2,0.3-1.7,1.2-4.5,1.2c-1.2,0-1.7-0.1-2.7-0.2v2.1c1,0.1,1.7,0.2,2.6,0.2
		c2.1,0,4.4-0.5,5.4-1.4v-1.8L-737.8,47.6z"/>
	<path class="st2" d="M-737.8,51c-0.2,0.3-1.7,1.1-4.5,1.1c-1.2,0-1.7-0.1-2.7-0.3v2c1,0.2,1.7,0.2,2.6,0.2c2.1,0,4.4-0.5,5.4-1.3
		V51L-737.8,51z"/>
	<line class="st10" x1="-508" y1="-248" x2="-508" y2="-236"/>
	<line class="st10" x1="-502" y1="-242" x2="-514" y2="-242"/>
	<line class="st11" x1="12.5" y1="2.5" x2="2.5" y2="12.5"/>
	<line class="st11" x1="12.5" y1="12.5" x2="2.5" y2="2.5"/>
	<path class="st12" d="M-395.9-234.8v-5.9c0-2.8,2.3-5.1,5.1-5.1h2.9"/>
	<path class="st2" d="M-677.8,41.8l-1.8-0.9l-4.6,9.2l-5.3,2.4c-0.1-0.5-0.4-1-0.9-1.4c-0.6-0.5-1.3-0.7-2-0.6
		c-0.7,0.1-1.4,0.4-1.9,1c-0.5,0.6-0.7,1.3-0.6,2c0.1,0.7,0.4,1.4,1,1.9c0.6,0.5,1.3,0.7,2,0.6c0.7-0.1,1.3-0.3,1.7-0.8
		c0.1-0.1,0.1-0.1,0.2-0.2c0,0,0-0.1,0.1-0.1l4.3-1.9l-2.1,4.3c0,0-0.1,0-0.1,0.1c-0.6,0.5-1,1.1-1,1.8c-0.1,0.7,0.1,1.5,0.6,2
		c0.5,0.6,1.1,1,1.8,1c0.7,0.1,1.5-0.1,2-0.6c0.1-0.1,0.2-0.1,0.3-0.2c0.4-0.4,0.7-1,0.8-1.6c0.1-0.7-0.1-1.5-0.6-2
		c-0.3-0.4-0.8-0.8-1.3-0.9l2.6-5.2l9.4-4.2l-0.8-1.8l-7.2,3.2L-677.8,41.8z M-692.9,53.3C-692.9,53.3-692.9,53.3-692.9,53.3
		c0-0.2,0-0.4,0.2-0.6c0,0,0,0,0,0c0.1-0.1,0.3-0.2,0.5-0.2c0.4,0,0.8,0.3,0.8,0.7c0,0.1,0,0.1,0,0.2l-0.2,0.1l0.1,0.2c0,0,0,0,0,0
		c-0.1,0.2-0.3,0.3-0.5,0.3c-0.2,0-0.4,0-0.6-0.2C-692.8,53.7-692.9,53.5-692.9,53.3z M-686.1,58.7c0.4,0.1,0.7,0.4,0.7,0.9
		c0,0.2-0.1,0.4-0.3,0.5c-0.2,0.1-0.4,0.2-0.6,0.2l0,0c-0.4-0.1-0.7-0.4-0.7-0.9c0-0.2,0.1-0.3,0.2-0.4c0,0,0,0,0.1-0.1c0,0,0,0,0,0
		l0.2,0.1l0.1-0.2C-686.2,58.7-686.2,58.7-686.1,58.7z"/>
	<path class="st5" d="M-618.7-248.8c-3.7-3.7-9.7-3.7-13.4,0c-3.7,3.7-3.7,9.7,0,13.4c3.2,3.2,8,3.6,11.7,1.4l4.2,1.1l-1.1-4.2
		C-615-240.7-615.5-245.6-618.7-248.8z"/>
	<path class="st2" d="M-625.1-245.2l0.5,1.6c0,0.1,0.2,0.2,0.3,0.2l1.7,0c0.3,0,0.4,0.4,0.2,0.6l-1.3,1c-0.1,0.1-0.2,0.2-0.1,0.4
		l0.5,1.6c0.1,0.3-0.2,0.5-0.5,0.4l-1.4-0.9c-0.1-0.1-0.3-0.1-0.4,0l-1.4,0.9c-0.3,0.2-0.6-0.1-0.5-0.4l0.5-1.6c0-0.1,0-0.3-0.1-0.4
		l-1.3-1c-0.3-0.2-0.1-0.6,0.2-0.6l1.7,0c0.1,0,0.3-0.1,0.3-0.2l0.5-1.6C-625.6-245.5-625.2-245.5-625.1-245.2z"/>
	<path class="st5" d="M-499.1-68.5l-2.2-3.3l-2.1,1.2c-1.1,0.6-2.4-0.2-2.4-1.4v-2.5h-4.1v2.5c0,1.3-1.4,2-2.4,1.4l-2-1.1l-2,3.3
		l2.1,1.3c1.1,0.6,1,2.2,0,2.8l-2.1,1.3l2.1,3.3l2-1.1c1.1-0.6,2.4,0.2,2.4,1.4v2.5h4.1v-2.6c0-1.2,1.3-2,2.4-1.4l2.1,1.2l2.1-3.3
		l-2-1.2c-1.1-0.6-1-2.2,0-2.8L-499.1-68.5z"/>
	<circle class="st5" cx="-508.2" cy="-66.1" r="1.9"/>
	<line class="st4" x1="-811" y1="-248" x2="-792" y2="-248"/>
	<line class="st4" x1="-811" y1="-244" x2="-793" y2="-244"/>
	<line class="st4" x1="-811" y1="-240" x2="-792" y2="-240"/>
	<line class="st4" x1="-811" y1="-236" x2="-801" y2="-236"/>
	<path class="st4" d="M-735.5-236.8h-7.9l-4.3,4v-4h-1.6c-1.1,0-1.9-0.9-1.9-1.9v-8.7c0-1.1,0.9-1.9,1.9-1.9h13.9
		c1.1,0,1.9,0.9,1.9,1.9v8.7C-733.6-237.6-734.5-236.8-735.5-236.8z"/>
	<line class="st4" x1="-749" y1="-245" x2="-737" y2="-245"/>
	<line class="st4" x1="-749" y1="-242" x2="-741" y2="-242"/>
	<line class="st4" x1="-808" y1="56" x2="-811" y2="56"/>
	<line class="st4" x1="-791" y1="56" x2="-804" y2="56"/>
	<line class="st4" x1="-798" y1="50" x2="-811" y2="50"/>
	<line class="st4" x1="-791" y1="50" x2="-795" y2="50"/>
	<line class="st4" x1="-791" y1="44" x2="-799" y2="44"/>
	<path class="st4" d="M-797.5,51.6V49c0-0.4,0.4-0.8,0.8-0.8h1.6c0.4,0,0.8,0.4,0.8,0.8v2.6c0,0.4-0.4,0.8-0.8,0.8h-1.6
		C-797.1,52.4-797.5,52-797.5,51.6z"/>
	<path class="st4" d="M-802,45.5v-2.6c0-0.4,0.4-0.8,0.8-0.8h1.6c0.4,0,0.8,0.4,0.8,0.8v2.6c0,0.4-0.4,0.8-0.8,0.8h-1.6
		C-801.7,46.3-802,45.9-802,45.5z"/>
	<path class="st4" d="M-807.1,57.6V55c0-0.4,0.4-0.8,0.8-0.8h1.6c0.4,0,0.8,0.4,0.8,0.8v2.6c0,0.4-0.4,0.8-0.8,0.8h-1.6
		C-806.8,58.4-807.1,58-807.1,57.6z"/>
	<line class="st4" x1="-803" y1="44" x2="-811" y2="44"/>
	<circle class="st5" cx="-275.2" cy="49.6" r="5.5"/>
	<line class="st4" x1="-263.4" y1="61" x2="-271.3" y2="53"/>
</g>
<g id="descriptions">
	<rect x="-813.7" y="-224.3" style="fill:none;" width="41.9" height="15.7"/>
	<text transform="matrix(1 0 0 1 -813.7019 -218.3436)" style="font-family:'F37Ginger'; font-size:8px;">Review</text>
	<rect x="-577" y="-224.3" style="fill:none;" width="44.8" height="15.7"/>
	<text transform="matrix(1 0 0 1 -576.9802 -218.3436)" style="font-family:'F37Ginger'; font-size:8px;">Warning</text>
	<rect x="-755" y="-224.3" style="fill:none;" width="44.8" height="15.7"/>
	<text transform="matrix(1 0 0 1 -754.9585 -218.3436)" style="font-family:'F37Ginger'; font-size:8px;">Review</text>
	<rect x="-515.5" y="-224.3" style="fill:none;" width="41.9" height="15.7"/>
	<text transform="matrix(1 0 0 1 -515.5219 -218.3436)" style="font-family:'F37Ginger'; font-size:8px;">Add</text>
	<rect x="-461" y="-224.3" style="fill:none;" width="44.8" height="15.7"/>
	<text transform="matrix(1 0 0 1 -460.9629 -218.3436)" style="font-family:'F37Ginger'; font-size:8px;">Location</text>
	<rect x="-402.9" y="-224.3" style="fill:none;" width="44.8" height="15.7"/>
	<text transform="matrix(1 0 0 1 -402.8937 -218.3436)" style="font-family:'F37Ginger'; font-size:8px;">Directions</text>
	<rect x="-342.1" y="-224.3" style="fill:none;" width="44.8" height="15.7"/>
	<text transform="matrix(1 0 0 1 -342.1318 -218.3436)" style="font-family:'F37Ginger'; font-size:8px;">24/7</text>
	<rect x="-813.7" y="-166.3" style="fill:none;" width="41.9" height="15.7"/>
	<text transform="matrix(1 0 0 1 -813.7019 -160.3436)" style="font-family:'F37Ginger'; font-size:8px;">Ticket</text>
	<rect x="-755" y="-166.3" style="fill:none;" width="44.8" height="15.7"/>
	<text transform="matrix(1 0 0 1 -754.9585 -160.3436)" style="font-family:'F37Ginger'; font-size:8px;">Beauty</text>
	<rect x="-695.5" y="-166.3" style="fill:none;" width="41.9" height="15.7"/>
	<text transform="matrix(1 0 0 1 -695.5001 -160.3436)" style="font-family:'F37Ginger'; font-size:8px;">Favourite</text>
	<rect x="-638.9" y="-166.3" style="fill:none;" width="44.8" height="15.7"/>
	<text transform="matrix(1 0 0 1 -638.9412 -160.3436)" style="font-family:'F37Ginger'; font-size:8px;">Duration</text>
	<rect x="-695.5" y="-224.3" style="fill:none;" width="41.9" height="15.7"/>
	<text transform="matrix(1 0 0 1 -695.5001 -218.3436)" style="font-family:'F37Ginger'; font-size:8px;">Star rating</text>
	<rect x="-638.9" y="-224.3" style="fill:none;" width="44.8" height="15.7"/>
	<text transform="matrix(1 0 0 1 -638.9412 -218.3436)"><tspan x="0" y="0" style="font-family:'F37Ginger'; font-size:8px;">Rate &amp; </tspan><tspan x="0" y="9.6" style="font-family:'F37Ginger'; font-size:8px;">review</tspan></text>
	<rect x="-580.9" y="-166.3" style="fill:none;" width="44.8" height="15.7"/>
	<text transform="matrix(1 0 0 1 -580.8719 -160.3436)" style="font-family:'F37Ginger'; font-size:8px;">Time</text>
	<rect x="-523.9" y="-166.3" style="fill:none;" width="44.8" height="15.7"/>
	<text transform="matrix(1 0 0 1 -523.8639 -160.3436)" style="font-family:'F37Ginger'; font-size:8px;">Gift</text>
	<rect x="-464.9" y="-166.3" style="fill:none;" width="44.8" height="15.7"/>
	<text transform="matrix(1 0 0 1 -464.9181 -160.3436)" style="font-family:'F37Ginger'; font-size:8px;">Gift card</text>
	<rect x="-407.6" y="-166.3" style="fill:none;" width="44.8" height="15.7"/>
	<text transform="matrix(1 0 0 1 -407.6072 -160.3436)" style="font-family:'F37Ginger'; font-size:8px;">email</text>
	<rect x="-348.7" y="-166.3" style="fill:none;" width="44.8" height="15.7"/>
	<text transform="matrix(1 0 0 1 -348.6614 -160.3436)" style="font-family:'F37Ginger'; font-size:8px;">Truck ?</text>
	<rect x="-813.7" y="-107.6" style="fill:none;" width="41.9" height="15.7"/>
	<text transform="matrix(1 0 0 1 -813.7019 -101.7216)"><tspan x="0" y="0" style="font-family:'F37Ginger'; font-size:8px;">Shopping </tspan><tspan x="0" y="9.6" style="font-family:'F37Ginger'; font-size:8px;">cart</tspan></text>
	<rect x="-755" y="-107.6" style="fill:none;" width="44.8" height="15.7"/>
	<text transform="matrix(1 0 0 1 -754.9585 -101.7216)"><tspan x="0" y="0" style="font-family:'F37Ginger'; font-size:8px;">Shopping </tspan><tspan x="0" y="9.6" style="font-family:'F37Ginger'; font-size:8px;">cart</tspan></text>
	<rect x="-695.5" y="-107.6" style="fill:none;" width="41.9" height="15.7"/>
	<text transform="matrix(1 0 0 1 -695.5001 -101.7216)" style="font-family:'F37Ginger'; font-size:8px;">Waxing</text>
	<rect x="-638.9" y="-107.6" style="fill:none;" width="44.8" height="15.7"/>
	<text transform="matrix(1 0 0 1 -638.9412 -101.7216)" style="font-family:'F37Ginger'; font-size:8px;">Waxing</text>
	<rect x="-580.9" y="-107.6" style="fill:none;" width="44.8" height="15.7"/>
	<text transform="matrix(1 0 0 1 -580.8719 -101.7216)" style="font-family:'F37Ginger'; font-size:8px;">Nails</text>
	<rect x="-523.9" y="-107.6" style="fill:none;" width="44.8" height="15.7"/>
	<text transform="matrix(1 0 0 1 -523.8639 -101.7216)" style="font-family:'F37Ginger'; font-size:8px;">Calendar</text>
	<rect x="-464.9" y="-107.6" style="fill:none;" width="44.8" height="15.7"/>
	<text transform="matrix(1 0 0 1 -464.9181 -101.7216)" style="font-family:'F37Ginger'; font-size:8px;">Calendar</text>
	<rect x="-407.6" y="-107.6" style="fill:none;" width="44.8" height="15.7"/>
	<text transform="matrix(1 0 0 1 -407.6072 -101.7216)" style="font-family:'F37Ginger'; font-size:8px;">Calendar</text>
	<rect x="-349.5" y="-107.6" style="fill:none;" width="57.6" height="26.9"/>
	<text transform="matrix(1 0 0 1 -349.4548 -101.7216)"><tspan x="0" y="0" style="font-family:'F37Ginger'; font-size:8px;">Don’t take </tspan><tspan x="0" y="9.6" style="font-family:'F37Ginger'; font-size:8px;">calendar </tspan><tspan x="0" y="19.2" style="font-family:'F37Ginger'; font-size:8px;">bookings</tspan></text>
	<rect x="-813.7" y="-48.6" style="fill:none;" width="41.9" height="15.7"/>
	<text transform="matrix(1 0 0 1 -813.7019 -42.7216)" style="font-family:'F37Ginger'; font-size:8px;">Print</text>
	<rect x="-755" y="-48.6" style="fill:none;" width="44.8" height="15.7"/>
	<text transform="matrix(1 0 0 1 -754.9585 -42.7216)" style="font-family:'F37Ginger'; font-size:8px;">Idea</text>
	<rect x="-695.5" y="-48.6" style="fill:none;" width="41.9" height="15.7"/>
	<text transform="matrix(1 0 0 1 -695.5001 -42.7216)" style="font-family:'F37Ginger'; font-size:8px;">Online</text>
	<rect x="-638.9" y="-48.6" style="fill:none;" width="47.4" height="15.7"/>
	<text transform="matrix(1 0 0 1 -638.9412 -42.7216)" style="font-family:'F37Ginger'; font-size:8px;">Chemicals?</text>
	<rect x="-580.9" y="-48.6" style="fill:none;" width="44.8" height="15.7"/>
	<text transform="matrix(1 0 0 1 -580.8719 -42.7216)" style="font-family:'F37Ginger'; font-size:8px;">Massage</text>
	<rect x="-523.9" y="-48.6" style="fill:none;" width="44.8" height="15.7"/>
	<text transform="matrix(1 0 0 1 -523.8639 -42.7216)" style="font-family:'F37Ginger'; font-size:8px;">Settings</text>
	<rect x="-464.9" y="-48.6" style="fill:none;" width="44.8" height="15.7"/>
	<text transform="matrix(1 0 0 1 -464.9181 -42.7216)" style="font-family:'F37Ginger'; font-size:8px;">Globe</text>
	<rect x="-407.6" y="-48.6" style="fill:none;" width="44.8" height="15.7"/>
	<text transform="matrix(1 0 0 1 -407.6072 -42.7216)" style="font-family:'F37Ginger'; font-size:8px;">Unlocked</text>
	<rect x="-348.7" y="-48.6" style="fill:none;" width="44.8" height="15.7"/>
	<text transform="matrix(1 0 0 1 -348.6614 -42.7216)" style="font-family:'F37Ginger'; font-size:8px;">Locked</text>
	<rect x="-813.7" y="9.4" style="fill:none;" width="41.9" height="15.7"/>
	<text transform="matrix(1 0 0 1 -813.7019 15.2784)"><tspan x="0" y="0" style="font-family:'F37Ginger'; font-size:8px;">Shopping </tspan><tspan x="0" y="9.6" style="font-family:'F37Ginger'; font-size:8px;">basket</tspan></text>
	<rect x="-755" y="9.4" style="fill:none;" width="44.8" height="15.7"/>
	<text transform="matrix(1 0 0 1 -754.9585 15.2784)"><tspan x="0" y="0" style="font-family:'F37Ginger'; font-size:8px;">Shopping </tspan><tspan x="0" y="9.6" style="font-family:'F37Ginger'; font-size:8px;">basket</tspan></text>
	<rect x="-695.5" y="9.4" style="fill:none;" width="46.3" height="22.2"/>
	<text transform="matrix(1 0 0 1 -695.5001 15.2784)"><tspan x="0" y="0" style="font-family:'F37Ginger'; font-size:8px;">Profile/ </tspan><tspan x="0" y="9.6" style="font-family:'F37Ginger'; font-size:8px;">people</tspan></text>
	<rect x="-638.9" y="9.4" style="fill:none;" width="44.8" height="15.7"/>
	<text transform="matrix(1 0 0 1 -638.9412 15.2784)" style="font-family:'F37Ginger'; font-size:8px;">Female</text>
	<rect x="-580.9" y="9.4" style="fill:none;" width="44.8" height="15.7"/>
	<text transform="matrix(1 0 0 1 -580.8719 15.2784)" style="font-family:'F37Ginger'; font-size:8px;">Discount</text>
	<rect x="-523.9" y="9.4" style="fill:none;" width="44.8" height="15.7"/>
	<text transform="matrix(1 0 0 1 -523.8639 15.2784)" style="font-family:'F37Ginger'; font-size:8px;">Info</text>
	<rect x="-464.9" y="9.4" style="fill:none;" width="44.8" height="15.7"/>
	<text transform="matrix(1 0 0 1 -464.9181 15.2784)" style="font-family:'F37Ginger'; font-size:8px;">People</text>
	<rect x="-407.6" y="9.4" style="fill:none;" width="44.8" height="15.7"/>
	<text transform="matrix(1 0 0 1 -407.6072 15.2784)" style="font-family:'F37Ginger'; font-size:8px;">Arrow</text>
	<rect x="-348.7" y="9.4" style="fill:none;" width="44.8" height="15.7"/>
	<text transform="matrix(1 0 0 1 -348.6614 15.2784)" style="font-family:'F37Ginger'; font-size:8px;">Back arrow</text>
	<rect x="-289.7" y="9.4" style="fill:none;" width="44.8" height="15.7"/>
	<text transform="matrix(1 0 0 1 -289.7256 15.2784)" style="font-family:'F37Ginger'; font-size:8px;">Close</text>
	<rect x="-813.7" y="69.2" style="fill:none;" width="41.9" height="15.7"/>
	<text transform="matrix(1 0 0 1 -813.7019 75.1524)" style="font-family:'F37Ginger'; font-size:8px;">Settings ?</text>
	<rect x="-755" y="69.2" style="fill:none;" width="44.8" height="15.7"/>
	<text transform="matrix(1 0 0 1 -754.9585 75.1524)" style="font-family:'F37Ginger'; font-size:8px;">Coins</text>
	<rect x="-695.5" y="69.2" style="fill:none;" width="41.9" height="15.7"/>
	<text transform="matrix(1 0 0 1 -695.5001 75.1524)" style="font-family:'F37Ginger'; font-size:8px;">Haircut</text>
	<rect x="-638.9" y="69.2" style="fill:none;" width="44.8" height="15.7"/>
	<text transform="matrix(1 0 0 1 -638.9412 75.1524)" style="font-family:'F37Ginger'; font-size:8px;">Speaker</text>
	<text transform="matrix(1 0 0 1 -580.8719 75.1524)" style="font-family:'F37Ginger'; font-size:8px;">Wallet</text>
	<rect x="-523.9" y="69.2" style="fill:none;" width="44.8" height="15.7"/>
	<text transform="matrix(1 0 0 1 -523.8639 75.1524)" style="font-family:'F37Ginger'; font-size:8px;">POS</text>
	<rect x="-464.9" y="69.2" style="fill:none;" width="44.8" height="15.7"/>
	<text transform="matrix(1 0 0 1 -464.9181 75.1524)" style="font-family:'F37Ginger'; font-size:8px;">Iphone</text>
	<rect x="-407.6" y="69.2" style="fill:none;" width="44.8" height="15.7"/>
	<text transform="matrix(1 0 0 1 -407.6072 75.1524)" style="font-family:'F37Ginger'; font-size:8px;">Price tag</text>
	<rect x="-348.7" y="69.2" style="fill:none;" width="44.8" height="15.7"/>
	<text transform="matrix(1 0 0 1 -348.6614 75.1524)" style="font-family:'F37Ginger'; font-size:8px;">Phone</text>
</g>
</svg>
