<?xml version="1.0" encoding="utf-8"?>
<!-- Generator: Adobe Illustrator 19.0.0, SVG Export Plug-In . SVG Version: 6.00 Build 0)  -->
<svg version="1.1" id="Layer_1" xmlns="http://www.w3.org/2000/svg" xmlns:xlink="http://www.w3.org/1999/xlink" x="0px" y="0px"
	 viewBox="-19 7 57 44" style="enable-background:new -19 7 57 44;" xml:space="preserve">
<style type="text/css">
	.st0{display:none;}
	.st1{display:inline;fill:#FFFFFF;}
	.st2{fill:#FFFFFF;}
	.st3{font-family:'MyriadPro-Light';}
	.st4{font-size:15.2px;}
</style>
<g id="Global_Nav_Large" class="st0">
	<path id="Support" class="st1" d="M-30.5,71.2c-0.4-0.5-1.1-0.9-2-1.3c-0.8-0.3-1.3-0.6-1.6-0.9c-0.3-0.3-0.5-0.7-0.5-1.3
		c0-0.4,0.2-0.8,0.5-1.1c0.4-0.4,0.9-0.6,1.6-0.6c0.8,0,1.4,0.2,1.9,0.5l0.4-1c-0.6-0.3-1.3-0.5-2.3-0.5s-1.8,0.3-2.4,0.8
		s-0.9,1.2-0.9,2c0,1.3,0.9,2.3,2.8,3c0.7,0.3,1.2,0.6,1.6,0.9c0.2,0.6,0.4,1,0.4,1.5c0,0.6-0.2,1-0.6,1.4c-0.4,0.3-1,0.5-1.7,0.5
		c-0.9,0-1.7-0.2-2.4-0.7l-0.3,1c0.7,0.5,1.5,0.7,2.6,0.7c1.2,0,2.1-0.3,2.7-0.9c0.6-0.6,0.9-1.3,0.9-2.1
		C-29.8,72.4-30,71.7-30.5,71.2L-30.5,71.2z M-21.7,74v-5.6h-1.2v4.8c0,0.3,0,0.5-0.1,0.7c-0.1,0.4-0.4,0.7-0.7,0.9
		c-0.4,0.3-0.8,0.4-1.2,0.4c-1.2,0-1.7-0.8-1.7-2.5v-4.3h-1.2v4.5c0,1.2,0.3,2.1,0.9,2.7c0.4,0.4,1,0.7,1.7,0.7c1.1,0,2-0.5,2.5-1.4
		l0,0l0.1,1.3h1.1C-21.7,75.3-21.7,74.6-21.7,74L-21.7,74z M-13,69.3c-0.6-0.7-1.4-1.1-2.3-1.1c-1.2,0-2.1,0.5-2.7,1.5l-0.1-1.3
		h-1.1c0,0.8,0.1,1.6,0.1,2.5v8.3h1.2V75c0.5,0.8,1.3,1.2,2.4,1.2c1,0,1.8-0.3,2.4-1c0.7-0.8,1.1-1.8,1.1-3.1l0,0l0,0
		C-12.1,70.9-12.4,70-13,69.3z M-14,74.3c-0.4,0.6-1,0.9-1.8,0.9c-0.6,0-1.2-0.2-1.6-0.7c-0.4-0.4-0.6-1-0.6-1.6v-1.4
		c0-0.1,0-0.3,0.1-0.6c0.1-0.5,0.4-1,0.8-1.3c0.4-0.3,0.9-0.5,1.3-0.5c0.7,0,1.3,0.3,1.7,0.9c0.4,0.6,0.6,1.2,0.6,2.1
		C-13.3,73-13.5,73.8-14,74.3L-14,74.3z M-4,69.3c-0.6-0.7-1.4-1.1-2.3-1.1c-1.2,0-2.1,0.5-2.7,1.5v-1.4h-1.1c0,0.8,0.1,1.6,0.1,2.5
		v8.3h1.2v-4.2c0.5,0.8,1.3,1.2,2.4,1.2c1,0,1.8-0.3,2.4-1c0.7-0.8,1.1-1.8,1.1-3.1l0,0l0,0C-3.1,70.9-3.4,70-4,69.3z M-4.9,74.3
		c-0.4,0.6-1,0.9-1.8,0.9c-0.6,0-1.2-0.2-1.6-0.7c-0.4-0.4-0.6-1-0.6-1.6v-1.4c0-0.1,0-0.3,0.1-0.6c0.1-0.5,0.4-1,0.8-1.3
		c0.4-0.3,0.9-0.5,1.3-0.5c0.7,0,1.3,0.3,1.7,0.9c0.4,0.6,0.6,1.2,0.6,2.1C-4.3,73-4.5,73.8-4.9,74.3L-4.9,74.3z M4.9,69.3
		c-0.7-0.8-1.5-1.1-2.6-1.1s-2,0.4-2.7,1.2c-0.6,0.8-1,1.7-1,2.9c0,1.1,0.3,2,0.9,2.8c0.7,0.8,1.5,1.2,2.6,1.2s2.1-0.4,2.7-1.2
		c0.6-0.8,1-1.7,1-2.9S5.5,70,4.9,69.3L4.9,69.3z M3.9,74.2c-0.5,0.7-1.1,1-1.8,1c-0.8,0-1.4-0.3-1.8-1c-0.4-0.6-0.6-1.3-0.6-2
		c0-0.8,0.2-1.5,0.6-2.1c0.4-0.7,1.1-1,1.9-1s1.4,0.3,1.8,1c0.4,0.6,0.6,1.3,0.6,2.1C4.5,72.9,4.3,73.6,3.9,74.2L3.9,74.2z
		 M11.4,68.2c-0.1,0-0.2,0-0.4,0c-0.5,0-0.9,0.2-1.3,0.5C9.3,69,9,69.4,8.9,69.9l0,0v-1.5h-1c0,0.8,0,1.6,0,2.3V76H9v-4.1
		c0-0.7,0.1-1.2,0.4-1.7c0.4-0.6,0.9-0.8,1.5-0.8c0.2,0,0.3,0,0.4,0L11.4,68.2L11.4,68.2z M17.1,68.3h-2v-1.8l-1.2,0.4v1.4h-1.2v0.9
		h1.2v4.4c0,0.9,0.2,1.5,0.5,1.9s0.8,0.6,1.4,0.6c0.5,0,0.9-0.1,1.2-0.2L16.9,75c-0.2,0.1-0.5,0.1-0.8,0.1c-0.7,0-1-0.5-1-1.5v-4.4
		h2C17.1,69.3,17.1,68.3,17.1,68.3z"/>
</g>
<g id="Layer_2">
	<text transform="matrix(1 0 0 1 -17.3508 33.4614)" class="st2 st3 st4">Function</text>
</g>
</svg>
