<?xml version="1.0" encoding="utf-8"?>
<!-- Generator: Adobe Illustrator 19.0.0, SVG Export Plug-In . SVG Version: 6.00 Build 0)  -->
<svg version="1.1" id="Layer_1" xmlns="http://www.w3.org/2000/svg" xmlns:xlink="http://www.w3.org/1999/xlink" x="0px" y="0px"
	 viewBox="-194 79 110.3 44" style="enable-background:new -194 79 110.3 44;" xml:space="preserve">
<style type="text/css">
	.st0{fill:#FFFFFF;}
	.st1{enable-background:new    ;}
</style>
<g>
	<polygon class="st0" points="-182.1,89.4 -178.3,91.6 -182.1,93.8 -185.9,91.6 	"/>
	<polygon class="st0" points="-172,95.2 -175.8,93 -179.7,95.2 -175.9,97.4 -175.9,104.6 -182.1,108.1 -188.3,104.6 -188.3,97.4 
		-192.1,95.2 -192.1,106.8 -182.1,112.6 -172,106.8 	"/>
</g>
<g class="st1">
	<path class="st0" d="M-163,95.8h10.4v1.6l-8.1,8.2h8.1v1.6H-163v-1.6h0l8.1-8.2h-8.2V95.8z"/>
	<path class="st0" d="M-149.6,94.1c-0.7,0-1.3-0.6-1.3-1.3s0.6-1.3,1.3-1.3c0.7,0,1.3,0.6,1.3,1.3S-148.9,94.1-149.6,94.1z
		 M-150.4,95.9h1.5v11.3h-1.5V95.9z"/>
	<path class="st0" d="M-144.7,105.4v7.4h-1.5v-11.3c0-3.2,2.5-5.8,5.7-5.8c3.2,0,5.7,2.6,5.7,5.7c0,3.3-2.7,5.8-5.7,5.8
		C-142.2,107.2-143.7,106.5-144.7,105.4z M-144.7,101.4c0,2.3,1.9,4.2,4.2,4.2c2.3,0,4.2-1.9,4.2-4.2c0-2.3-1.9-4.2-4.2-4.2
		C-142.8,97.2-144.7,99.1-144.7,101.4z"/>
	<path class="st0" d="M-125,98.4L-125,98.4c-1.7-1.7-4.3-1.7-5.9,0c-1.6,1.6-1.6,4.3,0,6c1.6,1.7,4.3,1.7,5.9,0l1.1,1.1v0
		c-2.2,2.3-5.8,2.3-8,0c-2.2-2.3-2.2-5.9,0-8.2c2.3-2.3,5.9-2.2,8.1,0L-125,98.4z"/>
	<path class="st0" d="M-111.2,107.2h-1.5v-1.6c-1,1.1-2.5,1.8-4.2,1.8c-3.1,0-5.7-2.5-5.7-5.8v-5.8h1.5v5.8c0,2.3,1.9,4.3,4.2,4.3
		c2.3,0,4.2-1.9,4.2-4.3v-5.8h1.5V107.2z"/>
	<path class="st0" d="M-97.7,101.5c0,3.2-2.5,5.7-5.7,5.7c-3.2,0-5.7-2.6-5.7-5.7v0V89.9h1.5v7.6c1-1.1,2.5-1.8,4.2-1.8
		C-100.3,95.7-97.7,98.3-97.7,101.5z M-99.2,101.5c0-2.3-1.9-4.2-4.2-4.2c-2.3,0-4.2,1.9-4.2,4.2c0,2.3,1.9,4.2,4.2,4.2
		C-101.1,105.7-99.2,103.8-99.2,101.5z"/>
	<path class="st0" d="M-93.2,104.9c0.7,0.5,1.5,0.7,2.4,0.7c2.3,0,4.2-1.9,4.2-4.2h1.5c0,3.2-2.5,5.7-5.7,5.7
		c-3.2,0-5.7-2.6-5.7-5.7c0-3.2,2.5-5.8,5.7-5.8c1.8,0,3.5,0.9,4.5,2.3L-93.2,104.9z M-94.2,103.8l5.8-5.9c-0.7-0.5-1.5-0.7-2.4-0.7
		c-2.3,0-4.2,1.9-4.2,4.2C-95,102.3-94.7,103.2-94.2,103.8z"/>
</g>
</svg>
