<?xml version="1.0" encoding="utf-8"?>
<!-- Generator: Adobe Illustrator 19.0.0, SVG Export Plug-In . SVG Version: 6.00 Build 0)  -->
<svg version="1.1" id="Layer_1" xmlns="http://www.w3.org/2000/svg" xmlns:xlink="http://www.w3.org/1999/xlink" x="0px" y="0px"
	 viewBox="-194 79 110.3 44" style="enable-background:new -194 79 110.3 44;" xml:space="preserve">
<style type="text/css">
	.st0{fill:#333333;}
	.st1{enable-background:new    ;}
</style>
<g>
	<polygon class="st0" points="-184,89.8 -180.3,92 -184,94.1 -187.7,92 	"/>
	<polygon class="st0" points="-174.3,95.4 -178,93.3 -181.7,95.4 -178.1,97.5 -178.1,104.4 -184,107.9 -190,104.4 -190,97.5 
		-193.7,95.4 -193.7,106.6 -184,112.2 -174.3,106.6 	"/>
</g>
<g class="st1">
	<path class="st0" d="M-165.7,96h10v1.6l-7.8,7.9h7.8v1.5h-10v-1.5h0l7.9-8h-7.9V96z"/>
	<path class="st0" d="M-152.7,94.3c-0.7,0-1.3-0.6-1.3-1.3s0.6-1.3,1.3-1.3c0.7,0,1.3,0.6,1.3,1.3S-152,94.3-152.7,94.3z M-153.5,96
		h1.5V107h-1.5V96z"/>
	<path class="st0" d="M-148,105.2v7.1h-1.5v-11c0-3.1,2.4-5.6,5.5-5.6c3.1,0,5.5,2.5,5.5,5.6c0,3.2-2.6,5.6-5.5,5.6
		C-145.6,107-147,106.3-148,105.2z M-148,101.4c0,2.3,1.8,4.1,4,4.1c2.2,0,4-1.8,4-4.1c0-2.2-1.8-4.1-4-4.1
		C-146.2,97.3-148,99.1-148,101.4z"/>
	<path class="st0" d="M-128.9,98.5L-128.9,98.5c-1.6-1.6-4.2-1.6-5.7,0c-1.6,1.6-1.6,4.2,0,5.8c1.6,1.6,4.2,1.6,5.7,0l1,1v0
		c-2.2,2.2-5.6,2.2-7.8,0c-2.2-2.2-2.2-5.7,0-7.9c2.2-2.2,5.7-2.1,7.8,0L-128.9,98.5z"/>
	<path class="st0" d="M-115.5,107h-1.5v-1.6c-1,1.1-2.4,1.7-4,1.7c-3,0-5.5-2.4-5.5-5.6v-5.6h1.5v5.6c0,2.3,1.8,4.1,4,4.1
		c2.2,0,4-1.8,4-4.1v-5.6h1.5V107z"/>
	<path class="st0" d="M-102.5,101.5c0,3.1-2.4,5.6-5.5,5.6c-3.1,0-5.5-2.5-5.5-5.6v0V90.2h1.5v7.4c1-1.1,2.4-1.7,4-1.7
		C-105.1,95.9-102.5,98.3-102.5,101.5z M-104,101.4c0-2.3-1.8-4.1-4-4.1c-2.2,0-4,1.8-4,4.1c0,2.2,1.8,4.1,4,4.1
		C-105.8,105.5-104,103.7-104,101.4z"/>
	<path class="st0" d="M-98.1,104.8c0.6,0.4,1.4,0.7,2.3,0.7c2.2,0,4.1-1.8,4.1-4.1h1.5c0,3.1-2.4,5.6-5.5,5.6
		c-3.1,0-5.5-2.5-5.5-5.6c0-3.1,2.4-5.6,5.5-5.6c1.8,0,3.4,0.9,4.4,2.2L-98.1,104.8z M-99.2,103.7l5.6-5.7c-0.6-0.4-1.4-0.7-2.3-0.7
		c-2.2,0-4,1.8-4,4.1C-99.9,102.3-99.6,103.1-99.2,103.7z"/>
</g>
</svg>
