<?xml version="1.0" encoding="utf-8"?>
<!-- Generator: Adobe Illustrator 19.0.0, SVG Export Plug-In . SVG Version: 6.00 Build 0)  -->
<svg version="1.1" id="Layer_1" xmlns="http://www.w3.org/2000/svg" xmlns:xlink="http://www.w3.org/1999/xlink" x="0px" y="0px"
	 viewBox="-19 7 90 44" style="enable-background:new -19 7 90 44;" xml:space="preserve">
<style type="text/css">
	.st0{display:none;}
	.st1{display:inline;fill:#FFFFFF;}
	.st2{fill:#FFFFFF;}
	.st3{font-family:'HelveticaNeue-Light';}
	.st4{font-size:16.72px;}
</style>
<g id="Global_Nav_Large" class="st0">
	<path id="Support" class="st1" d="M-68.5,85.2c-0.4-0.5-1.1-0.9-2-1.3c-0.8-0.3-1.3-0.6-1.6-0.9s-0.5-0.7-0.5-1.3
		c0-0.4,0.2-0.8,0.5-1.1c0.4-0.4,0.9-0.6,1.6-0.6c0.8,0,1.4,0.2,1.9,0.5l0.4-1c-0.6-0.3-1.3-0.5-2.3-0.5s-1.8,0.3-2.4,0.8
		c-0.6,0.5-0.9,1.2-0.9,2c0,1.3,0.9,2.3,2.8,3c0.7,0.3,1.2,0.6,1.6,0.9c0.2,0.6,0.4,1,0.4,1.5c0,0.6-0.2,1-0.6,1.4
		c-0.4,0.3-1,0.5-1.7,0.5c-0.9,0-1.7-0.2-2.4-0.7l-0.3,1c0.7,0.5,1.5,0.7,2.6,0.7c1.2,0,2.1-0.3,2.7-0.9c0.6-0.6,0.9-1.3,0.9-2.1
		C-67.8,86.4-68,85.7-68.5,85.2L-68.5,85.2z M-59.7,88v-5.6h-1.2v4.8c0,0.3,0,0.5-0.1,0.7c-0.1,0.4-0.4,0.7-0.7,0.9
		c-0.4,0.3-0.8,0.4-1.2,0.4c-1.2,0-1.7-0.8-1.7-2.5v-4.3h-1.2v4.5c0,1.2,0.3,2.1,0.9,2.7c0.4,0.4,1,0.7,1.7,0.7c1.1,0,2-0.5,2.5-1.4
		l0,0l0.1,1.3h1.1C-59.7,89.3-59.7,88.6-59.7,88L-59.7,88z M-51,83.3c-0.6-0.7-1.4-1.1-2.3-1.1c-1.2,0-2.1,0.5-2.7,1.5l-0.1-1.3
		h-1.1c0,0.8,0.1,1.6,0.1,2.5v8.3h1.2V89c0.5,0.8,1.3,1.2,2.4,1.2c1,0,1.8-0.3,2.4-1c0.7-0.8,1.1-1.8,1.1-3.1l0,0l0,0
		C-50.1,84.9-50.4,84-51,83.3z M-52,88.3c-0.4,0.6-1,0.9-1.8,0.9c-0.6,0-1.2-0.2-1.6-0.7c-0.4-0.4-0.6-1-0.6-1.6v-1.4
		c0-0.1,0-0.3,0.1-0.6c0.1-0.5,0.4-1,0.8-1.3c0.4-0.3,0.9-0.5,1.3-0.5c0.7,0,1.3,0.3,1.7,0.9s0.6,1.2,0.6,2.1
		C-51.3,87-51.5,87.8-52,88.3L-52,88.3z M-42,83.3c-0.6-0.7-1.4-1.1-2.3-1.1c-1.2,0-2.1,0.5-2.7,1.5v-1.4h-1.1
		c0,0.8,0.1,1.6,0.1,2.5v8.3h1.2v-4.2c0.5,0.8,1.3,1.2,2.4,1.2c1,0,1.8-0.3,2.4-1c0.7-0.8,1.1-1.8,1.1-3.1l0,0l0,0
		C-41.1,84.9-41.4,84-42,83.3z M-42.9,88.3c-0.4,0.6-1,0.9-1.8,0.9c-0.6,0-1.2-0.2-1.6-0.7c-0.4-0.4-0.6-1-0.6-1.6v-1.4
		c0-0.1,0-0.3,0.1-0.6c0.1-0.5,0.4-1,0.8-1.3s0.9-0.5,1.3-0.5c0.7,0,1.3,0.3,1.7,0.9s0.6,1.2,0.6,2.1C-42.3,87-42.5,87.8-42.9,88.3
		L-42.9,88.3z M-33.1,83.3c-0.7-0.8-1.5-1.1-2.6-1.1s-2,0.4-2.7,1.2c-0.6,0.8-1,1.7-1,2.9c0,1.1,0.3,2,0.9,2.8
		c0.7,0.8,1.5,1.2,2.6,1.2s2.1-0.4,2.7-1.2c0.6-0.8,1-1.7,1-2.9S-32.5,84-33.1,83.3L-33.1,83.3z M-34.1,88.2c-0.5,0.7-1.1,1-1.8,1
		c-0.8,0-1.4-0.3-1.8-1c-0.4-0.6-0.6-1.3-0.6-2c0-0.8,0.2-1.5,0.6-2.1c0.4-0.7,1.1-1,1.9-1s1.4,0.3,1.8,1c0.4,0.6,0.6,1.3,0.6,2.1
		C-33.5,86.9-33.7,87.6-34.1,88.2L-34.1,88.2z M-26.6,82.2c-0.1,0-0.2,0-0.4,0c-0.5,0-0.9,0.2-1.3,0.5c-0.4,0.3-0.7,0.7-0.8,1.2l0,0
		v-1.5h-1c0,0.8,0,1.6,0,2.3V90h1.1v-4.1c0-0.7,0.1-1.2,0.4-1.7c0.4-0.6,0.9-0.8,1.5-0.8c0.2,0,0.3,0,0.4,0L-26.6,82.2L-26.6,82.2z
		 M-20.9,82.3h-2v-1.8l-1.2,0.4v1.4h-1.2v0.9h1.2v4.4c0,0.9,0.2,1.5,0.5,1.9s0.8,0.6,1.4,0.6c0.5,0,0.9-0.1,1.2-0.2l-0.1-0.9
		c-0.2,0.1-0.5,0.1-0.8,0.1c-0.7,0-1-0.5-1-1.5v-4.4h2C-20.9,83.3-20.9,82.3-20.9,82.3z"/>
</g>
<g id="Layer_2">
	<text transform="matrix(1 0 0 1 -19 33.6148)" class="st2 st3 st4">Conference</text>
</g>
</svg>
