<?xml version="1.0" encoding="utf-8"?>
<!-- Generator: Adobe Illustrator 19.0.0, SVG Export Plug-In . SVG Version: 6.00 Build 0)  -->
<svg version="1.1" id="Layer_1" xmlns="http://www.w3.org/2000/svg" xmlns:xlink="http://www.w3.org/1999/xlink" x="0px" y="0px"
	 viewBox="-19 7 57 44" style="enable-background:new -19 7 57 44;" xml:space="preserve">
<style type="text/css">
	.st0{display:none;}
	.st1{display:inline;fill:#FFFFFF;}
	.st2{font-family:'MyriadPro-Light';}
	.st3{font-size:17.3828px;}
</style>
<g id="Global_Nav_Large" class="st0">
	<path id="Support" class="st1" d="M-49.5,78.2c-0.4-0.5-1.1-0.9-2-1.3c-0.8-0.3-1.3-0.6-1.6-0.9s-0.5-0.7-0.5-1.3
		c0-0.4,0.2-0.8,0.5-1.1c0.4-0.4,0.9-0.6,1.6-0.6c0.8,0,1.4,0.2,1.9,0.5l0.4-1c-0.6-0.3-1.3-0.5-2.3-0.5s-1.8,0.3-2.4,0.8
		s-0.9,1.2-0.9,2c0,1.3,0.9,2.3,2.8,3c0.7,0.3,1.2,0.6,1.6,0.9c0.2,0.6,0.4,1,0.4,1.5c0,0.6-0.2,1-0.6,1.4c-0.4,0.3-1,0.5-1.7,0.5
		c-0.9,0-1.7-0.2-2.4-0.7l-0.3,1c0.7,0.5,1.5,0.7,2.6,0.7c1.2,0,2.1-0.3,2.7-0.9s0.9-1.3,0.9-2.1C-48.8,79.4-49,78.7-49.5,78.2
		L-49.5,78.2z M-40.7,81v-5.6h-1.2v4.8c0,0.3,0,0.5-0.1,0.7c-0.1,0.4-0.4,0.7-0.7,0.9c-0.4,0.3-0.8,0.4-1.2,0.4
		c-1.2,0-1.7-0.8-1.7-2.5v-4.3h-1.2v4.5c0,1.2,0.3,2.1,0.9,2.7c0.4,0.4,1,0.7,1.7,0.7c1.1,0,2-0.5,2.5-1.4l0,0l0.1,1.3h1.1
		C-40.7,82.3-40.7,81.6-40.7,81L-40.7,81z M-32,76.3c-0.6-0.7-1.4-1.1-2.3-1.1c-1.2,0-2.1,0.5-2.7,1.5l-0.1-1.3h-1.1
		c0,0.8,0.1,1.6,0.1,2.5v8.3h1.2V82c0.5,0.8,1.3,1.2,2.4,1.2c1,0,1.8-0.3,2.4-1c0.7-0.8,1.1-1.8,1.1-3.1l0,0l0,0
		C-31.1,77.9-31.4,77-32,76.3z M-33,81.3c-0.4,0.6-1,0.9-1.8,0.9c-0.6,0-1.2-0.2-1.6-0.7c-0.4-0.4-0.6-1-0.6-1.6v-1.4
		c0-0.1,0-0.3,0.1-0.6c0.1-0.5,0.4-1,0.8-1.3c0.4-0.3,0.9-0.5,1.3-0.5c0.7,0,1.3,0.3,1.7,0.9c0.4,0.6,0.6,1.2,0.6,2.1
		C-32.3,80-32.5,80.8-33,81.3L-33,81.3z M-23,76.3c-0.6-0.7-1.4-1.1-2.3-1.1c-1.2,0-2.1,0.5-2.7,1.5v-1.4h-1.1
		c0,0.8,0.1,1.6,0.1,2.5v8.3h1.2v-4.2c0.5,0.8,1.3,1.2,2.4,1.2c1,0,1.8-0.3,2.4-1c0.7-0.8,1.1-1.8,1.1-3.1l0,0l0,0
		C-22.1,77.9-22.4,77-23,76.3z M-23.9,81.3c-0.4,0.6-1,0.9-1.8,0.9c-0.6,0-1.2-0.2-1.6-0.7c-0.4-0.4-0.6-1-0.6-1.6v-1.4
		c0-0.1,0-0.3,0.1-0.6c0.1-0.5,0.4-1,0.8-1.3c0.4-0.3,0.9-0.5,1.3-0.5c0.7,0,1.3,0.3,1.7,0.9s0.6,1.2,0.6,2.1
		C-23.3,80-23.5,80.8-23.9,81.3L-23.9,81.3z M-14.1,76.3c-0.7-0.8-1.5-1.1-2.6-1.1c-1.1,0-2,0.4-2.7,1.2c-0.6,0.8-1,1.7-1,2.9
		c0,1.1,0.3,2,0.9,2.8c0.7,0.8,1.5,1.2,2.6,1.2s2.1-0.4,2.7-1.2c0.6-0.8,1-1.7,1-2.9S-13.5,77-14.1,76.3L-14.1,76.3z M-15.1,81.2
		c-0.5,0.7-1.1,1-1.8,1c-0.8,0-1.4-0.3-1.8-1c-0.4-0.6-0.6-1.3-0.6-2c0-0.8,0.2-1.5,0.6-2.1c0.4-0.7,1.1-1,1.9-1
		c0.8,0,1.4,0.3,1.8,1c0.4,0.6,0.6,1.3,0.6,2.1C-14.5,79.9-14.7,80.6-15.1,81.2L-15.1,81.2z M-7.6,75.2c-0.1,0-0.2,0-0.4,0
		c-0.5,0-0.9,0.2-1.3,0.5c-0.4,0.3-0.7,0.7-0.8,1.2l0,0v-1.5h-1c0,0.8,0,1.6,0,2.3V83h1.1v-4.1c0-0.7,0.1-1.2,0.4-1.7
		c0.4-0.6,0.9-0.8,1.5-0.8c0.2,0,0.3,0,0.4,0L-7.6,75.2L-7.6,75.2z M-1.9,75.3h-2v-1.8l-1.2,0.4v1.4h-1.2v0.9h1.2v4.4
		c0,0.9,0.2,1.5,0.5,1.9s0.8,0.6,1.4,0.6c0.5,0,0.9-0.1,1.2-0.2L-2.1,82c-0.2,0.1-0.5,0.1-0.8,0.1c-0.7,0-1-0.5-1-1.5v-4.4h2
		C-1.9,76.3-1.9,75.3-1.9,75.3z"/>
</g>
<g id="Layer_2">
	<text transform="matrix(1 0 0 1 -18.2864 34.102)" class="st2 st3">Training</text>
</g>
</svg>
