<?xml version="1.0" encoding="utf-8"?>
<!-- Generator: Adobe Illustrator 19.0.0, SVG Export Plug-In . SVG Version: 6.00 Build 0)  -->
<svg version="1.1" id="Layer_1" xmlns="http://www.w3.org/2000/svg" xmlns:xlink="http://www.w3.org/1999/xlink" x="0px" y="0px"
	 viewBox="-13 5 68 48" style="enable-background:new -13 5 68 48;" xml:space="preserve">
<style type="text/css">
	.st0{display:none;}
	.st1{display:inline;fill:#FFFFFF;}
	.st2{fill:#FFFFFF;}
	.st3{font-family:'MyriadPro-Light';}
	.st4{font-size:20.1981px;}
</style>
<g id="Layer_1_1_" class="st0">
	<path class="st1" d="M-9.3,55.3c0.2,0.1,0.4,0.2,0.6,0.3s0.5,0.2,0.8,0.3s0.6,0.2,0.9,0.2s0.6,0.1,0.9,0.1c0.7,0,1.3-0.1,1.8-0.3
		s1-0.5,1.3-0.8c0.4-0.3,0.6-0.7,0.8-1.2c0.2-0.4,0.3-0.9,0.3-1.4s-0.1-0.9-0.2-1.3c-0.1-0.4-0.4-0.7-0.6-1c-0.3-0.3-0.6-0.6-1-0.8
		s-0.9-0.5-1.4-0.7c-0.9-0.4-1.6-0.8-2.1-1.2c-0.4-0.4-0.7-1-0.7-1.8c0-0.3,0-0.5,0.1-0.8s0.3-0.5,0.5-0.8c0.2-0.2,0.5-0.4,0.9-0.6
		c0.4-0.2,0.8-0.2,1.3-0.2c0.6,0,1,0.1,1.4,0.2c0.4,0.1,0.7,0.3,0.9,0.4l0.4-0.8c-0.2-0.1-0.6-0.3-1-0.4c-0.4-0.1-1-0.2-1.6-0.2
		s-1.1,0.1-1.5,0.2c-0.5,0.2-0.9,0.4-1.2,0.7c-0.3,0.3-0.6,0.7-0.8,1.1s-0.3,0.9-0.3,1.4c0,0.9,0.3,1.7,0.9,2.3s1.4,1.1,2.5,1.4
		c1,0.4,1.6,0.8,2.1,1.3c0.4,0.5,0.6,1.1,0.6,1.9s-0.3,1.5-0.8,2c-0.6,0.5-1.3,0.8-2.3,0.8c-0.6,0-1.1-0.1-1.6-0.2s-0.9-0.4-1.3-0.6
		C-8.9,54.5-9.3,55.3-9.3,55.3z M7.7,46.4H6.8v6c0,0.2,0,0.4,0,0.6c0,0.2-0.1,0.3-0.1,0.5c-0.1,0.2-0.2,0.5-0.4,0.7
		s-0.4,0.4-0.6,0.6c-0.2,0.2-0.5,0.3-0.8,0.5c-0.3,0.1-0.6,0.2-1,0.2c-0.5,0-0.9-0.1-1.2-0.3s-0.6-0.4-0.8-0.7s-0.3-0.7-0.4-1.1
		C1.4,53,1.4,52.5,1.4,52v-5.5H0.5V52c0,0.9,0.1,1.6,0.3,2.1s0.5,1,0.8,1.3s0.7,0.5,1,0.6c0.4,0.1,0.7,0.2,1,0.2
		c0.4,0,0.8-0.1,1.1-0.2s0.6-0.3,0.9-0.4c0.3-0.2,0.5-0.4,0.7-0.6c0.2-0.2,0.3-0.4,0.5-0.7h0.1V56h0.9c0-0.4,0-0.7-0.1-1.1
		c0-0.4,0-0.8,0-1.2L7.7,46.4L7.7,46.4z M10.9,60h0.9v-5.5l0,0c0.3,0.6,0.8,1,1.3,1.3c0.6,0.3,1.2,0.4,1.8,0.4s1.1-0.1,1.6-0.3
		s1-0.5,1.4-1c0.4-0.4,0.7-1,0.9-1.6s0.3-1.4,0.3-2.3c0-0.7-0.1-1.4-0.3-2s-0.5-1.1-0.8-1.5c-0.4-0.4-0.8-0.8-1.3-1s-1-0.4-1.6-0.4
		c-0.8,0-1.5,0.2-2,0.5c-0.6,0.3-1,0.8-1.4,1.5h-0.1v-1.8h-0.9c0,0.4,0,0.9,0.1,1.4c0,0.5,0,1,0,1.7L10.9,60L10.9,60z M11.8,50.3
		c0-0.1,0-0.3,0-0.4l0.1-0.4c0.2-0.8,0.6-1.4,1.2-1.9c0.6-0.4,1.2-0.7,1.9-0.7c0.5,0,1,0.1,1.4,0.3s0.7,0.5,1,0.9s0.5,0.8,0.6,1.3
		s0.2,1,0.2,1.5c0,0.6-0.1,1.2-0.2,1.8c-0.1,0.5-0.4,1-0.6,1.4c-0.3,0.4-0.6,0.7-1.1,0.9c-0.4,0.2-0.9,0.3-1.4,0.3
		c-0.7,0-1.4-0.2-1.9-0.6c-0.6-0.4-0.9-1-1.1-1.8c-0.1-0.2-0.1-0.5-0.1-0.8V50.3L11.8,50.3z M21.8,60h0.9v-5.5l0,0
		c0.3,0.6,0.8,1,1.3,1.3s1.2,0.4,1.8,0.4s1.1-0.1,1.6-0.3s1-0.5,1.4-1c0.4-0.4,0.7-1,0.9-1.6S30,51.9,30,51c0-0.7-0.1-1.4-0.3-2
		s-0.5-1.1-0.8-1.5c-0.4-0.4-0.8-0.8-1.3-1s-1-0.4-1.6-0.4c-0.8,0-1.5,0.2-2,0.5c-0.6,0.3-1,0.8-1.4,1.5h-0.1v-1.8h-0.9
		c0,0.4,0,0.9,0.1,1.4c0,0.5,0,1,0,1.7L21.8,60L21.8,60z M22.8,50.3c0-0.1,0-0.3,0.1-0.4l0.1-0.4c0.2-0.8,0.6-1.4,1.2-1.9
		c0.6-0.4,1.2-0.7,1.9-0.7c0.5,0,1,0.1,1.4,0.3s0.7,0.5,1,0.9s0.5,0.8,0.6,1.3s0.2,1,0.2,1.5c0,0.6-0.1,1.2-0.2,1.8
		c-0.1,0.5-0.4,1-0.6,1.4c-0.3,0.4-0.6,0.7-1.1,0.9c-0.4,0.2-0.9,0.3-1.4,0.3c-0.7,0-1.4-0.2-1.9-0.6c-0.6-0.4-0.9-1-1.1-1.8
		c-0.1-0.2-0.1-0.5-0.1-0.8L22.8,50.3L22.8,50.3z M34.9,46.5c-0.5,0.2-1,0.5-1.4,1c-0.4,0.4-0.7,1-1,1.6c-0.2,0.6-0.4,1.4-0.4,2.2
		s0.1,1.4,0.3,2s0.5,1.1,0.9,1.6s0.8,0.8,1.4,1c0.5,0.2,1.1,0.3,1.7,0.3c0.5,0,1-0.1,1.6-0.3c0.5-0.2,1-0.5,1.4-0.9s0.8-0.9,1-1.6
		c0.3-0.6,0.4-1.4,0.4-2.3c0-0.7-0.1-1.4-0.3-2S40,48,39.6,47.5c-0.4-0.4-0.8-0.8-1.4-1c-0.5-0.2-1.1-0.4-1.8-0.4
		C36,46.2,35.5,46.3,34.9,46.5z M38.2,47.4c0.4,0.3,0.8,0.6,1,1c0.3,0.4,0.5,0.9,0.6,1.4s0.2,0.9,0.2,1.4c0,0.6-0.1,1.2-0.3,1.7
		s-0.4,1-0.7,1.3s-0.7,0.7-1.1,0.9s-0.9,0.3-1.4,0.3s-1-0.1-1.4-0.3s-0.8-0.5-1.1-0.9s-0.5-0.8-0.7-1.3s-0.2-1.1-0.2-1.7
		c0-0.5,0.1-1,0.2-1.5c0.1-0.5,0.3-1,0.6-1.4s0.6-0.7,1.1-1c0.4-0.3,0.9-0.4,1.5-0.4C37.2,47,37.7,47.1,38.2,47.4z M43.3,56h0.9
		v-5.3c0-0.3,0-0.6,0.1-0.9c0.1-0.8,0.4-1.4,0.8-1.9s1-0.8,1.6-0.8H47h0.2v-0.9H47h-0.2c-0.7,0-1.2,0.2-1.7,0.6
		c-0.5,0.4-0.8,0.9-1,1.5H44v-1.9h-0.9c0,0.5,0,0.9,0.1,1.4c0,0.5,0,1,0,1.4C43.3,49.2,43.3,56,43.3,56z M50.6,44.6v1.8H49v0.7h1.6
		v6.1c0,0.4,0,0.8,0.1,1.2s0.2,0.7,0.3,0.9c0.2,0.3,0.4,0.5,0.7,0.6s0.6,0.2,1.1,0.2s1-0.1,1.3-0.2L54,55.2c-0.1,0-0.3,0.1-0.4,0.1
		c-0.2,0-0.4,0-0.6,0c-0.5,0-0.9-0.2-1.1-0.5s-0.3-0.8-0.3-1.5V47h2.7v-0.7h-2.7v-2.1C51.5,44.3,50.6,44.6,50.6,44.6z"/>
</g>
<g id="Layer_2">
	<g id="Layer_2_1_">
		<text transform="matrix(1 0 0 1 -2.3887 34.9282)" class="st2 st3 st4">Other</text>
	</g>
</g>
</svg>
