<?xml version="1.0" encoding="utf-8"?>
<!-- Generator: Adobe Illustrator 19.0.0, SVG Export Plug-In . SVG Version: 6.00 Build 0)  -->
<svg version="1.1" id="Layer_1" xmlns="http://www.w3.org/2000/svg" xmlns:xlink="http://www.w3.org/1999/xlink" x="0px" y="0px"
	 viewBox="-13 5 68 48" style="enable-background:new -13 5 68 48;" xml:space="preserve">
<style type="text/css">
	.st0{display:none;}
	.st1{display:inline;fill:#FFFFFF;}
	.st2{font-family:'MyriadPro-Light';}
	.st3{font-size:20.1981px;}
</style>
<g id="Layer_1_1_" class="st0">
	<path class="st1" d="M-22.3,60.3c0.2,0.1,0.4,0.2,0.6,0.3s0.5,0.2,0.8,0.3s0.6,0.2,0.9,0.2c0.3,0,0.6,0.1,0.9,0.1
		c0.7,0,1.3-0.1,1.8-0.3s1-0.5,1.3-0.8c0.4-0.3,0.6-0.7,0.8-1.2c0.2-0.4,0.3-0.9,0.3-1.4s-0.1-0.9-0.2-1.3c-0.1-0.4-0.4-0.7-0.6-1
		c-0.3-0.3-0.6-0.6-1-0.8s-0.9-0.5-1.4-0.7c-0.9-0.4-1.6-0.8-2.1-1.2c-0.4-0.4-0.7-1-0.7-1.8c0-0.3,0-0.5,0.1-0.8s0.3-0.5,0.5-0.8
		c0.2-0.2,0.5-0.4,0.9-0.6c0.4-0.2,0.8-0.2,1.3-0.2c0.6,0,1,0.1,1.4,0.2c0.4,0.1,0.7,0.3,0.9,0.4l0.4-0.8c-0.2-0.1-0.6-0.3-1-0.4
		c-0.4-0.1-1-0.2-1.6-0.2c-0.6,0-1.1,0.1-1.5,0.2c-0.5,0.2-0.9,0.4-1.2,0.7c-0.3,0.3-0.6,0.7-0.8,1.1c-0.2,0.4-0.3,0.9-0.3,1.4
		c0,0.9,0.3,1.7,0.9,2.3s1.4,1.1,2.5,1.4c1,0.4,1.6,0.8,2.1,1.3c0.4,0.5,0.6,1.1,0.6,1.9s-0.3,1.5-0.8,2c-0.6,0.5-1.3,0.8-2.3,0.8
		c-0.6,0-1.1-0.1-1.6-0.2s-0.9-0.4-1.3-0.6C-21.9,59.5-22.3,60.3-22.3,60.3z M-5.3,51.4h-0.9v6c0,0.2,0,0.4,0,0.6
		c0,0.2-0.1,0.3-0.1,0.5c-0.1,0.2-0.2,0.5-0.4,0.7s-0.4,0.4-0.6,0.6c-0.2,0.2-0.5,0.3-0.8,0.5c-0.3,0.1-0.6,0.2-1,0.2
		c-0.5,0-0.9-0.1-1.2-0.3s-0.6-0.4-0.8-0.7c-0.2-0.3-0.3-0.7-0.4-1.1c-0.1-0.4-0.1-0.9-0.1-1.4v-5.5h-0.9V57c0,0.9,0.1,1.6,0.3,2.1
		s0.5,1,0.8,1.3c0.3,0.3,0.7,0.5,1,0.6c0.4,0.1,0.7,0.2,1,0.2c0.4,0,0.8-0.1,1.1-0.2s0.6-0.3,0.9-0.4c0.3-0.2,0.5-0.4,0.7-0.6
		c0.2-0.2,0.3-0.4,0.5-0.7h0.1V61h0.9c0-0.4,0-0.7-0.1-1.1c0-0.4,0-0.8,0-1.2V51.4L-5.3,51.4z M-2.1,65h0.9v-5.5l0,0
		c0.3,0.6,0.8,1,1.3,1.3c0.6,0.3,1.2,0.4,1.8,0.4s1.1-0.1,1.6-0.3s1-0.5,1.4-1c0.4-0.4,0.7-1,0.9-1.6s0.3-1.4,0.3-2.3
		c0-0.7-0.1-1.4-0.3-2S5.3,52.9,5,52.5c-0.4-0.4-0.8-0.8-1.3-1s-1-0.4-1.6-0.4c-0.8,0-1.5,0.2-2,0.5c-0.6,0.3-1,0.8-1.4,1.5h-0.1
		v-1.8h-0.9c0,0.4,0,0.9,0.1,1.4c0,0.5,0,1,0,1.7L-2.1,65L-2.1,65z M-1.2,55.3c0-0.1,0-0.3,0-0.4l0.1-0.4c0.2-0.8,0.6-1.4,1.2-1.9
		c0.6-0.4,1.2-0.7,1.9-0.7c0.5,0,1,0.1,1.4,0.3s0.7,0.5,1,0.9s0.5,0.8,0.6,1.3s0.2,1,0.2,1.5c0,0.6-0.1,1.2-0.2,1.8
		c-0.1,0.5-0.4,1-0.6,1.4c-0.3,0.4-0.6,0.7-1.1,0.9c-0.4,0.2-0.9,0.3-1.4,0.3c-0.7,0-1.4-0.2-1.9-0.6c-0.6-0.4-0.9-1-1.1-1.8
		c-0.1-0.2-0.1-0.5-0.1-0.8L-1.2,55.3L-1.2,55.3z M8.8,65h0.9v-5.5l0,0c0.3,0.6,0.8,1,1.3,1.3s1.2,0.4,1.8,0.4s1.1-0.1,1.6-0.3
		s1-0.5,1.4-1c0.4-0.4,0.7-1,0.9-1.6S17,56.9,17,56c0-0.7-0.1-1.4-0.3-2s-0.5-1.1-0.8-1.5c-0.4-0.4-0.8-0.8-1.3-1s-1-0.4-1.6-0.4
		c-0.8,0-1.5,0.2-2,0.5c-0.6,0.3-1,0.8-1.4,1.5H9.5v-1.8H8.6c0,0.4,0,0.9,0.1,1.4c0,0.5,0,1,0,1.7L8.8,65L8.8,65z M9.8,55.3
		c0-0.1,0-0.3,0.1-0.4l0.1-0.4c0.2-0.8,0.6-1.4,1.2-1.9c0.6-0.4,1.2-0.7,1.9-0.7c0.5,0,1,0.1,1.4,0.3s0.7,0.5,1,0.9s0.5,0.8,0.6,1.3
		s0.2,1,0.2,1.5c0,0.6-0.1,1.2-0.2,1.8c-0.1,0.5-0.4,1-0.6,1.4c-0.3,0.4-0.6,0.7-1.1,0.9c-0.4,0.2-0.9,0.3-1.4,0.3
		c-0.7,0-1.4-0.2-1.9-0.6c-0.6-0.4-0.9-1-1.1-1.8c-0.1-0.2-0.1-0.5-0.1-0.8L9.8,55.3L9.8,55.3z M21.9,51.5c-0.5,0.2-1,0.5-1.4,1
		c-0.4,0.4-0.7,1-1,1.6c-0.2,0.6-0.4,1.4-0.4,2.2s0.1,1.4,0.3,2s0.5,1.1,0.9,1.6s0.8,0.8,1.4,1c0.5,0.2,1.1,0.3,1.7,0.3
		c0.5,0,1-0.1,1.6-0.3c0.5-0.2,1-0.5,1.4-0.9s0.8-0.9,1-1.6c0.3-0.6,0.4-1.4,0.4-2.3c0-0.7-0.1-1.4-0.3-2S27,53,26.6,52.5
		c-0.4-0.4-0.8-0.8-1.4-1c-0.5-0.2-1.1-0.4-1.8-0.4C23,51.2,22.5,51.3,21.9,51.5z M25.2,52.4c0.4,0.3,0.8,0.6,1,1
		c0.3,0.4,0.5,0.9,0.6,1.4s0.2,0.9,0.2,1.4c0,0.6-0.1,1.2-0.3,1.7s-0.4,1-0.7,1.3s-0.7,0.7-1.1,0.9s-0.9,0.3-1.4,0.3s-1-0.1-1.4-0.3
		s-0.8-0.5-1.1-0.9s-0.5-0.8-0.7-1.3s-0.2-1.1-0.2-1.7c0-0.5,0.1-1,0.2-1.5c0.1-0.5,0.3-1,0.6-1.4s0.6-0.7,1.1-1
		c0.4-0.3,0.9-0.4,1.5-0.4C24.2,52,24.7,52.1,25.2,52.4z M30.3,61h0.9v-5.3c0-0.3,0-0.6,0.1-0.9c0.1-0.8,0.4-1.4,0.8-1.9
		s1-0.8,1.6-0.8H34h0.2v-0.9H34h-0.2c-0.7,0-1.2,0.2-1.7,0.6c-0.5,0.4-0.8,0.9-1,1.5H31v-1.9h-0.9c0,0.5,0,0.9,0.1,1.4
		c0,0.5,0,1,0,1.4C30.3,54.2,30.3,61,30.3,61z M37.6,49.6v1.8H36v0.7h1.6v6.1c0,0.4,0,0.8,0.1,1.2s0.2,0.7,0.3,0.9
		c0.2,0.3,0.4,0.5,0.7,0.6s0.6,0.2,1.1,0.2s1-0.1,1.3-0.2L41,60.2c-0.1,0-0.3,0.1-0.4,0.1c-0.2,0-0.4,0-0.6,0
		c-0.5,0-0.9-0.2-1.1-0.5s-0.3-0.8-0.3-1.5V52h2.7v-0.7h-2.7v-2.1C38.5,49.3,37.6,49.6,37.6,49.6z"/>
</g>
<g id="Layer_2">
	<g id="Layer_2_1_">
		<text transform="matrix(1 0 0 1 -2.3887 34.9284)" class="st2 st3">Other</text>
	</g>
</g>
</svg>
