<?xml version="1.0" encoding="utf-8"?>
<!-- Generator: Adobe Illustrator 19.0.0, SVG Export Plug-In . SVG Version: 6.00 Build 0)  -->
<svg version="1.1" id="Layer_1" xmlns="http://www.w3.org/2000/svg" xmlns:xlink="http://www.w3.org/1999/xlink" x="0px" y="0px"
	 viewBox="0 7 57 44" style="enable-background:new 0 7 57 44;" xml:space="preserve">
<style type="text/css">
	.st0{display:none;}
	.st1{display:inline;fill:#FFFFFF;}
	.st2{fill:#FFFFFF;}
	.st3{font-family:'MyriadPro-Light';}
	.st4{font-size:16.7226px;}
</style>
<g id="Global_Nav_Large" class="st0">
	<path id="Support" class="st1" d="M7.5,57.2c-0.4-0.5-1.1-0.9-2-1.3c-0.8-0.3-1.3-0.6-1.6-0.9c-0.3-0.3-0.5-0.7-0.5-1.3
		c0-0.4,0.2-0.8,0.5-1.1C4.3,52.2,4.8,52,5.5,52c0.8,0,1.4,0.2,1.9,0.5l0.4-1C7.2,51.2,6.5,51,5.5,51s-1.8,0.3-2.4,0.8
		s-0.9,1.2-0.9,2c0,1.3,0.9,2.3,2.8,3c0.7,0.3,1.2,0.6,1.6,0.9c0.2,0.6,0.4,1,0.4,1.5c0,0.6-0.2,1-0.6,1.4c-0.4,0.3-1,0.5-1.7,0.5
		c-0.9,0-1.7-0.2-2.4-0.7l-0.3,1c0.7,0.5,1.5,0.7,2.6,0.7c1.2,0,2.1-0.3,2.7-0.9c0.6-0.6,0.9-1.3,0.9-2.1C8.2,58.4,8,57.7,7.5,57.2
		L7.5,57.2z M16.3,60v-5.6h-1.2v4.8c0,0.3,0,0.5-0.1,0.7c-0.1,0.4-0.4,0.7-0.7,0.9c-0.4,0.3-0.8,0.4-1.2,0.4c-1.2,0-1.7-0.8-1.7-2.5
		v-4.3h-1.2v4.5c0,1.2,0.3,2.1,0.9,2.7c0.4,0.4,1,0.7,1.7,0.7c1.1,0,2-0.5,2.5-1.4l0,0l0.1,1.3h1.1C16.3,61.3,16.3,60.6,16.3,60
		L16.3,60z M25,55.3c-0.6-0.7-1.4-1.1-2.3-1.1c-1.2,0-2.1,0.5-2.7,1.5l-0.1-1.3h-1.1c0,0.8,0.1,1.6,0.1,2.5v8.3h1.2V61
		c0.5,0.8,1.3,1.2,2.4,1.2c1,0,1.8-0.3,2.4-1c0.7-0.8,1.1-1.8,1.1-3.1l0,0l0,0C25.9,56.9,25.6,56,25,55.3z M24,60.3
		c-0.4,0.6-1,0.9-1.8,0.9c-0.6,0-1.2-0.2-1.6-0.7c-0.4-0.4-0.6-1-0.6-1.6v-1.4c0-0.1,0-0.3,0.1-0.6c0.1-0.5,0.4-1,0.8-1.3
		s0.9-0.5,1.3-0.5c0.7,0,1.3,0.3,1.7,0.9c0.4,0.6,0.6,1.2,0.6,2.1C24.7,59,24.5,59.8,24,60.3L24,60.3z M34,55.3
		c-0.6-0.7-1.4-1.1-2.3-1.1c-1.2,0-2.1,0.5-2.7,1.5v-1.4h-1.1c0,0.8,0.1,1.6,0.1,2.5v8.3h1.2v-4.2c0.5,0.8,1.3,1.2,2.4,1.2
		c1,0,1.8-0.3,2.4-1c0.7-0.8,1.1-1.8,1.1-3.1l0,0l0,0C34.9,56.9,34.6,56,34,55.3z M33.1,60.3c-0.4,0.6-1,0.9-1.8,0.9
		c-0.6,0-1.2-0.2-1.6-0.7c-0.4-0.4-0.6-1-0.6-1.6v-1.4c0-0.1,0-0.3,0.1-0.6c0.1-0.5,0.4-1,0.8-1.3s0.9-0.5,1.3-0.5
		c0.7,0,1.3,0.3,1.7,0.9c0.4,0.6,0.6,1.2,0.6,2.1C33.7,59,33.5,59.8,33.1,60.3L33.1,60.3z M42.9,55.3c-0.7-0.8-1.5-1.1-2.6-1.1
		s-2,0.4-2.7,1.2c-0.6,0.8-1,1.7-1,2.9c0,1.1,0.3,2,0.9,2.8c0.7,0.8,1.5,1.2,2.6,1.2s2.1-0.4,2.7-1.2c0.6-0.8,1-1.7,1-2.9
		C43.8,57,43.5,56,42.9,55.3L42.9,55.3z M41.9,60.2c-0.5,0.7-1.1,1-1.8,1c-0.8,0-1.4-0.3-1.8-1c-0.4-0.6-0.6-1.3-0.6-2
		c0-0.8,0.2-1.5,0.6-2.1c0.4-0.7,1.1-1,1.9-1c0.8,0,1.4,0.3,1.8,1c0.4,0.6,0.6,1.3,0.6,2.1C42.5,58.9,42.3,59.6,41.9,60.2L41.9,60.2
		z M49.4,54.2c-0.1,0-0.2,0-0.4,0c-0.5,0-0.9,0.2-1.3,0.5c-0.4,0.3-0.7,0.7-0.8,1.2l0,0v-1.5h-1c0,0.8,0,1.6,0,2.3V62H47v-4.1
		c0-0.7,0.1-1.2,0.4-1.7c0.4-0.6,0.9-0.8,1.5-0.8c0.2,0,0.3,0,0.4,0L49.4,54.2L49.4,54.2z M55.1,54.3h-2v-1.8l-1.2,0.4v1.4h-1.2v0.9
		h1.2v4.4c0,0.9,0.2,1.5,0.5,1.9s0.8,0.6,1.4,0.6c0.5,0,0.9-0.1,1.2-0.2L54.9,61c-0.2,0.1-0.5,0.1-0.8,0.1c-0.7,0-1-0.5-1-1.5v-4.4
		h2C55.1,55.3,55.1,54.3,55.1,54.3z"/>
</g>
<g id="Layer_2">
	<text transform="matrix(1 0 0 1 0.4566 33.9082)" class="st2 st3 st4">Meeting</text>
</g>
</svg>
