<?xml version="1.0" encoding="utf-8"?>
<!-- Generator: Adobe Illustrator 19.0.0, SVG Export Plug-In . SVG Version: 6.00 Build 0)  -->
<svg version="1.1" id="Layer_1" xmlns="http://www.w3.org/2000/svg" xmlns:xlink="http://www.w3.org/1999/xlink" x="0px" y="0px"
	 viewBox="-13 5 68 48" style="enable-background:new -13 5 68 48;" xml:space="preserve">
<style type="text/css">
	.st0{display:none;}
	.st1{display:inline;fill:#FFFFFF;}
	.st2{fill:#FFFFFF;}
	.st3{font-family:'MyriadPro-Light';}
	.st4{font-size:20.1981px;}
</style>
<g id="Layer_1_1_" class="st0">
	<path class="st1" d="M-35.3,65.3c0.2,0.1,0.4,0.2,0.6,0.3c0.2,0.1,0.5,0.2,0.8,0.3c0.3,0.1,0.6,0.2,0.9,0.2s0.6,0.1,0.9,0.1
		c0.7,0,1.3-0.1,1.8-0.3c0.5-0.2,1-0.5,1.3-0.8c0.4-0.3,0.6-0.7,0.8-1.2c0.2-0.4,0.3-0.9,0.3-1.4s-0.1-0.9-0.2-1.3
		c-0.1-0.4-0.4-0.7-0.6-1c-0.3-0.3-0.6-0.6-1-0.8s-0.9-0.5-1.4-0.7c-0.9-0.4-1.6-0.8-2.1-1.2c-0.4-0.4-0.7-1-0.7-1.8
		c0-0.3,0-0.5,0.1-0.8c0.1-0.3,0.3-0.5,0.5-0.8c0.2-0.2,0.5-0.4,0.9-0.6c0.4-0.2,0.8-0.2,1.3-0.2c0.6,0,1,0.1,1.4,0.2
		c0.4,0.1,0.7,0.3,0.9,0.4l0.4-0.8c-0.2-0.1-0.6-0.3-1-0.4c-0.4-0.1-1-0.2-1.6-0.2s-1.1,0.1-1.5,0.2c-0.5,0.2-0.9,0.4-1.2,0.7
		c-0.3,0.3-0.6,0.7-0.8,1.1c-0.2,0.4-0.3,0.9-0.3,1.4c0,0.9,0.3,1.7,0.9,2.3c0.6,0.6,1.4,1.1,2.5,1.4c1,0.4,1.6,0.8,2.1,1.3
		c0.4,0.5,0.6,1.1,0.6,1.9s-0.3,1.5-0.8,2c-0.6,0.5-1.3,0.8-2.3,0.8c-0.6,0-1.1-0.1-1.6-0.2s-0.9-0.4-1.3-0.6
		C-34.9,64.5-35.3,65.3-35.3,65.3z M-18.3,56.4h-0.9v6c0,0.2,0,0.4,0,0.6c0,0.2-0.1,0.3-0.1,0.5c-0.1,0.2-0.2,0.5-0.4,0.7
		c-0.2,0.2-0.4,0.4-0.6,0.6c-0.2,0.2-0.5,0.3-0.8,0.5c-0.3,0.1-0.6,0.2-1,0.2c-0.5,0-0.9-0.1-1.2-0.3c-0.3-0.2-0.6-0.4-0.8-0.7
		s-0.3-0.7-0.4-1.1c-0.1-0.4-0.1-0.9-0.1-1.4v-5.5h-0.9V62c0,0.9,0.1,1.6,0.3,2.1c0.2,0.5,0.5,1,0.8,1.3c0.3,0.3,0.7,0.5,1,0.6
		c0.4,0.1,0.7,0.2,1,0.2c0.4,0,0.8-0.1,1.1-0.2c0.3-0.1,0.6-0.3,0.9-0.4c0.3-0.2,0.5-0.4,0.7-0.6c0.2-0.2,0.3-0.4,0.5-0.7h0.1V66
		h0.9c0-0.4,0-0.7-0.1-1.1c0-0.4,0-0.8,0-1.2V56.4L-18.3,56.4z M-15.1,70h0.9v-5.5l0,0c0.3,0.6,0.8,1,1.3,1.3
		c0.6,0.3,1.2,0.4,1.8,0.4c0.6,0,1.1-0.1,1.6-0.3s1-0.5,1.4-1c0.4-0.4,0.7-1,0.9-1.6s0.3-1.4,0.3-2.3c0-0.7-0.1-1.4-0.3-2
		s-0.5-1.1-0.8-1.5c-0.4-0.4-0.8-0.8-1.3-1c-0.5-0.2-1-0.4-1.6-0.4c-0.8,0-1.5,0.2-2,0.5c-0.6,0.3-1,0.8-1.4,1.5h-0.1v-1.8h-0.9
		c0,0.4,0,0.9,0.1,1.4c0,0.5,0,1,0,1.7L-15.1,70L-15.1,70z M-14.2,60.3c0-0.1,0-0.3,0-0.4l0.1-0.4c0.2-0.8,0.6-1.4,1.2-1.9
		c0.6-0.4,1.2-0.7,1.9-0.7c0.5,0,1,0.1,1.4,0.3c0.4,0.2,0.7,0.5,1,0.9c0.3,0.4,0.5,0.8,0.6,1.3c0.1,0.5,0.2,1,0.2,1.5
		c0,0.6-0.1,1.2-0.2,1.8c-0.1,0.5-0.4,1-0.6,1.4c-0.3,0.4-0.6,0.7-1.1,0.9c-0.4,0.2-0.9,0.3-1.4,0.3c-0.7,0-1.4-0.2-1.9-0.6
		c-0.6-0.4-0.9-1-1.1-1.8c-0.1-0.2-0.1-0.5-0.1-0.8V60.3L-14.2,60.3z M-4.2,70h0.9v-5.5l0,0c0.3,0.6,0.8,1,1.3,1.3
		c0.5,0.3,1.2,0.4,1.8,0.4s1.1-0.1,1.6-0.3s1-0.5,1.4-1c0.4-0.4,0.7-1,0.9-1.6S4,61.9,4,61c0-0.7-0.1-1.4-0.3-2s-0.5-1.1-0.8-1.5
		c-0.4-0.4-0.8-0.8-1.3-1s-1-0.4-1.6-0.4c-0.8,0-1.5,0.2-2,0.5c-0.6,0.3-1,0.8-1.4,1.5h-0.1v-1.8h-0.9c0,0.4,0,0.9,0.1,1.4
		c0,0.5,0,1,0,1.7L-4.2,70L-4.2,70z M-3.2,60.3c0-0.1,0-0.3,0.1-0.4l0.1-0.4c0.2-0.8,0.6-1.4,1.2-1.9c0.6-0.4,1.2-0.7,1.9-0.7
		c0.5,0,1,0.1,1.4,0.3s0.7,0.5,1,0.9s0.5,0.8,0.6,1.3s0.2,1,0.2,1.5c0,0.6-0.1,1.2-0.2,1.8c-0.1,0.5-0.4,1-0.6,1.4
		c-0.3,0.4-0.6,0.7-1.1,0.9C1,65.2,0.5,65.3,0,65.3c-0.7,0-1.4-0.2-1.9-0.6c-0.6-0.4-0.9-1-1.1-1.8c-0.1-0.2-0.1-0.5-0.1-0.8
		L-3.2,60.3L-3.2,60.3z M8.9,56.5c-0.5,0.2-1,0.5-1.4,1c-0.4,0.4-0.7,1-1,1.6c-0.2,0.6-0.4,1.4-0.4,2.2s0.1,1.4,0.3,2
		s0.5,1.1,0.9,1.6s0.8,0.8,1.4,1c0.5,0.2,1.1,0.3,1.7,0.3c0.5,0,1-0.1,1.6-0.3c0.5-0.2,1-0.5,1.4-0.9c0.4-0.4,0.8-0.9,1-1.6
		c0.3-0.6,0.4-1.4,0.4-2.3c0-0.7-0.1-1.4-0.3-2S14,58,13.6,57.5c-0.4-0.4-0.8-0.8-1.4-1c-0.5-0.2-1.1-0.4-1.8-0.4
		C10,56.2,9.5,56.3,8.9,56.5z M12.2,57.4c0.4,0.3,0.8,0.6,1,1c0.3,0.4,0.5,0.9,0.6,1.4s0.2,0.9,0.2,1.4c0,0.6-0.1,1.2-0.3,1.7
		s-0.4,1-0.7,1.3c-0.3,0.3-0.7,0.7-1.1,0.9s-0.9,0.3-1.4,0.3s-1-0.1-1.4-0.3S8.3,64.6,8,64.2s-0.5-0.8-0.7-1.3s-0.2-1.1-0.2-1.7
		c0-0.5,0.1-1,0.2-1.5s0.3-1,0.6-1.4s0.6-0.7,1.1-1c0.4-0.3,0.9-0.4,1.5-0.4C11.2,57,11.7,57.1,12.2,57.4z M17.3,66h0.9v-5.3
		c0-0.3,0-0.6,0.1-0.9c0.1-0.8,0.4-1.4,0.8-1.9c0.4-0.5,1-0.8,1.6-0.8H21h0.2v-0.9H21h-0.2c-0.7,0-1.2,0.2-1.7,0.6
		c-0.5,0.4-0.8,0.9-1,1.5H18v-1.9h-0.9c0,0.5,0,0.9,0.1,1.4c0,0.5,0,1,0,1.4C17.3,59.2,17.3,66,17.3,66z M24.6,54.6v1.8H23v0.7h1.6
		v6.1c0,0.4,0,0.8,0.1,1.2c0.1,0.4,0.2,0.7,0.3,0.9c0.2,0.3,0.4,0.5,0.7,0.6c0.3,0.1,0.6,0.2,1.1,0.2s1-0.1,1.3-0.2L28,65.2
		c-0.1,0-0.3,0.1-0.4,0.1c-0.2,0-0.4,0-0.6,0c-0.5,0-0.9-0.2-1.1-0.5c-0.2-0.3-0.3-0.8-0.3-1.5V57h2.7v-0.7h-2.7v-2.1
		C25.5,54.3,24.6,54.6,24.6,54.6z"/>
</g>
<g id="Layer_2">
	<g id="Layer_2_1_">
		<text transform="matrix(1 0 0 1 -4.3379 34.9282)" class="st2 st3 st4">About</text>
	</g>
</g>
</svg>
