<?xml version="1.0" encoding="utf-8"?>
<!-- Generator: Adobe Illustrator 19.0.0, SVG Export Plug-In . SVG Version: 6.00 Build 0)  -->
<svg version="1.1" id="Layer_1" xmlns="http://www.w3.org/2000/svg" xmlns:xlink="http://www.w3.org/1999/xlink" x="0px" y="0px"
	 viewBox="-19 7 57 44" style="enable-background:new -19 7 57 44;" xml:space="preserve">
<style type="text/css">
	.st0{display:none;}
	.st1{display:inline;fill:#FFFFFF;}
	.st2{font-family:'HelveticaNeue-Light';}
	.st3{font-size:16.7226px;}
</style>
<g id="Global_Nav_Large" class="st0">
	<path id="Support" class="st1" d="M-125.5,106.2c-0.4-0.5-1.1-0.9-2-1.3c-0.8-0.3-1.3-0.6-1.6-0.9c-0.3-0.3-0.5-0.7-0.5-1.3
		c0-0.4,0.2-0.8,0.5-1.1c0.4-0.4,0.9-0.6,1.6-0.6c0.8,0,1.4,0.2,1.9,0.5l0.4-1c-0.6-0.3-1.3-0.5-2.3-0.5s-1.8,0.3-2.4,0.8
		c-0.6,0.5-0.9,1.2-0.9,2c0,1.3,0.9,2.3,2.8,3c0.7,0.3,1.2,0.6,1.6,0.9c0.2,0.6,0.4,1,0.4,1.5c0,0.6-0.2,1-0.6,1.4
		c-0.4,0.3-1,0.5-1.7,0.5c-0.9,0-1.7-0.2-2.4-0.7l-0.3,1c0.7,0.5,1.5,0.7,2.6,0.7c1.2,0,2.1-0.3,2.7-0.9s0.9-1.3,0.9-2.1
		C-124.8,107.4-125,106.7-125.5,106.2L-125.5,106.2z M-116.7,109v-5.6h-1.2v4.8c0,0.3,0,0.5-0.1,0.7c-0.1,0.4-0.4,0.7-0.7,0.9
		c-0.4,0.3-0.8,0.4-1.2,0.4c-1.2,0-1.7-0.8-1.7-2.5v-4.3h-1.2v4.5c0,1.2,0.3,2.1,0.9,2.7c0.4,0.4,1,0.7,1.7,0.7c1.1,0,2-0.5,2.5-1.4
		l0,0l0.1,1.3h1.1C-116.7,110.3-116.7,109.6-116.7,109L-116.7,109z M-108,104.3c-0.6-0.7-1.4-1.1-2.3-1.1c-1.2,0-2.1,0.5-2.7,1.5
		l-0.1-1.3h-1.1c0,0.8,0.1,1.6,0.1,2.5v8.3h1.2V110c0.5,0.8,1.3,1.2,2.4,1.2c1,0,1.8-0.3,2.4-1c0.7-0.8,1.1-1.8,1.1-3.1l0,0l0,0
		C-107.1,105.9-107.4,105-108,104.3z M-109,109.3c-0.4,0.6-1,0.9-1.8,0.9c-0.6,0-1.2-0.2-1.6-0.7c-0.4-0.4-0.6-1-0.6-1.6v-1.4
		c0-0.1,0-0.3,0.1-0.6c0.1-0.5,0.4-1,0.8-1.3s0.9-0.5,1.3-0.5c0.7,0,1.3,0.3,1.7,0.9s0.6,1.2,0.6,2.1
		C-108.3,108-108.5,108.8-109,109.3L-109,109.3z M-99,104.3c-0.6-0.7-1.4-1.1-2.3-1.1c-1.2,0-2.1,0.5-2.7,1.5v-1.4h-1.1
		c0,0.8,0.1,1.6,0.1,2.5v8.3h1.2v-4.2c0.5,0.8,1.3,1.2,2.4,1.2c1,0,1.8-0.3,2.4-1c0.7-0.8,1.1-1.8,1.1-3.1l0,0l0,0
		C-98.1,105.9-98.4,105-99,104.3z M-99.9,109.3c-0.4,0.6-1,0.9-1.8,0.9c-0.6,0-1.2-0.2-1.6-0.7c-0.4-0.4-0.6-1-0.6-1.6v-1.4
		c0-0.1,0-0.3,0.1-0.6c0.1-0.5,0.4-1,0.8-1.3s0.9-0.5,1.3-0.5c0.7,0,1.3,0.3,1.7,0.9s0.6,1.2,0.6,2.1
		C-99.3,108-99.5,108.8-99.9,109.3L-99.9,109.3z M-90.1,104.3c-0.7-0.8-1.5-1.1-2.6-1.1s-2,0.4-2.7,1.2c-0.6,0.8-1,1.7-1,2.9
		c0,1.1,0.3,2,0.9,2.8c0.7,0.8,1.5,1.2,2.6,1.2s2.1-0.4,2.7-1.2c0.6-0.8,1-1.7,1-2.9S-89.5,105-90.1,104.3L-90.1,104.3z
		 M-91.1,109.2c-0.5,0.7-1.1,1-1.8,1c-0.8,0-1.4-0.3-1.8-1c-0.4-0.6-0.6-1.3-0.6-2c0-0.8,0.2-1.5,0.6-2.1c0.4-0.7,1.1-1,1.9-1
		s1.4,0.3,1.8,1c0.4,0.6,0.6,1.3,0.6,2.1C-90.5,107.9-90.7,108.6-91.1,109.2L-91.1,109.2z M-83.6,103.2c-0.1,0-0.2,0-0.4,0
		c-0.5,0-0.9,0.2-1.3,0.5s-0.7,0.7-0.8,1.2l0,0v-1.5h-1c0,0.8,0,1.6,0,2.3v5.3h1.1v-4.1c0-0.7,0.1-1.2,0.4-1.7
		c0.4-0.6,0.9-0.8,1.5-0.8c0.2,0,0.3,0,0.4,0L-83.6,103.2L-83.6,103.2z M-77.9,103.3h-2v-1.8l-1.2,0.4v1.4h-1.2v0.9h1.2v4.4
		c0,0.9,0.2,1.5,0.5,1.9c0.3,0.4,0.8,0.6,1.4,0.6c0.5,0,0.9-0.1,1.2-0.2l-0.1-0.9c-0.2,0.1-0.5,0.1-0.8,0.1c-0.7,0-1-0.5-1-1.5v-4.4
		h2C-77.9,104.3-77.9,103.3-77.9,103.3z"/>
</g>
<g id="Layer_2">
	<text transform="matrix(1 0 0 1 -19.0002 33.9082)" class="st2 st3">About</text>
</g>
</svg>
