<?xml version="1.0" encoding="utf-8"?>
<!-- Generator: Adobe Illustrator 19.0.0, SVG Export Plug-In . SVG Version: 6.00 Build 0)  -->
<svg version="1.1" id="Layer_1" xmlns="http://www.w3.org/2000/svg" xmlns:xlink="http://www.w3.org/1999/xlink" x="0px" y="0px"
	 viewBox="-13 5 68 48" style="enable-background:new -13 5 68 48;" xml:space="preserve">
<style type="text/css">
	.st0{display:none;}
	.st1{display:inline;fill:#FFFFFF;}
	.st2{font-family:'HelveticaNeue-Light';}
	.st3{font-size:20.1981px;}
</style>
<g id="Layer_1_1_" class="st0">
	<path class="st1" d="M-61.3,75.3c0.2,0.1,0.4,0.2,0.6,0.3c0.2,0.1,0.5,0.2,0.8,0.3c0.3,0.1,0.6,0.2,0.9,0.2s0.6,0.1,0.9,0.1
		c0.7,0,1.3-0.1,1.8-0.3c0.5-0.2,1-0.5,1.3-0.8c0.4-0.3,0.6-0.7,0.8-1.2c0.2-0.4,0.3-0.9,0.3-1.4s-0.1-0.9-0.2-1.3
		c-0.1-0.4-0.4-0.7-0.6-1c-0.3-0.3-0.6-0.6-1-0.8c-0.4-0.2-0.9-0.5-1.4-0.7c-0.9-0.4-1.6-0.8-2.1-1.2c-0.4-0.4-0.7-1-0.7-1.8
		c0-0.3,0-0.5,0.1-0.8s0.3-0.5,0.5-0.8c0.2-0.2,0.5-0.4,0.9-0.6c0.4-0.2,0.8-0.2,1.3-0.2c0.6,0,1,0.1,1.4,0.2
		c0.4,0.1,0.7,0.3,0.9,0.4l0.4-0.8c-0.2-0.1-0.6-0.3-1-0.4c-0.4-0.1-1-0.2-1.6-0.2s-1.1,0.1-1.5,0.2c-0.5,0.2-0.9,0.4-1.2,0.7
		s-0.6,0.7-0.8,1.1c-0.2,0.4-0.3,0.9-0.3,1.4c0,0.9,0.3,1.7,0.9,2.3c0.6,0.6,1.4,1.1,2.5,1.4c1,0.4,1.6,0.8,2.1,1.3
		c0.4,0.5,0.6,1.1,0.6,1.9s-0.3,1.5-0.8,2c-0.6,0.5-1.3,0.8-2.3,0.8c-0.6,0-1.1-0.1-1.6-0.2s-0.9-0.4-1.3-0.6
		C-60.9,74.5-61.3,75.3-61.3,75.3z M-44.3,66.4h-0.9v6c0,0.2,0,0.4,0,0.6s-0.1,0.3-0.1,0.5c-0.1,0.2-0.2,0.5-0.4,0.7
		s-0.4,0.4-0.6,0.6s-0.5,0.3-0.8,0.5c-0.3,0.1-0.6,0.2-1,0.2c-0.5,0-0.9-0.1-1.2-0.3c-0.3-0.2-0.6-0.4-0.8-0.7s-0.3-0.7-0.4-1.1
		c-0.1-0.4-0.1-0.9-0.1-1.4v-5.5h-0.9V72c0,0.9,0.1,1.6,0.3,2.1s0.5,1,0.8,1.3s0.7,0.5,1,0.6c0.4,0.1,0.7,0.2,1,0.2
		c0.4,0,0.8-0.1,1.1-0.2s0.6-0.3,0.9-0.4c0.3-0.2,0.5-0.4,0.7-0.6s0.3-0.4,0.5-0.7h0.1V76h0.9c0-0.4,0-0.7-0.1-1.1
		c0-0.4,0-0.8,0-1.2L-44.3,66.4L-44.3,66.4z M-41.1,80h0.9v-5.5l0,0c0.3,0.6,0.8,1,1.3,1.3c0.6,0.3,1.2,0.4,1.8,0.4s1.1-0.1,1.6-0.3
		s1-0.5,1.4-1c0.4-0.4,0.7-1,0.9-1.6c0.2-0.6,0.3-1.4,0.3-2.3c0-0.7-0.1-1.4-0.3-2c-0.2-0.6-0.5-1.1-0.8-1.5c-0.4-0.4-0.8-0.8-1.3-1
		s-1-0.4-1.6-0.4c-0.8,0-1.5,0.2-2,0.5c-0.6,0.3-1,0.8-1.4,1.5h-0.1v-1.8h-0.9c0,0.4,0,0.9,0.1,1.4c0,0.5,0,1,0,1.7L-41.1,80
		L-41.1,80z M-40.2,70.3c0-0.1,0-0.3,0-0.4l0.1-0.4c0.2-0.8,0.6-1.4,1.2-1.9c0.6-0.4,1.2-0.7,1.9-0.7c0.5,0,1,0.1,1.4,0.3
		c0.4,0.2,0.7,0.5,1,0.9c0.3,0.4,0.5,0.8,0.6,1.3s0.2,1,0.2,1.5c0,0.6-0.1,1.2-0.2,1.8c-0.1,0.5-0.4,1-0.6,1.4
		c-0.3,0.4-0.6,0.7-1.1,0.9c-0.4,0.2-0.9,0.3-1.4,0.3c-0.7,0-1.4-0.2-1.9-0.6c-0.6-0.4-0.9-1-1.1-1.8c-0.1-0.2-0.1-0.5-0.1-0.8V70.3
		L-40.2,70.3z M-30.2,80h0.9v-5.5l0,0c0.3,0.6,0.8,1,1.3,1.3s1.2,0.4,1.8,0.4s1.1-0.1,1.6-0.3s1-0.5,1.4-1c0.4-0.4,0.7-1,0.9-1.6
		c0.2-0.6,0.3-1.4,0.3-2.3c0-0.7-0.1-1.4-0.3-2c-0.2-0.6-0.5-1.1-0.8-1.5c-0.4-0.4-0.8-0.8-1.3-1s-1-0.4-1.6-0.4
		c-0.8,0-1.5,0.2-2,0.5c-0.6,0.3-1,0.8-1.4,1.5h-0.1v-1.8h-0.9c0,0.4,0,0.9,0.1,1.4c0,0.5,0,1,0,1.7L-30.2,80L-30.2,80z M-29.2,70.3
		c0-0.1,0-0.3,0.1-0.4l0.1-0.4c0.2-0.8,0.6-1.4,1.2-1.9c0.6-0.4,1.2-0.7,1.9-0.7c0.5,0,1,0.1,1.4,0.3c0.4,0.2,0.7,0.5,1,0.9
		c0.3,0.4,0.5,0.8,0.6,1.3c0.1,0.5,0.2,1,0.2,1.5c0,0.6-0.1,1.2-0.2,1.8c-0.1,0.5-0.4,1-0.6,1.4c-0.3,0.4-0.6,0.7-1.1,0.9
		c-0.4,0.2-0.9,0.3-1.4,0.3c-0.7,0-1.4-0.2-1.9-0.6c-0.6-0.4-0.9-1-1.1-1.8c-0.1-0.2-0.1-0.5-0.1-0.8L-29.2,70.3L-29.2,70.3z
		 M-17.1,66.5c-0.5,0.2-1,0.5-1.4,1c-0.4,0.4-0.7,1-1,1.6c-0.2,0.6-0.4,1.4-0.4,2.2c0,0.8,0.1,1.4,0.3,2c0.2,0.6,0.5,1.1,0.9,1.6
		c0.4,0.5,0.8,0.8,1.4,1c0.5,0.2,1.1,0.3,1.7,0.3c0.5,0,1-0.1,1.6-0.3c0.5-0.2,1-0.5,1.4-0.9c0.4-0.4,0.8-0.9,1-1.6
		c0.3-0.6,0.4-1.4,0.4-2.3c0-0.7-0.1-1.4-0.3-2c-0.2-0.6-0.5-1.1-0.9-1.6c-0.4-0.4-0.8-0.8-1.4-1c-0.5-0.2-1.1-0.4-1.8-0.4
		C-16,66.2-16.5,66.3-17.1,66.5z M-13.8,67.4c0.4,0.3,0.8,0.6,1,1c0.3,0.4,0.5,0.9,0.6,1.4c0.1,0.5,0.2,0.9,0.2,1.4
		c0,0.6-0.1,1.2-0.3,1.7s-0.4,1-0.7,1.3s-0.7,0.7-1.1,0.9c-0.4,0.2-0.9,0.3-1.4,0.3s-1-0.1-1.4-0.3s-0.8-0.5-1.1-0.9
		s-0.5-0.8-0.7-1.3c-0.2-0.5-0.2-1.1-0.2-1.7c0-0.5,0.1-1,0.2-1.5c0.1-0.5,0.3-1,0.6-1.4c0.3-0.4,0.6-0.7,1.1-1
		c0.4-0.3,0.9-0.4,1.5-0.4C-14.8,67-14.3,67.1-13.8,67.4z M-8.7,76h0.9v-5.3c0-0.3,0-0.6,0.1-0.9c0.1-0.8,0.4-1.4,0.8-1.9
		s1-0.8,1.6-0.8H-5h0.2v-0.9H-5h-0.2c-0.7,0-1.2,0.2-1.7,0.6c-0.5,0.4-0.8,0.9-1,1.5H-8v-1.9h-0.9c0,0.5,0,0.9,0.1,1.4
		c0,0.5,0,1,0,1.4C-8.7,69.2-8.7,76-8.7,76z M-1.4,64.6v1.8H-3v0.7h1.6v6.1c0,0.4,0,0.8,0.1,1.2c0.1,0.4,0.2,0.7,0.3,0.9
		c0.2,0.3,0.4,0.5,0.7,0.6s0.6,0.2,1.1,0.2s1-0.1,1.3-0.2L2,75.2c-0.1,0-0.3,0.1-0.4,0.1c-0.2,0-0.4,0-0.6,0c-0.5,0-0.9-0.2-1.1-0.5
		s-0.3-0.8-0.3-1.5V67h2.7v-0.7h-2.7v-2.1C-0.5,64.3-1.4,64.6-1.4,64.6z"/>
</g>
<g id="Layer_2">
	<g id="Layer_2_1_">
		<text transform="matrix(1 0 0 1 -12.8789 34.5749)" class="st2 st3">About</text>
	</g>
</g>
</svg>
