<?xml version="1.0" encoding="UTF-8" standalone="no"?>
<!-- Created with Inkscape (http://www.inkscape.org/) -->

<svg
   xmlns:svg="http://www.w3.org/2000/svg"
   xmlns="http://www.w3.org/2000/svg"
   version="1.1"
   width="200"
   height="236.44894"
   id="svg12158">
  <defs
     id="defs12160">
    <clipPath
       id="clipPath2872">
      <path
         d="m 57.753,622.623 0,-79.943 67.135,0 0,79.943"
         id="path2874" />
    </clipPath>
    <clipPath
       id="clipPath2880">
      <path
         d="m 57.743,622.496 67.318,0 0,-79.37 -67.318,0 0,79.37 z"
         id="path2882" />
    </clipPath>
    <clipPath
       id="clipPath2888">
      <path
         d="m 32.232,639.504 436.536,0 0,-612.284 -436.536,0 0,612.284 z"
         id="path2890" />
    </clipPath>
    <clipPath
       id="clipPath2896">
      <path
         d="m 0,667.275 501.72,0 0,-667.26 -501.72,0 0,667.26 z"
         id="path2898" />
    </clipPath>
  </defs>
  <g
     transform="matrix(0.4,0,0,0.4,-49.786037,29.494924)"
     id="layer1">
    <g
       transform="matrix(7.44768,0,0,-7.44768,-305.66077,4562.4137)"
       id="g2868">
      <g
         clip-path="url(#clipPath2872)"
         id="g2870">
        <g
           id="g2876">
          <g
             clip-path="url(#clipPath2880)"
             id="g2878">
            <g
               id="g2884">
              <g
                 clip-path="url(#clipPath2888)"
                 id="g2886">
                <g
                   id="g2892">
                  <g
                     clip-path="url(#clipPath2896)"
                     id="g2894">
                    <path
                       d="m 57.753,543.105 67.135,0 0,79.41 -67.135,0 0,-79.41 z"
                       id="path2900"
                       style="fill:#fff200;fill-opacity:1;fill-rule:nonzero;stroke:none" />
                    <g
                       transform="translate(91.278,564.08501)"
                       id="g2902">
                      <path
                         d="m 0,0 c 13.833,0 25.048,11.216 25.048,25.049 0,13.834 -11.215,25.05 -25.048,25.05 -13.836,0 -25.053,-11.216 -25.053,-25.05 C -25.053,11.216 -13.836,0 0,0"
                         id="path2904"
                         style="fill:#bdbcbc;fill-opacity:1;fill-rule:evenodd;stroke:none" />
                    </g>
                    <g
                       transform="translate(94.891998,575.63901)"
                       id="g2906">
                      <path
                         d="m 0,0 3.134,8.797 3.612,-8.918 9.398,0 -9.877,28.318 -6.267,0 -3.614,-8.917 -3.616,8.917 -6.267,0 -9.88,-28.318 9.399,0 3.616,8.918 L -7.23,0 0,0"
                         id="path2908"
                         style="fill:#fff200;fill-opacity:1;fill-rule:evenodd;stroke:none" />
                    </g>
                    <g
                       transform="translate(72.559998,556.181)"
                       id="g2910">
                      <path
                         d="m 0,0 c -0.136,-0.972 -0.204,-2.03 -0.204,-3.175 l 0,-0.566 c 0,-0.397 -0.028,-0.66 -0.084,-0.79 C -0.369,-4.71 -0.539,-4.8 -0.8,-4.8 c -0.292,0 -0.478,0.151 -0.559,0.455 -0.037,0.142 -0.055,0.415 -0.055,0.817 0,1.288 0.105,2.569 0.315,3.844 0.075,0.464 0.167,0.783 0.279,0.956 0.13,0.199 0.331,0.298 0.604,0.298 0.34,0 0.597,-0.182 0.77,-0.549 0.13,-0.302 0.257,-0.602 0.381,-0.9 0.168,-0.384 0.344,-0.703 0.529,-0.956 0.168,0.288 0.329,0.62 0.484,0.995 C 2.065,0.429 2.179,0.7 2.291,0.971 2.477,1.37 2.746,1.57 3.099,1.57 3.322,1.57 3.492,1.516 3.61,1.408 3.728,1.3 3.817,1.116 3.879,0.856 4.17,-0.304 4.316,-1.865 4.316,-3.828 4.316,-4.143 4.291,-4.362 4.241,-4.485 4.155,-4.695 3.979,-4.8 3.713,-4.8 3.348,-4.8 3.166,-4.559 3.166,-4.076 3.166,-2.646 3.082,-1.288 2.915,0 2.698,-0.681 2.462,-1.202 2.205,-1.564 1.948,-1.926 1.699,-2.106 1.458,-2.106 1.185,-2.106 0.925,-1.93 0.678,-1.578 0.411,-1.206 0.186,-0.681 0,0"
                         id="path2912"
                         style="fill:#231f20;fill-opacity:1;fill-rule:nonzero;stroke:none" />
                    </g>
                    <g
                       transform="translate(78.882004,554.371)"
                       id="g2914">
                      <path
                         d="M 0,0 2.07,0 C 2.032,0.257 1.921,0.461 1.735,0.617 1.55,0.772 1.324,0.851 1.058,0.851 0.439,0.851 0.087,0.566 0,0 z m -0.009,-0.84 c 0.006,-0.727 0.481,-1.09 1.426,-1.09 l 0.962,0 c 0.309,0 0.531,-0.034 0.667,-0.102 C 3.182,-2.1 3.249,-2.227 3.249,-2.412 3.249,-2.653 3.12,-2.808 2.86,-2.876 2.669,-2.932 2.264,-2.96 1.647,-2.96 c -0.76,0 -1.279,0.059 -1.557,0.177 -0.913,0.383 -1.371,1.073 -1.371,2.068 0,0.742 0.217,1.343 0.65,1.804 0.433,0.46 0.996,0.692 1.689,0.692 0.65,0 1.178,-0.192 1.583,-0.575 0.406,-0.382 0.608,-0.882 0.608,-1.5 0,-0.246 -0.083,-0.407 -0.25,-0.48 C 2.9,-0.819 2.708,-0.84 2.423,-0.84 l -2.432,0"
                         id="path2916"
                         style="fill:#231f20;fill-opacity:1;fill-rule:nonzero;stroke:none" />
                    </g>
                    <g
                       transform="translate(84.050003,552.045)"
                       id="g2918">
                      <path
                         d="m 0,0 c 0,-0.449 -0.188,-0.674 -0.565,-0.674 -0.37,0 -0.555,0.225 -0.555,0.678 l 0,3.423 c 0,0.433 0.186,0.649 0.557,0.649 0.315,0 0.476,-0.2 0.482,-0.599 0.173,0.399 0.523,0.599 1.049,0.599 0.464,0 0.696,-0.177 0.696,-0.53 C 1.664,3.366 1.587,3.24 1.432,3.165 1.302,3.098 1.078,3.051 0.762,3.026 0.471,3.001 0.271,2.918 0.163,2.777 0.054,2.635 0,2.389 0,2.038 L 0,0"
                         id="path2920"
                         style="fill:#231f20;fill-opacity:1;fill-rule:nonzero;stroke:none" />
                    </g>
                    <g
                       transform="translate(86.554993,551.411)"
                       id="g2922">
                      <path
                         d="m 0,0 c -0.508,0 -0.762,0.174 -0.762,0.522 0,0.365 0.216,0.548 0.649,0.548 l 1.373,0 c 0.618,0 0.928,0.164 0.928,0.492 0,0.272 -0.223,0.448 -0.667,0.529 C 1.237,2.134 0.948,2.179 0.654,2.225 0.361,2.271 0.14,2.329 -0.008,2.397 c -0.463,0.211 -0.694,0.566 -0.694,1.067 0,0.359 0.125,0.649 0.375,0.873 0.25,0.222 0.591,0.333 1.024,0.333 l 1.372,0 C 2.681,4.67 2.987,4.503 2.987,4.167 2.987,3.993 2.934,3.873 2.829,3.808 2.724,3.743 2.551,3.71 2.31,3.71 l -1.316,0 C 0.63,3.71 0.447,3.626 0.447,3.46 0.447,3.336 0.562,3.252 0.792,3.21 1.101,3.16 1.411,3.11 1.721,3.061 2.285,2.937 2.699,2.764 2.963,2.541 3.226,2.319 3.358,2.006 3.358,1.604 3.358,1.117 3.192,0.726 2.86,0.436 2.528,0.145 2.071,0 1.488,0 L 0,0"
                         id="path2924"
                         style="fill:#231f20;fill-opacity:1;fill-rule:nonzero;stroke:none" />
                    </g>
                    <g
                       transform="translate(91.688003,554.371)"
                       id="g2926">
                      <path
                         d="M 0,0 2.069,0 C 2.033,0.257 1.921,0.461 1.736,0.617 1.55,0.772 1.324,0.851 1.058,0.851 0.439,0.851 0.087,0.566 0,0 z m -0.009,-0.84 c 0.006,-0.727 0.481,-1.09 1.425,-1.09 l 0.963,0 c 0.309,0 0.531,-0.034 0.667,-0.102 0.135,-0.068 0.203,-0.195 0.203,-0.38 0,-0.241 -0.13,-0.396 -0.388,-0.464 C 2.669,-2.932 2.264,-2.96 1.647,-2.96 c -0.76,0 -1.279,0.059 -1.556,0.177 -0.915,0.383 -1.372,1.073 -1.372,2.068 0,0.742 0.217,1.343 0.65,1.804 0.433,0.46 0.997,0.692 1.69,0.692 0.649,0 1.177,-0.192 1.582,-0.575 0.406,-0.382 0.608,-0.882 0.608,-1.5 0,-0.246 -0.083,-0.407 -0.25,-0.48 C 2.899,-0.819 2.708,-0.84 2.423,-0.84 l -2.432,0"
                         id="path2928"
                         style="fill:#231f20;fill-opacity:1;fill-rule:nonzero;stroke:none" />
                    </g>
                    <g
                       transform="translate(97.158005,551.577)"
                       id="g2930">
                      <path
                         d="m 0,0 c -0.471,0.403 -0.866,1.003 -1.188,1.802 -0.303,0.755 -0.454,1.437 -0.454,2.044 0,0.452 0.191,0.678 0.575,0.678 0.205,0 0.35,-0.121 0.437,-0.363 0.037,-0.098 0.103,-0.427 0.196,-0.984 0.154,-0.917 0.479,-1.665 0.975,-2.248 0.365,0.663 0.625,1.411 0.78,2.248 0.099,0.539 0.177,0.87 0.232,0.994 0.099,0.235 0.264,0.353 0.493,0.353 0.334,0 0.502,-0.22 0.502,-0.66 0,-0.991 -0.416,-2.24 -1.245,-3.748 -0.831,-1.509 -1.441,-2.262 -1.831,-2.262 -0.136,0 -0.254,0.048 -0.353,0.143 -0.1,0.097 -0.149,0.21 -0.149,0.34 0,0.149 0.105,0.366 0.316,0.65 C -0.313,-0.461 -0.074,-0.124 0,0"
                         id="path2932"
                         style="fill:#231f20;fill-opacity:1;fill-rule:nonzero;stroke:none" />
                    </g>
                    <g
                       transform="translate(101.65401,552.045)"
                       id="g2934">
                      <path
                         d="m 0,0 c 0,-0.449 -0.188,-0.674 -0.565,-0.674 -0.37,0 -0.555,0.225 -0.555,0.678 l 0,3.423 c 0,0.433 0.186,0.649 0.557,0.649 0.316,0 0.476,-0.2 0.482,-0.599 0.174,0.399 0.523,0.599 1.049,0.599 0.464,0 0.696,-0.177 0.696,-0.53 C 1.664,3.366 1.586,3.24 1.432,3.165 1.301,3.098 1.078,3.051 0.762,3.026 0.471,3.001 0.271,2.918 0.162,2.777 0.054,2.635 0,2.389 0,2.038 L 0,0"
                         id="path2936"
                         style="fill:#231f20;fill-opacity:1;fill-rule:nonzero;stroke:none" />
                    </g>
                    <g
                       transform="translate(106.306,553.71201)"
                       id="g2938">
                      <path
                         d="m 0,0 c -1.18,-0.018 -1.77,-0.307 -1.77,-0.867 0,-0.363 0.25,-0.544 0.751,-0.544 0.679,0 1.019,0.282 1.019,0.848 L 0,0 z M 0,0.826 0,1.03 c 0,0.259 -0.173,0.389 -0.519,0.389 l -1.436,0 c -0.414,0 -0.621,0.152 -0.621,0.456 0,0.329 0.216,0.494 0.648,0.494 l 1.584,0 C 0.162,2.369 0.531,2.257 0.762,2.035 0.994,1.813 1.11,1.451 1.11,0.95 l 0,-2.689 c 0,-0.402 -0.17,-0.602 -0.509,-0.602 -0.328,0 -0.491,0.18 -0.491,0.541 -0.309,-0.361 -0.766,-0.541 -1.371,-0.541 -0.5,0 -0.9,0.129 -1.2,0.388 -0.299,0.26 -0.449,0.597 -0.449,1.01 0,1.173 0.97,1.763 2.91,1.769"
                         id="path2940"
                         style="fill:#231f20;fill-opacity:1;fill-rule:nonzero;stroke:none" />
                    </g>
                    <g
                       transform="translate(108.515,555.433)"
                       id="g2942">
                      <path
                         d="M 0,0 C 0,0.453 0.185,0.678 0.555,0.678 0.925,0.678 1.11,0.453 1.11,0 l 0,-3.383 C 1.11,-3.836 0.925,-4.061 0.555,-4.061 0.185,-4.061 0,-3.836 0,-3.383 L 0,0 z M 1.11,1.953 C 1.11,1.497 0.925,1.268 0.555,1.268 0.185,1.268 0,1.497 0,1.953 0,2.404 0.185,2.628 0.555,2.628 0.925,2.628 1.11,2.404 1.11,1.953"
                         id="path2944"
                         style="fill:#231f20;fill-opacity:1;fill-rule:nonzero;stroke:none" />
                    </g>
                    <g
                       transform="translate(110.67101,557.203)"
                       id="g2946">
                      <path
                         d="M 0,0 C 0,0.452 0.188,0.678 0.565,0.678 0.935,0.678 1.12,0.452 1.12,0 l 0,-5.153 C 1.12,-5.606 0.935,-5.832 0.565,-5.832 0.188,-5.832 0,-5.606 0,-5.153 L 0,0"
                         id="path2948"
                         style="fill:#231f20;fill-opacity:1;fill-rule:nonzero;stroke:none" />
                    </g>
                  </g>
                </g>
              </g>
            </g>
          </g>
        </g>
      </g>
    </g>
  </g>
</svg>
