<?xml version="1.0" encoding="utf-8"?>
<!-- Generator: Adobe Illustrator 19.0.0, SVG Export Plug-In . SVG Version: 6.00 Build 0)  -->
<svg version="1.1" id="Layer_1" xmlns="http://www.w3.org/2000/svg" xmlns:xlink="http://www.w3.org/1999/xlink" x="0px" y="0px"
	 viewBox="7 7 110.3 44" style="enable-background:new 7 7 110.3 44;" xml:space="preserve">
<style type="text/css">
	.st0{fill:#FFFFFF;}
	.st1{enable-background:new    ;}
</style>
<g>
	<g>
		<polygon class="st0" points="18.6,17.3 22.5,19.5 18.6,21.7 14.9,19.5 		"/>
		<polygon class="st0" points="28.8,23.1 25,20.9 21.1,23.1 24.9,25.3 24.9,32.5 18.6,36 12.5,32.5 12.5,25.3 8.6,23.1 8.6,34.7 
			18.6,40.5 28.8,34.7 		"/>
	</g>
	<g class="st1">
		<path class="st0" d="M37.8,23.7h10.4v1.6L40,33.5h8.1v1.6H37.8v-1.6l0,0l8.1-8.2h-8.2L37.8,23.7L37.8,23.7z"/>
		<path class="st0" d="M51.1,22c-0.7,0-1.3-0.6-1.3-1.3s0.6-1.3,1.3-1.3s1.3,0.6,1.3,1.3S51.9,22,51.1,22z M50.4,23.8h1.5v11.3h-1.5
			V23.8z"/>
		<path class="st0" d="M56.1,33.3v7.4h-1.5V29.4c0-3.2,2.5-5.8,5.7-5.8s5.7,2.6,5.7,5.7c0,3.3-2.7,5.8-5.7,5.8
			C58.6,35.1,57.1,34.4,56.1,33.3z M56.1,29.3c0,2.3,1.9,4.2,4.2,4.2s4.2-1.9,4.2-4.2s-1.9-4.2-4.2-4.2C58,25.1,56.1,27,56.1,29.3z"
			/>
		<path class="st0" d="M75.8,26.3L75.8,26.3c-1.7-1.7-4.3-1.7-5.9,0c-1.6,1.6-1.6,4.3,0,6s4.3,1.7,5.9,0l1.1,1.1l0,0
			c-2.2,2.3-5.8,2.3-8,0s-2.2-5.9,0-8.2c2.3-2.3,5.9-2.2,8.1,0L75.8,26.3z"/>
		<path class="st0" d="M89.6,35.1h-1.5v-1.6c-1,1.1-2.5,1.8-4.2,1.8c-3.1,0-5.7-2.5-5.7-5.8v-5.8h1.5v5.8c0,2.3,1.9,4.3,4.2,4.3
			c2.3,0,4.2-1.9,4.2-4.3v-5.8h1.5V35.1z"/>
		<path class="st0" d="M103.1,29.4c0,3.2-2.5,5.7-5.7,5.7s-5.7-2.6-5.7-5.7l0,0V17.8h1.5v7.6c1-1.1,2.5-1.8,4.2-1.8
			C100.4,23.6,103.1,26.2,103.1,29.4z M101.6,29.4c0-2.3-1.9-4.2-4.2-4.2s-4.2,1.9-4.2,4.2s1.9,4.2,4.2,4.2
			C99.7,33.6,101.6,31.7,101.6,29.4z"/>
		<path class="st0" d="M107.6,32.8c0.7,0.5,1.5,0.7,2.4,0.7c2.3,0,4.2-1.9,4.2-4.2h1.5c0,3.2-2.5,5.7-5.7,5.7s-5.7-2.6-5.7-5.7
			c0-3.2,2.5-5.8,5.7-5.8c1.8,0,3.5,0.9,4.5,2.3L107.6,32.8z M106.6,31.7l5.8-5.9c-0.7-0.5-1.5-0.7-2.4-0.7c-2.3,0-4.2,1.9-4.2,4.2
			C105.8,30.2,106.1,31.1,106.6,31.7z"/>
	</g>
</g>
</svg>
