<?xml version="1.0" encoding="utf-8"?>
<!-- Generator: Adobe Illustrator 19.0.0, SVG Export Plug-In . SVG Version: 6.00 Build 0)  -->
<svg version="1.1" id="Layer_1" xmlns="http://www.w3.org/2000/svg" xmlns:xlink="http://www.w3.org/1999/xlink" x="0px" y="0px"
	 viewBox="7 7 110.3 44" style="enable-background:new 7 7 110.3 44;" xml:space="preserve">
<style type="text/css">
	.st0{fill:#333333;}
	.st1{enable-background:new    ;}
</style>
<g>
	<g>
		<polygon class="st0" points="20.1,17.8 23.8,20 20.1,22 16.4,20 		"/>
		<polygon class="st0" points="29.8,23.4 26.1,21.3 22.4,23.4 26,25.5 26,32.4 20.1,35.9 14.1,32.4 14.1,25.5 10.4,23.4 10.4,34.5 
			20.1,40.1 29.8,34.5 		"/>
	</g>
	<g class="st1">
		<path class="st0" d="M38.4,24h10v1.6l-7.8,7.9h7.8V35h-10v-1.5l0,0l7.9-8h-7.9V24z"/>
		<path class="st0" d="M51.4,22.3c-0.7,0-1.3-0.6-1.3-1.3s0.6-1.3,1.3-1.3s1.3,0.6,1.3,1.3S52.1,22.3,51.4,22.3z M50.6,24h1.5v11
			h-1.5V24z"/>
		<path class="st0" d="M56.1,33.1v7.1h-1.5v-11c0-3.1,2.4-5.6,5.5-5.6s5.5,2.5,5.5,5.6c0,3.2-2.6,5.6-5.5,5.6
			C58.5,35,57.1,34.3,56.1,33.1z M56.1,29.4c0,2.3,1.8,4.1,4,4.1s4-1.8,4-4.1c0-2.2-1.8-4.1-4-4.1S56.1,27,56.1,29.4z"/>
		<path class="st0" d="M75.2,26.5L75.2,26.5c-1.6-1.6-4.2-1.6-5.7,0c-1.6,1.6-1.6,4.2,0,5.8c1.6,1.6,4.2,1.6,5.7,0l1,1l0,0
			c-2.2,2.2-5.6,2.2-7.8,0s-2.2-5.7,0-7.9c2.2-2.2,5.7-2.1,7.8,0L75.2,26.5z"/>
		<path class="st0" d="M88.6,35h-1.5v-1.6c-1,1.1-2.4,1.7-4,1.7c-3,0-5.5-2.4-5.5-5.6v-5.6h1.5v5.6c0,2.3,1.8,4.1,4,4.1s4-1.8,4-4.1
			v-5.6h1.5V35z"/>
		<path class="st0" d="M101.6,29.5c0,3.1-2.4,5.6-5.5,5.6s-5.5-2.5-5.5-5.6l0,0V18.1h1.5v7.4c1-1.1,2.4-1.7,4-1.7
			C99,23.9,101.6,26.3,101.6,29.5z M100.1,29.4c0-2.3-1.8-4.1-4-4.1s-4,1.8-4,4.1c0,2.2,1.8,4.1,4,4.1S100.1,31.6,100.1,29.4z"/>
		<path class="st0" d="M106,32.8c0.6,0.4,1.4,0.7,2.3,0.7c2.2,0,4.1-1.8,4.1-4.1h1.5c0,3.1-2.4,5.6-5.5,5.6s-5.5-2.5-5.5-5.6
			s2.4-5.6,5.5-5.6c1.8,0,3.4,0.9,4.4,2.2L106,32.8z M104.9,31.6l5.6-5.7c-0.6-0.4-1.4-0.7-2.3-0.7c-2.2,0-4,1.8-4,4.1
			C104.2,30.3,104.5,31,104.9,31.6z"/>
	</g>
</g>
</svg>
