<?xml version="1.0" encoding="UTF-8" standalone="yes"?>
<!DOCTYPE svg PUBLIC "-//W3C//DTD SVG 1.1//EN" "http://www.w3.org/Graphics/SVG/1.1/DTD/svg11.dtd">

<svg xmlns="http://www.w3.org/2000/svg" xmlns:xlink="http://www.w3.org/1999/xlink" width="200" height="200">

<circle cx="100" cy="100" r="100" fill="#050D9E"/>
<circle cx="100" cy="100" r="87.5" fill="#FFFFFF"/>

<path id="M" fill="#050D9E" d="M 149.49 144.52 l 0 -86.81 c 0 -4.97 -2.73 -10.2 -10.94 -10.2 c -6.21 0 -8.71 2.74 -11.44 8.21 l -26.87 55.96 l -0.25 0 l -27.12 -55.96 c -2.74 -5.48 -5.22 -8.21 -11.45 -8.21 c -8.21 0 -10.94 5.22 -10.94 10.2 l 0 86.81 c 0 4.74 3.74 7.46 8.21 7.46 c 3.98 0 8.46 -2.72 8.46 -7.46 l 0 -64.67 l 0.25 0 l 24.62 50.25 c 1.74 3.48 3.99 5.48 7.97 5.48 c 3.97 0 6.22 -2 7.96 -5.48 l 24.62 -50.25 l 0.25 0 l 0 64.67 c 0 4.74 4.47 7.46 8.45 7.46 c 4.49 0 8.21 -2.72 8.21 -7.46"/>

</svg>
