<?xml version="1.0" encoding="utf-8"?>
<!-- Generator: Adobe Illustrator 19.0.0, SVG Export Plug-In . SVG Version: 6.00 Build 0)  -->
<svg version="1.1" id="Layer_1" xmlns="http://www.w3.org/2000/svg" xmlns:xlink="http://www.w3.org/1999/xlink" x="0px" y="0px"
	 viewBox="0 0 200 200" style="enable-background:new 0 0 200 200;" xml:space="preserve">
<style type="text/css">
	.st0{fill:#939A8E;}
	.st1{fill:#FD6F59;}
	.st2{fill:#00B9FF;stroke:#00B9FF;stroke-width:7;stroke-miterlimit:10;}
</style>
<g id="XMLID_131_">
	<path id="XMLID_260_" class="st0" d="M102.2,24.5c0.8,0.5,1.7,0.5,2.6,0.8c6.2,2.1,10.4,7.7,10.7,13.9c0.3,6.8-3.3,12.7-9.4,15.4
		c-0.7,0.3-1.3,0.4-1.3,1.4c0,1.1,0.3,1.5,1.4,1.6c9.4,1,18,4.1,25.9,9.2c2,1.3,3.8,2.8,5.7,4.2c0.5,0.4,0.8,0.4,1.2,0
		c0.6-0.6,1.1-1.2,1.8-1.8c0.4-0.3,0.4-0.6,0-0.9c-0.9-0.6-0.5-1.1,0.1-1.7c1.9-1.8,3.7-3.6,5.5-5.5c0.6-0.6,0.9-0.6,1.5,0
		c2.4,2.5,4.8,4.9,7.3,7.3c0.6,0.6,0.5,0.9,0,1.4c-1.9,1.9-3.8,3.8-5.7,5.7c-0.5,0.5-0.9,0.8-1.4,0.1c-0.5-0.8-0.9-0.4-1.4,0.1
		c-2,1.9-2.1,1.9-0.4,4.1c7.3,9.4,11.5,20,12.4,31.8c1,12.1-1.7,23.4-7.7,33.9c-5.4,9.5-13,16.9-22.5,22.2c-7.2,4-15,6.4-23.3,7.2
		c-9.2,0.9-18-0.4-26.5-3.7c-7.8-3-14.7-7.5-20.6-13.5c-8.2-8.4-13.6-18.3-15.9-29.8c-3.3-17.1,0.2-32.7,10.4-46.8
		c0.3-0.5,0.7-0.9,1.1-1.4c1.6-2.1,1.5-2.1-0.3-3.9c-0.6-0.6-1.1-0.9-1.7,0c-0.3,0.4-0.6,0.3-0.9,0c-2-2.1-4.1-4.1-6.1-6.1
		c-0.4-0.4-0.3-0.7,0.1-1.1c2.5-2.5,5.1-5.1,7.6-7.6c0.4-0.4,0.7-0.4,1.1,0c2,2,4,4,6,6c0.5,0.5,0.5,0.8,0,1.1
		c-0.7,0.5-0.5,0.8,0,1.4c2,2.1,2,2.1,4.2,0.4c8.3-6.5,17.7-10.4,28-12c0.7-0.1,1.4-0.1,2-0.3c0.5-0.1,1.4,0.2,1.4-0.9
		c0-0.8,0.2-1.6-1-2.1c-6.7-2.8-10.4-9.3-9.7-16.5c0.7-6.5,6-12.1,12.8-13.4c0.2,0,0.4-0.1,0.5-0.3C99.1,24.5,100.6,24.5,102.2,24.5
		z M136.7,153c5.1-4.9,8.8-10.6,11.4-17.1c3.1-7.8,4.4-15.9,3.6-24.3c-0.5-5.8-1.9-11.4-4.3-16.6c-4.6-10.2-11.8-18.2-21.5-23.8
		c-8-4.6-16.7-7-26-6.9c-5.3-0.1-10.5,0.6-15.5,2.3c-21,7.4-33.3,22.1-36.2,44.2c-1.5,11.5,0.9,22.6,7.3,32.5
		c12,18.6,29.2,26.9,51.2,24.5C118.3,166.6,128.4,161.3,136.7,153z M99.7,39.8C99.7,39.8,99.7,39.8,99.7,39.8c2.3,0,4.6,0,6.9,0
		c0.9,0,1.2,0.3,1.1,1.2c-0.1,1.9,0,3.8,0,5.7c0,0.6,0,1-0.8,1c-2.1,0.1-2.1,0.2-2.1,2.3c0,0.4,0,0.8,0,1.2c-0.1,1,0.2,1.2,1.1,0.7
		c6.5-3.4,9-11.4,5.4-18c-2.6-4.9-7.9-7.5-13.6-6.7c-5,0.7-9.6,5-10.8,10.2c-1.2,5.1,1.2,10.9,5.6,13.7c0.7,0.4,1.5,1.3,2.2,0.9
		c0.6-0.3,0.1-1.4,0.2-2.2c0-0.1,0-0.3,0-0.4c0.3-1.4-0.3-2-1.7-1.7c-1.1,0.2-1.3-0.3-1.3-1.3c0.1-1.9,0.1-3.7,0-5.6
		c0-0.8,0.2-1,1-1C95.2,39.8,97.5,39.8,99.7,39.8z"/>
	<path id="XMLID_221_" class="st0" d="M52.9,126.8c1-0.2,2-0.4,3-0.7c0.3-0.1,0.7,0,0.6-0.6c-0.1-0.5-0.4-0.5-0.8-0.4
		c-1,0.2-2,0.4-3,0.6c-0.3,0.1-0.6,0.2-0.5,0.6C52.3,126.7,52.5,126.8,52.9,126.8z M100.4,163c0-0.5,0-0.9,0-1.3
		c0-0.4,0.3-1.1-0.5-1.1c-0.9,0-0.5,0.8-0.6,1.2c-0.1,0.4-0.1,0.8,0,1.2c0.2,0.6-0.6,1.9,0.5,1.9C101,164.8,100.1,163.6,100.4,163z
		 M105.4,164.2c-0.1-1.3-0.2-2.3-0.3-3.2c0-0.4-0.2-0.7-0.6-0.6c-0.4,0.1-0.4,0.3-0.4,0.6c0.1,1,0.2,2,0.3,3.1
		c0,0.4,0.2,0.6,0.7,0.6C105.5,164.6,105.4,164.2,105.4,164.2z M57.7,102.5c0-0.5-0.2-0.5-0.5-0.6c-1-0.3-2-0.6-2.9-0.9
		c-0.3-0.1-0.5-0.3-0.7,0.2c-0.1,0.4,0,0.6,0.4,0.8c1,0.3,2,0.6,2.9,0.9C57.4,103,57.7,102.9,57.7,102.5z M95.6,161.3
		c0.1-0.4,0.2-0.8-0.3-0.9c-0.6-0.1-0.6,0.3-0.7,0.7c-0.1,0.9-0.2,1.8-0.3,2.8c0,0.3-0.2,0.7,0.4,0.8c0.6,0.1,0.6-0.3,0.7-0.7
		C95.4,163,95.5,162.2,95.6,161.3z M95.6,71.4c-0.1-1-0.2-2-0.3-2.9c0-0.4-0.1-0.7-0.6-0.6c-0.4,0.1-0.4,0.3-0.4,0.6
		c0.1,1,0.2,2,0.3,3.1c0,0.4,0.2,0.7,0.6,0.6C95.8,72.1,95.7,71.7,95.6,71.4z M52.4,110.8c-0.3,0.1-0.8-0.2-0.9,0.4
		c-0.1,0.6,0.4,0.6,0.7,0.6c1,0.1,1.9,0.2,2.9,0.3c0.3,0,0.6,0,0.6-0.4c0.1-0.4-0.1-0.6-0.6-0.6C54.2,111,53.3,110.9,52.4,110.8z
		 M80.3,71.7c-0.5,0.1-0.7,0.3-0.5,0.8c0.5,1,0.9,2,1.4,3c0.2,0.5,0.7,0.3,0.8,0.1c0.3-1.2-0.7-2.1-1.1-3.2
		C80.8,72.2,80.8,71.7,80.3,71.7z M86.5,73.5c-0.3-1-0.7-2.1-1-3.2c-0.1-0.3-0.2-0.4-0.5-0.3c-0.3,0.1-0.5,0.3-0.4,0.7
		c0.3,1.1,0.7,2.1,1,3.2c0.1,0.2,0.2,0.4,0.5,0.3C86.3,74,86.7,73.9,86.5,73.5z M52.8,105.7c-0.3,0-0.5,0.1-0.6,0.4
		c-0.1,0.4,0.2,0.5,0.5,0.5c1,0.2,2.1,0.5,3.2,0.7c0.4,0.1,0.6-0.1,0.6-0.4c0.1-0.3-0.1-0.5-0.3-0.5C55.1,106.2,54,106,52.8,105.7z
		 M54.7,120.5c-0.9,0.1-1.8,0.2-2.7,0.3c-0.4,0-0.7,0.1-0.6,0.6c0.1,0.4,0.3,0.5,0.7,0.5c0.9-0.1,1.8-0.2,2.6-0.3
		c0.4-0.1,1,0.1,0.9-0.6C55.6,120.1,55,120.6,54.7,120.5z M56,136.4c1-0.5,2.2-1,3.3-1.5c0.3-0.1,0.2-0.4,0.1-0.6
		c-0.1-0.3-0.3-0.3-0.6-0.2c-1,0.5-2,0.9-3.1,1.4c-0.3,0.1-0.3,0.3-0.3,0.6C55.4,136.3,55.6,136.4,56,136.4z M61.6,138.6
		c-0.2-0.3-0.3-0.7-0.9-0.3c-0.9,0.5-1.8,1-2.7,1.5c-0.3,0.2-0.6,0.4-0.3,0.8c0.3,0.5,0.6,0.2,0.9,0.1c0.9-0.5,1.7-1,2.5-1.5
		C61.3,139.1,61.5,139,61.6,138.6z M64.1,142.5c-0.2-0.2-0.3-0.6-0.7-0.3c-1,0.7-1.9,1.4-2.8,2c-0.2,0.2-0.2,0.4-0.1,0.6
		c0.2,0.3,0.4,0.4,0.7,0.1c0.9-0.7,1.8-1.3,2.7-2C64,142.9,64.2,142.8,64.1,142.5z M89.9,68.6c-0.4,0-0.6,0.1-0.6,0.5
		c0.2,1.1,0.5,2.3,0.8,3.4c0.1,0.4,0.5,0.5,0.6,0.2c0.6-1.1-0.2-2.1-0.3-3.2C90.4,69.3,90.5,68.7,89.9,68.6z M54.3,131.6
		c0.9-0.3,2-0.7,3.1-1.1c0.3-0.1,0.4-0.3,0.3-0.6c-0.1-0.3-0.3-0.5-0.5-0.4c-1.1,0.3-2.2,0.7-3.3,1.1c-0.3,0.1-0.4,0.3-0.3,0.6
		C53.6,131.5,53.8,131.7,54.3,131.6z M74,152.8c0.1-0.5-0.1-0.6-0.2-0.7c-0.3-0.3-0.5,0-0.7,0.2c-0.6,0.9-1.3,1.7-1.9,2.6
		c-0.1,0.2-0.3,0.4,0,0.6c0.2,0.2,0.4,0.4,0.6,0.2C72.6,154.7,73.3,153.7,74,152.8z M86.5,159c0.1-0.3-0.1-0.5-0.4-0.5
		c-0.3-0.1-0.5,0-0.6,0.3c-0.4,1.1-0.7,2.1-1,3.2c-0.1,0.3,0,0.6,0.4,0.6c0.3,0,0.5,0,0.6-0.3C85.8,161.1,86.2,160,86.5,159z
		 M91,160.4c0-0.2,0.2-0.6-0.3-0.7c-0.6-0.2-0.6,0.3-0.7,0.7c-0.2,0.9-0.4,1.9-0.6,2.8c-0.1,0.4,0,0.7,0.4,0.8
		c0.5,0.1,0.6-0.2,0.6-0.6C90.6,162.4,90.8,161.4,91,160.4z M110.3,163.2c-0.2-1-0.4-2-0.7-3.1c-0.1-0.3-0.2-0.6-0.6-0.5
		c-0.4,0.1-0.5,0.3-0.4,0.6c0.2,1.1,0.5,2.2,0.7,3.3c0.1,0.3,0.2,0.4,0.5,0.3C110.3,163.8,110.5,163.7,110.3,163.2z M70.4,83
		c0-0.1,0-0.2-0.1-0.3c-0.8-0.9-1.6-1.8-2.4-2.7c-0.2-0.3-0.4-0.1-0.6,0.1c-0.2,0.2-0.3,0.4-0.1,0.6c0.8,0.9,1.5,1.7,2.4,2.6
		C70,83.7,70.2,83.3,70.4,83z M77.9,77.3c-0.6-1-1.2-2.1-1.9-3.2c-0.1-0.2-0.3-0.1-0.5,0c-0.2,0.1-0.4,0.3-0.2,0.6
		c0.6,1.1,1.2,2.1,1.9,3.2c0.1,0.2,0.3,0.2,0.5,0.1C77.8,77.8,78.1,77.7,77.9,77.3z M61.2,94.5c0.1-0.2,0.2-0.3,0.3-0.5
		c0.1-0.3,0.1-0.5-0.2-0.6c-1-0.6-2-1.2-3-1.8c-0.3-0.1-0.5,0-0.6,0.2c-0.1,0.2-0.3,0.4-0.1,0.5C58.8,93.1,59.9,93.8,61.2,94.5z
		 M59.4,98c0-0.3-0.1-0.4-0.3-0.5c-1.1-0.5-2.1-0.9-3.2-1.4c-0.3-0.1-0.4,0-0.5,0.3c-0.1,0.2-0.1,0.4,0.1,0.5
		c1.1,0.5,2.3,1.1,3.4,1.6C59.3,98.7,59.3,98.2,59.4,98z M82.1,157.3c0-0.3-0.1-0.4-0.3-0.5c-0.2-0.1-0.5-0.2-0.6,0.1
		c-0.5,1.1-1,2.1-1.4,3.2c-0.1,0.3,0,0.5,0.2,0.6c0.2,0.1,0.5,0.1,0.6-0.1C81.2,159.5,81.7,158.4,82.1,157.3z M75.2,157.9
		c-0.1,0.4,0.1,0.5,0.3,0.6c0.3,0.2,0.5,0,0.6-0.2c0.6-1,1.1-1.9,1.7-2.9c0.2-0.3,0.1-0.5-0.2-0.7c-0.2-0.1-0.5-0.1-0.6,0.1
		C76.4,155.8,75.8,156.9,75.2,157.9z M67.1,86.2C67,86.1,67,86,66.9,85.9c-0.8-0.8-1.7-1.5-2.5-2.3c-0.3-0.3-0.5-0.2-0.7,0
		c-0.3,0.3-0.2,0.6,0.1,0.8c0.8,0.7,1.5,1.3,2.3,2C66.6,87,66.9,86.7,67.1,86.2z M67.6,152.6c0.1-0.1,0.3-0.1,0.4-0.2
		c0.8-0.9,1.6-1.7,2.3-2.6c0.2-0.2,0-0.4-0.1-0.6c-0.2-0.2-0.4-0.2-0.6,0c-0.8,0.9-1.6,1.7-2.3,2.6
		C66.9,152.3,67.3,152.4,67.6,152.6z M64.1,149.1c0.2,0.1,0.3,0.3,0.5,0.4c0.8-1.1,1.7-2.1,2.5-3.2c0-0.1-0.1-0.3-0.3-0.4
		c-0.2-0.2-0.4-0.1-0.6,0.1c-0.8,0.8-1.7,1.5-2.5,2.2c-0.2,0.2-0.3,0.4-0.1,0.6C63.8,148.9,63.9,149,64.1,149.1z M74.1,80
		c-0.8-1.1-1.6-2.2-2.4-3.2c0-0.1-0.4,0.1-0.5,0.2c-0.2,0.2-0.3,0.4-0.1,0.6c0.7,0.9,1.3,1.8,2,2.7c0.2,0.2,0.4,0.3,0.6,0.1
		C73.9,80.3,73.9,80.1,74.1,80z M118.1,156.7c-0.3,0.1-0.7,0.2-0.5,0.7c0.4,1,0.9,2,1.3,3.1c0.1,0.3,0.3,0.5,0.7,0.3
		c0.4-0.2,0.4-0.5,0.2-0.8c-0.4-0.9-0.8-1.9-1.3-2.8C118.5,156.9,118.4,156.7,118.1,156.7z M113.9,158.4c-0.6,0.1-0.8,0.3-0.6,0.7
		c0.4,1.1,0.7,2.1,1,3.2c0.1,0.4,0.4,0.4,0.7,0.3c0.5-0.2,0.3-0.7,0.1-1C114.6,160.5,114.6,159.2,113.9,158.4z M122.4,154.5
		c-0.6,0.2-0.9,0.4-0.5,1c0.5,0.9,1,1.8,1.5,2.6c0.2,0.3,0.4,0.5,0.8,0.3c0.4-0.3,0.2-0.6,0-0.9c-0.5-0.8-1-1.7-1.5-2.5
		C122.7,154.8,122.5,154.7,122.4,154.5z M60.9,87.3c-0.2,0.1-0.3,0.2-0.5,0.4c-0.2,0.2-0.1,0.5,0.1,0.6c0.9,0.7,1.9,1.4,2.8,2
		c0.2,0.2,0.4,0.1,0.6-0.1c0.1-0.2,0.3-0.4,0.1-0.5C63,88.9,62,88.1,60.9,87.3z M126.2,151.9c-0.2,0.1-0.3,0.2-0.5,0.3
		c-0.2,0.2-0.1,0.5,0.1,0.6c0.6,0.9,1.3,1.7,1.9,2.6c0.2,0.3,0.4,0.4,0.7,0.2c0.3-0.2,0.4-0.4,0.1-0.7c-0.7-0.9-1.3-1.8-2-2.7
		C126.5,152.1,126.4,152.1,126.2,151.9z M130,148.9c-0.2,0.2-0.4,0.3-0.5,0.4c-0.2,0.2-0.1,0.4,0,0.6c0.5,0.5,0.8,1.1,1.4,1.5
		c0.5,0.4,0.7,1.7,1.5,0.9c0.7-0.6-0.5-1-0.8-1.5C131.1,150.1,130.5,149.6,130,148.9z M53.5,116.8c0.6-0.4,1.9,0.5,1.9-0.6
		c0-1-1.3-0.4-1.9-0.4c-0.7,0-2.1-0.5-2.1,0.4C51.3,117.3,52.8,116.4,53.5,116.8z"/>
	<path id="XMLID_197_" class="st1" d="M99.9,111.8c0-13.3,0-26.5,0-39.8c0.8-0.8,0.8-3.6,0-4.5c0-1.1,0-2.1,0-3.2
		c9.3-0.2,18,2.3,26,6.9c9.7,5.6,16.9,13.6,21.5,23.8c2.4,5.3,3.8,10.8,4.3,16.6c0.8,8.4-0.5,16.5-3.6,24.3
		c-2.6,6.5-6.3,12.2-11.4,17.1c-0.9-0.6-1.5-1.4-2.2-2.1c0.6-0.6,0.3-1.1-0.2-1.6c-10-10-20-20-30.1-30c-0.3-0.3-0.6-0.5-0.4-1.1
		C104.9,114.5,103.5,112.4,99.9,111.8z M145.6,100.9c-1.1,0.4-2.1,0.7-3.2,1c-0.3,0.1-0.5,0.3-0.4,0.7c0.1,0.4,0.4,0.4,0.7,0.3
		c1-0.3,2-0.6,3.1-1c0.3-0.1,0.5-0.3,0.3-0.7C146,100.9,145.8,100.8,145.6,100.9z M104.1,71.3c0,0.2-0.3,0.8,0.4,0.9
		c0.7,0.1,0.6-0.5,0.6-0.9c0.1-0.9,0.2-1.7,0.3-2.6c0-0.4,0-0.7-0.5-0.8c-0.5,0-0.6,0.3-0.6,0.6C104.2,69.4,104.2,70.2,104.1,71.3z
		 M145.2,120.5c-0.4,0.1-1.1-0.4-1.1,0.4c-0.1,0.7,0.7,0.6,1.1,0.6c0.8,0.1,1.6,0.2,2.5,0.3c0.4,0,0.7-0.1,0.7-0.6
		c0-0.4-0.3-0.5-0.6-0.5C146.9,120.7,146,120.6,145.2,120.5z M120,72.3c0-0.3-0.2-0.4-0.4-0.5c-0.3-0.1-0.5,0-0.6,0.3
		c-0.5,1-0.9,2-1.4,3.1c-0.1,0.2-0.1,0.5,0.2,0.6c0.2,0.1,0.5,0.1,0.6-0.1C119,74.5,119.5,73.4,120,72.3z M113.8,74.1
		c0.2,0,0.4-0.1,0.4-0.3c0.3-1.1,0.7-2.1,1-3.2c0.1-0.3,0-0.6-0.4-0.7c-0.4-0.1-0.5,0.2-0.6,0.5c-0.3,1-0.6,2-1,2.9
		C113.1,73.9,113.3,74,113.8,74.1z M146.9,126.8c0.1,0,0.4,0.1,0.5-0.4c0.1-0.3,0-0.5-0.3-0.6c-1.1-0.2-2.3-0.5-3.4-0.7
		c-0.3-0.1-0.6,0.1-0.6,0.5c0,0.3,0.2,0.4,0.5,0.4C144.7,126.3,145.7,126.5,146.9,126.8z M146.8,105.8c-1,0.2-2.1,0.4-3.1,0.7
		c-0.3,0.1-0.5,0.3-0.5,0.6c0.1,0.3,0.3,0.5,0.6,0.4c1-0.2,2.1-0.4,3.1-0.7c0.3-0.1,0.7-0.2,0.5-0.7
		C147.4,105.7,147.1,105.7,146.8,105.8z M109.3,72.9c0.1-0.1,0.2-0.1,0.3-0.2c0.3-1.2,0.6-2.4,0.8-3.6c0.1-0.3-0.2-0.4-0.5-0.4
		c-0.4,0-0.5,0.2-0.6,0.5c-0.2,1-0.4,1.9-0.6,2.9C108.6,72.5,108.7,72.8,109.3,72.9z M142.7,129.6c-0.3,0-0.5,0.1-0.6,0.4
		c-0.1,0.3,0,0.5,0.3,0.6c1.1,0.4,2.2,0.7,3.3,1.1c0.3,0.1,0.4-0.1,0.5-0.4c0.1-0.3,0-0.5-0.3-0.6
		C144.8,130.3,143.7,130,142.7,129.6z M144.8,112.1c1-0.1,1.9-0.2,2.9-0.3c0.3,0,0.6-0.1,0.6-0.5c0-0.5-0.4-0.5-0.7-0.5
		c-1,0.1-1.9,0.2-2.9,0.3c-0.4,0-0.7,0.1-0.6,0.6C144.1,112.1,144.4,112.1,144.8,112.1z M141,98.5c1-0.4,2.1-0.9,3.1-1.4
		c0.2-0.1,0.3-0.4,0.2-0.6c-0.1-0.3-0.3-0.4-0.6-0.3c-1.1,0.5-2.1,0.9-3.2,1.4c-0.2,0.1-0.4,0.3-0.2,0.6
		C140.5,98.4,140.6,98.6,141,98.5z M129.8,83.5c0.3,0,2.9-2.8,2.8-3c0-0.2-0.2-0.3-0.3-0.5c-0.3-0.2-0.4,0-0.6,0.1
		c-0.7,0.8-1.4,1.6-2.2,2.4c-0.2,0.2-0.3,0.4-0.1,0.6C129.6,83.3,129.7,83.4,129.8,83.5z M136.3,84.1c-0.2-0.2-0.2-0.4-0.4-0.5
		c-0.2-0.2-0.4,0-0.6,0.1c-0.5,0.4-1.1,0.8-1.5,1.4c-0.4,0.4-1.5,0.7-0.9,1.5c0.7,0.7,1.1-0.4,1.5-0.8
		C135.1,85.3,135.6,84.7,136.3,84.1z M138.6,94.3c0.3,0,3.5-1.7,3.5-1.9c0-0.2,0-0.4-0.1-0.5c-0.1-0.3-0.4-0.3-0.6-0.1
		c-1,0.6-1.9,1.1-2.9,1.7c-0.2,0.1-0.4,0.3-0.2,0.6C138.3,94.2,138.5,94.3,138.6,94.3z M122.3,78c0.1-0.1,0.3-0.2,0.4-0.4
		c0.6-1,1.1-1.9,1.7-2.9c0.2-0.3,0-0.5-0.3-0.7c-0.3-0.2-0.5,0-0.6,0.2c-0.6,1-1.2,2-1.7,3C121.5,77.7,122,77.8,122.3,78z
		 M126.2,80.5c0.1,0,0.2-0.1,0.3-0.1c0.7-1,1.5-1.9,2.1-2.9c0.2-0.2-0.1-0.4-0.3-0.6c-0.3-0.2-0.5,0-0.6,0.2
		c-0.6,0.9-1.3,1.7-1.9,2.6C125.6,80.1,125.7,80.3,126.2,80.5z M139.3,87.9c-0.2-0.6-0.6-0.5-1-0.2c-0.8,0.6-1.6,1.1-2.4,1.7
		c-0.3,0.2-0.6,0.4-0.2,0.8c0.3,0.4,0.6,0.2,0.9,0c0.8-0.6,1.6-1.1,2.4-1.7C139.2,88.3,139.3,88.2,139.3,87.9z M136.1,142.1
		c-0.2,0-0.3,0.2-0.4,0.3c-0.2,0.3-0.1,0.5,0.1,0.6c0.9,0.7,1.8,1.3,2.7,2c0.2,0.2,0.5,0.2,0.6,0c0.1-0.1,0.1-0.4,0.1-0.5
		C139.2,144.2,136.4,142.1,136.1,142.1z M138.9,138.2c-0.4-0.1-0.5,0-0.6,0.2c-0.1,0.2-0.2,0.5,0,0.6c1,0.6,2,1.2,3,1.7
		c0.2,0.1,0.5,0.1,0.6-0.2c0.2-0.2,0.2-0.5-0.1-0.6C140.9,139.4,139.8,138.8,138.9,138.2z M144.3,135.9c0-0.2,0-0.4-0.2-0.5
		c-1.1-0.5-2.1-1-3.2-1.4c-0.3-0.1-0.4,0.1-0.5,0.4c-0.1,0.3,0,0.4,0.3,0.6c1,0.4,2,0.9,2.9,1.3
		C143.9,136.5,144.2,136.4,144.3,135.9z M133.1,145.8c-0.1,0.1-0.2,0.2-0.4,0.3c-0.2,0.2-0.1,0.4,0.1,0.5c0.9,0.8,1.7,1.6,2.6,2.3
		c0.4,0.3,0.6,0,0.7-0.4C136.2,148.2,133.5,145.8,133.1,145.8z M146.1,116.7c0.7,0,1.2,0,1.7,0c0.3,0,0.6-0.1,0.6-0.5
		c0-0.4-0.3-0.5-0.6-0.5c-0.5,0-1.1-0.1-1.6,0c-0.7,0.1-1.9-0.4-1.9,0.4C144.4,117.3,145.6,116.4,146.1,116.7z"/>
	<path id="XMLID_193_" class="st2" d="M99.9,111.8c3.7,0.7,5,2.7,4,6.4c-0.2,0.6,0.1,0.7,0.4,1.1c10,10,20,20,30.1,30
		c0.5,0.5,0.8,1,0.2,1.6c-0.7,0.9-1.2,0.3-1.7-0.2c-9.8-9.8-19.7-19.7-29.5-29.5c-0.7-0.7-1.2-1-2.2-0.6c-1.6,0.6-3.1,0.1-4.3-1.1
		c-1.2-1.2-1.7-2.8-1.1-4.4c0.3-0.9,0.2-1.4-0.5-2c-0.9-0.8-1.7-1.7-2.5-2.5c-0.6-0.5-0.9-0.9-0.1-1.6c0.8-0.8,1.1-0.3,1.6,0.2
		c0.4,0.4,0.9,0.8,1.2,1.3C96.5,112,97.9,112.7,99.9,111.8z M99.9,114.5c-1.1,0.1-1.8,0.6-1.8,1.7c0,1.1,0.7,1.8,1.7,1.8
		c1,0,1.8-0.6,1.8-1.7C101.6,115.2,101,114.6,99.9,114.5z"/>
	<path id="XMLID_61_" class="st0" d="M52.9,126.8c-0.4,0.1-0.6-0.1-0.6-0.4c-0.1-0.4,0.2-0.5,0.5-0.6c1-0.2,2-0.4,3-0.6
		c0.4-0.1,0.7-0.1,0.8,0.4c0.1,0.5-0.3,0.5-0.6,0.6C54.9,126.3,53.9,126.5,52.9,126.8z"/>
	<path id="XMLID_60_" class="st0" d="M100.4,163c-0.3,0.5,0.6,1.8-0.5,1.8c-1.2,0-0.3-1.2-0.5-1.9c-0.1-0.4-0.1-0.8,0-1.2
		c0.1-0.5-0.3-1.2,0.6-1.2c0.8,0,0.4,0.7,0.5,1.1C100.4,162.1,100.4,162.5,100.4,163z"/>
	<path id="XMLID_59_" class="st0" d="M105.4,164.2c0,0,0.2,0.4-0.4,0.5c-0.4,0.1-0.6-0.2-0.7-0.6c-0.1-1-0.2-2-0.3-3.1
		c0-0.3,0-0.6,0.4-0.6c0.5-0.1,0.6,0.2,0.6,0.6C105.2,161.9,105.3,162.9,105.4,164.2z"/>
	<path id="XMLID_58_" class="st0" d="M99.9,67.5c0.8,0.9,0.8,3.7,0,4.5c-0.2-0.1-0.5-0.2-0.5-0.3C99.5,70.3,98.7,68.8,99.9,67.5z"/>
	<path id="XMLID_57_" class="st0" d="M57.7,102.5c0,0.4-0.3,0.5-0.8,0.3c-1-0.3-2-0.6-2.9-0.9c-0.4-0.1-0.5-0.4-0.4-0.8
		c0.2-0.4,0.4-0.3,0.7-0.2c1,0.3,2,0.6,2.9,0.9C57.5,102,57.7,102,57.7,102.5z"/>
	<path id="XMLID_56_" class="st0" d="M95.6,161.3c-0.1,0.9-0.2,1.8-0.2,2.6c0,0.4-0.1,0.8-0.7,0.7c-0.5-0.1-0.4-0.5-0.4-0.8
		c0.1-0.9,0.2-1.8,0.3-2.8c0-0.4,0.1-0.8,0.7-0.7C95.8,160.5,95.7,160.9,95.6,161.3z"/>
	<path id="XMLID_55_" class="st0" d="M95.6,71.4c0,0.3,0.2,0.7-0.4,0.8c-0.5,0.1-0.6-0.2-0.6-0.6c-0.1-1-0.2-2-0.3-3.1
		c0-0.3,0-0.6,0.4-0.6c0.5-0.1,0.6,0.3,0.6,0.6C95.4,69.4,95.5,70.4,95.6,71.4z"/>
	<path id="XMLID_54_" class="st0" d="M52.4,110.8c0.9,0.1,1.9,0.2,2.8,0.3c0.4,0,0.6,0.2,0.6,0.6c-0.1,0.4-0.3,0.4-0.6,0.4
		c-1-0.1-1.9-0.2-2.9-0.3c-0.4,0-0.9,0-0.7-0.6C51.6,110.5,52.1,110.8,52.4,110.8z"/>
	<path id="XMLID_53_" class="st0" d="M80.3,71.7c0.5-0.1,0.5,0.5,0.6,0.8c0.3,1.1,1.3,1.9,1.1,3.2c0,0.2-0.6,0.3-0.8-0.1
		c-0.4-1-0.9-2-1.4-3C79.6,72.1,79.8,71.8,80.3,71.7z"/>
	<path id="XMLID_52_" class="st0" d="M86.5,73.5c0.2,0.4-0.1,0.5-0.4,0.7c-0.3,0.1-0.5-0.1-0.5-0.3c-0.4-1.1-0.7-2.1-1-3.2
		c-0.1-0.4,0.1-0.6,0.4-0.7c0.3-0.1,0.4,0.1,0.5,0.3C85.8,71.4,86.1,72.4,86.5,73.5z"/>
	<path id="XMLID_51_" class="st0" d="M52.8,105.7c1.2,0.2,2.3,0.5,3.4,0.7c0.3,0.1,0.4,0.3,0.3,0.5c-0.1,0.3-0.3,0.5-0.6,0.4
		c-1.1-0.2-2.1-0.5-3.2-0.7c-0.3-0.1-0.6-0.1-0.5-0.5C52.3,105.8,52.5,105.7,52.8,105.7z"/>
	<path id="XMLID_50_" class="st0" d="M54.7,120.5c0.3,0.1,0.9-0.3,1,0.4c0.1,0.7-0.6,0.6-0.9,0.6c-0.9,0.1-1.7,0.2-2.6,0.3
		c-0.4,0.1-0.7,0-0.7-0.5c-0.1-0.5,0.2-0.6,0.6-0.6C52.9,120.7,53.8,120.6,54.7,120.5z"/>
	<path id="XMLID_49_" class="st0" d="M56,136.4c-0.4,0-0.5-0.1-0.6-0.4c-0.1-0.3,0-0.5,0.3-0.6c1-0.5,2-0.9,3.1-1.4
		c0.3-0.1,0.5,0,0.6,0.2c0.1,0.2,0.3,0.5-0.1,0.6C58.1,135.4,57,135.9,56,136.4z"/>
	<path id="XMLID_48_" class="st0" d="M61.6,138.6c0,0.4-0.3,0.5-0.5,0.6c-0.8,0.5-1.7,1-2.5,1.5c-0.3,0.2-0.6,0.4-0.9-0.1
		c-0.3-0.4,0-0.6,0.3-0.8c0.9-0.5,1.8-1,2.7-1.5C61.3,137.9,61.4,138.3,61.6,138.6z"/>
	<path id="XMLID_47_" class="st0" d="M64.1,142.5c0.1,0.3-0.1,0.4-0.2,0.5c-0.9,0.7-1.8,1.3-2.7,2c-0.3,0.2-0.5,0.1-0.7-0.1
		c-0.2-0.2-0.2-0.4,0.1-0.6c0.9-0.7,1.9-1.4,2.8-2C63.8,141.9,63.9,142.3,64.1,142.5z"/>
	<path id="XMLID_46_" class="st0" d="M89.9,68.6c0.6,0.1,0.5,0.6,0.6,1c0.1,1.1,0.9,2.1,0.3,3.2c-0.1,0.2-0.6,0.2-0.6-0.2
		c-0.3-1.1-0.5-2.3-0.8-3.4C89.2,68.8,89.5,68.7,89.9,68.6z"/>
	<path id="XMLID_45_" class="st0" d="M54.3,131.6c-0.5,0.1-0.6-0.1-0.7-0.3c-0.1-0.3,0-0.5,0.3-0.6c1.1-0.4,2.2-0.7,3.3-1.1
		c0.3-0.1,0.4,0.1,0.5,0.4c0.1,0.3,0,0.5-0.3,0.6C56.3,130.9,55.2,131.3,54.3,131.6z"/>
	<path id="XMLID_44_" class="st0" d="M74,152.8c-0.7,0.9-1.4,1.9-2.2,3c-0.2,0.2-0.4,0-0.6-0.2c-0.2-0.2-0.1-0.4,0-0.6
		c0.6-0.9,1.3-1.7,1.9-2.6c0.2-0.3,0.4-0.5,0.7-0.2C73.9,152.2,74.1,152.3,74,152.8z"/>
	<path id="XMLID_43_" class="st0" d="M86.5,159c-0.4,1.1-0.7,2.2-1.1,3.3c-0.1,0.3-0.3,0.4-0.6,0.3c-0.4-0.1-0.5-0.3-0.4-0.6
		c0.3-1.1,0.7-2.1,1-3.2c0.1-0.3,0.3-0.4,0.6-0.3C86.4,158.5,86.6,158.6,86.5,159z"/>
	<path id="XMLID_42_" class="st0" d="M91,160.4c-0.2,1.1-0.4,2-0.6,2.9c-0.1,0.3-0.2,0.7-0.6,0.6c-0.4-0.1-0.5-0.4-0.4-0.8
		c0.2-0.9,0.4-1.9,0.6-2.8c0.1-0.4,0.1-0.8,0.7-0.7C91.2,159.8,91,160.2,91,160.4z"/>
	<path id="XMLID_41_" class="st0" d="M110.3,163.2c0.1,0.5-0.1,0.6-0.4,0.7c-0.3,0.1-0.5-0.1-0.5-0.3c-0.3-1.1-0.5-2.2-0.7-3.3
		c-0.1-0.3,0-0.6,0.4-0.6c0.4-0.1,0.5,0.2,0.6,0.5C109.9,161.2,110.1,162.2,110.3,163.2z"/>
	<path id="XMLID_40_" class="st0" d="M70.4,83c-0.2,0.4-0.4,0.7-0.9,0.3c-0.8-0.8-1.6-1.7-2.4-2.6c-0.2-0.2-0.1-0.4,0.1-0.6
		c0.2-0.2,0.4-0.3,0.6-0.1c0.8,0.9,1.6,1.8,2.4,2.7C70.4,82.8,70.4,82.9,70.4,83z"/>
	<path id="XMLID_39_" class="st0" d="M77.9,77.3c0.1,0.4-0.1,0.5-0.3,0.6c-0.2,0.1-0.4,0.1-0.5-0.1c-0.6-1.1-1.2-2.1-1.9-3.2
		c-0.2-0.3,0-0.4,0.2-0.6c0.2-0.1,0.4-0.2,0.5,0C76.7,75.2,77.3,76.3,77.9,77.3z"/>
	<path id="XMLID_38_" class="st0" d="M61.2,94.5c-1.3-0.8-2.4-1.4-3.6-2.1c-0.2-0.1,0-0.3,0.1-0.5c0.1-0.3,0.3-0.4,0.6-0.2
		c1,0.6,2,1.2,3,1.8c0.2,0.1,0.3,0.3,0.2,0.6C61.4,94.2,61.3,94.4,61.2,94.5z"/>
	<path id="XMLID_37_" class="st0" d="M59.4,98c-0.2,0.2-0.1,0.7-0.5,0.5c-1.2-0.5-2.3-1-3.4-1.6c-0.2-0.1-0.1-0.3-0.1-0.5
		c0.1-0.3,0.3-0.4,0.5-0.3c1.1,0.5,2.1,0.9,3.2,1.4C59.3,97.7,59.5,97.8,59.4,98z"/>
	<path id="XMLID_36_" class="st0" d="M82.1,157.3c-0.5,1.1-1,2.2-1.5,3.3c-0.1,0.3-0.4,0.3-0.6,0.1c-0.2-0.1-0.4-0.3-0.2-0.6
		c0.5-1.1,1-2.1,1.4-3.2c0.1-0.3,0.4-0.3,0.6-0.1C82,156.9,82.2,157,82.1,157.3z"/>
	<path id="XMLID_35_" class="st0" d="M75.2,157.9c0.6-1,1.2-2,1.8-3.1c0.1-0.2,0.4-0.3,0.6-0.1c0.3,0.2,0.4,0.4,0.2,0.7
		c-0.6,1-1.1,1.9-1.7,2.9c-0.1,0.2-0.3,0.4-0.6,0.2C75.4,158.3,75.2,158.2,75.2,157.9z"/>
	<path id="XMLID_34_" class="st0" d="M67.1,86.2c-0.3,0.5-0.5,0.8-1,0.3c-0.7-0.7-1.5-1.4-2.3-2c-0.3-0.3-0.5-0.5-0.1-0.8
		c0.2-0.3,0.5-0.3,0.7,0c0.8,0.8,1.7,1.5,2.5,2.3C67,86,67,86.1,67.1,86.2z"/>
	<path id="XMLID_33_" class="st0" d="M67.6,152.6c-0.3-0.2-0.7-0.4-0.4-0.8c0.7-0.9,1.5-1.8,2.3-2.6c0.2-0.2,0.4-0.2,0.6,0
		c0.2,0.2,0.4,0.4,0.1,0.6c-0.8,0.9-1.6,1.8-2.3,2.6C67.9,152.5,67.7,152.6,67.6,152.6z"/>
	<path id="XMLID_32_" class="st0" d="M64.1,149.1c-0.2-0.1-0.3-0.2-0.4-0.3c-0.2-0.2-0.1-0.4,0.1-0.6c0.8-0.8,1.7-1.5,2.5-2.2
		c0.2-0.2,0.4-0.3,0.6-0.1c0.1,0.1,0.3,0.4,0.3,0.4c-0.8,1.1-1.7,2.1-2.5,3.2C64.4,149.4,64.2,149.2,64.1,149.1z"/>
	<path id="XMLID_31_" class="st0" d="M74.1,80c-0.2,0.2-0.3,0.4-0.4,0.5c-0.2,0.2-0.5,0.1-0.6-0.1c-0.7-0.9-1.3-1.8-2-2.7
		c-0.2-0.2-0.2-0.5,0.1-0.6c0.2-0.1,0.5-0.2,0.5-0.2C72.5,77.8,73.3,78.8,74.1,80z"/>
	<path id="XMLID_30_" class="st0" d="M118.1,156.7c0.3,0,0.4,0.2,0.5,0.5c0.4,0.9,0.8,1.9,1.3,2.8c0.2,0.3,0.2,0.7-0.2,0.8
		c-0.3,0.1-0.5,0-0.7-0.3c-0.4-1-0.9-2-1.3-3.1C117.4,156.9,117.8,156.8,118.1,156.7z"/>
	<path id="XMLID_29_" class="st0" d="M113.9,158.4c0.8,0.8,0.8,2.1,1.2,3.2c0.1,0.3,0.4,0.8-0.1,1c-0.3,0.1-0.6,0.1-0.7-0.3
		c-0.3-1.1-0.7-2.1-1-3.2C113.1,158.7,113.3,158.5,113.9,158.4z"/>
	<path id="XMLID_28_" class="st0" d="M122.4,154.5c0.1,0.2,0.3,0.3,0.4,0.5c0.5,0.8,1,1.7,1.5,2.5c0.2,0.3,0.4,0.6,0,0.9
		c-0.4,0.3-0.6,0-0.8-0.3c-0.5-0.9-1-1.8-1.5-2.6C121.5,154.9,121.8,154.7,122.4,154.5z"/>
	<path id="XMLID_27_" class="st0" d="M60.9,87.3c1.1,0.8,2.1,1.6,3.2,2.4c0.2,0.1,0,0.3-0.1,0.5c-0.2,0.2-0.4,0.3-0.6,0.1
		c-0.9-0.7-1.9-1.3-2.8-2c-0.2-0.2-0.2-0.4-0.1-0.6C60.6,87.5,60.7,87.5,60.9,87.3z"/>
	<path id="XMLID_26_" class="st0" d="M126.2,151.9c0.2,0.1,0.3,0.2,0.4,0.3c0.7,0.9,1.3,1.8,2,2.7c0.2,0.3,0.2,0.5-0.1,0.7
		c-0.3,0.2-0.5,0.1-0.7-0.2c-0.6-0.9-1.3-1.7-1.9-2.6c-0.1-0.2-0.3-0.4-0.1-0.6C125.9,152.1,126.1,152.1,126.2,151.9z"/>
	<path id="XMLID_25_" class="st0" d="M130,148.9c0.6,0.7,1.2,1.2,1.6,1.9c0.3,0.5,1.5,0.9,0.8,1.5c-0.8,0.7-1-0.6-1.5-0.9
		c-0.5-0.4-0.9-1-1.4-1.5c-0.2-0.2-0.3-0.4,0-0.6C129.6,149.2,129.7,149.1,130,148.9z"/>
	<path id="XMLID_24_" class="st0" d="M53.5,116.8c-0.7-0.4-2.1,0.5-2.1-0.6c0-0.9,1.4-0.4,2.1-0.4c0.7,0,1.9-0.6,1.9,0.4
		C55.4,117.3,54.1,116.4,53.5,116.8z"/>
	<path id="XMLID_23_" class="st0" d="M145.6,100.9c0.2-0.1,0.4,0,0.6,0.3c0.1,0.4,0,0.6-0.3,0.7c-1,0.3-2,0.6-3.1,1
		c-0.3,0.1-0.6,0.1-0.7-0.3c-0.1-0.3,0-0.6,0.4-0.7C143.4,101.6,144.5,101.3,145.6,100.9z"/>
	<path id="XMLID_22_" class="st0" d="M104.1,71.3c0.1-1,0.2-1.9,0.3-2.8c0-0.4,0.1-0.7,0.6-0.6c0.5,0,0.5,0.4,0.5,0.8
		c-0.1,0.9-0.2,1.8-0.3,2.6c-0.1,0.4,0.1,1-0.6,0.9C103.8,72.1,104.1,71.5,104.1,71.3z"/>
	<path id="XMLID_21_" class="st0" d="M145.2,120.5c0.9,0.1,1.7,0.2,2.5,0.3c0.3,0,0.6,0.1,0.6,0.5c0,0.4-0.2,0.6-0.7,0.6
		c-0.8-0.1-1.7-0.1-2.5-0.3c-0.4-0.1-1.1,0.1-1.1-0.6C144.1,120.1,144.8,120.6,145.2,120.5z"/>
	<path id="XMLID_20_" class="st0" d="M120,72.3c-0.5,1.1-1,2.2-1.5,3.3c-0.1,0.3-0.4,0.2-0.6,0.1c-0.3-0.1-0.3-0.4-0.2-0.6
		c0.4-1,0.9-2,1.4-3.1c0.1-0.3,0.3-0.4,0.6-0.3C119.8,71.9,120,72,120,72.3z"/>
	<path id="XMLID_19_" class="st0" d="M113.8,74.1c-0.4-0.1-0.7-0.3-0.5-0.8c0.4-1,0.6-1.9,1-2.9c0.1-0.3,0.2-0.6,0.6-0.5
		c0.3,0.1,0.5,0.3,0.4,0.7c-0.3,1.1-0.7,2.1-1,3.2C114.1,74,114,74.2,113.8,74.1z"/>
	<path id="XMLID_18_" class="st0" d="M146.9,126.8c-1.3-0.3-2.3-0.5-3.3-0.7c-0.2-0.1-0.5-0.1-0.5-0.4c0-0.4,0.3-0.5,0.6-0.5
		c1.1,0.2,2.3,0.4,3.4,0.7c0.3,0.1,0.3,0.3,0.3,0.6C147.3,126.9,147,126.8,146.9,126.8z"/>
	<path id="XMLID_17_" class="st0" d="M146.8,105.8c0.3,0,0.6,0,0.7,0.3c0.1,0.5-0.2,0.6-0.5,0.7c-1,0.2-2.1,0.5-3.1,0.7
		c-0.3,0.1-0.6-0.1-0.6-0.4c-0.1-0.4,0.1-0.5,0.5-0.6C144.7,106.2,145.7,106,146.8,105.8z"/>
	<path id="XMLID_16_" class="st0" d="M109.3,72.9c-0.6-0.1-0.7-0.4-0.6-0.8c0.2-1,0.4-1.9,0.6-2.9c0.1-0.3,0.2-0.6,0.6-0.5
		c0.3,0,0.5,0.2,0.5,0.4c-0.2,1.2-0.5,2.4-0.8,3.6C109.5,72.8,109.4,72.8,109.3,72.9z"/>
	<path id="XMLID_15_" class="st0" d="M142.7,129.6c1,0.3,2.1,0.7,3.2,1.1c0.3,0.1,0.4,0.3,0.3,0.6c-0.1,0.3-0.3,0.4-0.5,0.4
		c-1.1-0.3-2.2-0.7-3.3-1.1c-0.3-0.1-0.4-0.3-0.3-0.6C142.1,129.7,142.3,129.6,142.7,129.6z"/>
	<path id="XMLID_14_" class="st0" d="M144.8,112.1c-0.4,0.1-0.7,0.1-0.8-0.4c-0.1-0.5,0.2-0.6,0.6-0.6c1-0.1,1.9-0.2,2.9-0.3
		c0.4,0,0.7,0,0.7,0.5c0,0.4-0.3,0.5-0.6,0.5C146.7,111.9,145.7,112,144.8,112.1z"/>
	<path id="XMLID_13_" class="st0" d="M141,98.5c-0.4,0.1-0.5-0.1-0.6-0.3c-0.2-0.3-0.1-0.5,0.2-0.6c1.1-0.5,2.1-0.9,3.2-1.4
		c0.3-0.1,0.5,0,0.6,0.3c0.1,0.3,0,0.5-0.2,0.6C143,97.6,142,98.1,141,98.5z"/>
	<path id="XMLID_12_" class="st0" d="M129.8,83.5c-0.1-0.1-0.2-0.2-0.4-0.3c-0.2-0.2-0.1-0.4,0.1-0.6c0.7-0.8,1.4-1.6,2.2-2.4
		c0.2-0.2,0.4-0.4,0.6-0.1c0.1,0.1,0.3,0.3,0.3,0.5C132.7,80.7,130.1,83.4,129.8,83.5z"/>
	<path id="XMLID_11_" class="st0" d="M136.3,84.1c-0.6,0.6-1.2,1.2-1.9,1.7c-0.5,0.3-0.9,1.5-1.5,0.8c-0.6-0.7,0.5-1,0.9-1.5
		c0.4-0.5,1-0.9,1.5-1.4c0.2-0.2,0.4-0.4,0.6-0.1C136,83.7,136.1,83.9,136.3,84.1z"/>
	<path id="XMLID_10_" class="st0" d="M138.6,94.3c-0.1-0.1-0.2-0.2-0.3-0.3c-0.2-0.3,0-0.5,0.2-0.6c1-0.6,1.9-1.1,2.9-1.7
		c0.2-0.1,0.5-0.1,0.6,0.1c0.1,0.2,0.1,0.4,0.1,0.5C142,92.6,138.9,94.3,138.6,94.3z"/>
	<path id="XMLID_9_" class="st0" d="M122.3,78c-0.4-0.2-0.8-0.3-0.6-0.7c0.6-1,1.2-2,1.7-3c0.1-0.2,0.3-0.3,0.6-0.2
		c0.3,0.2,0.5,0.3,0.3,0.7c-0.6,1-1.1,1.9-1.7,2.9C122.6,77.8,122.5,77.9,122.3,78z"/>
	<path id="XMLID_8_" class="st0" d="M126.2,80.5c-0.5-0.1-0.7-0.4-0.4-0.8c0.6-0.9,1.2-1.7,1.9-2.6c0.2-0.2,0.3-0.4,0.6-0.2
		c0.2,0.1,0.5,0.4,0.3,0.6c-0.7,1-1.4,2-2.1,2.9C126.5,80.4,126.3,80.4,126.2,80.5z"/>
	<path id="XMLID_7_" class="st0" d="M139.3,87.9c0,0.3-0.2,0.4-0.4,0.6c-0.8,0.6-1.6,1.1-2.4,1.7c-0.3,0.2-0.6,0.4-0.9,0
		c-0.3-0.4,0-0.6,0.2-0.8c0.8-0.6,1.6-1.1,2.4-1.7C138.8,87.4,139.1,87.3,139.3,87.9z"/>
	<path id="XMLID_6_" class="st0" d="M136.1,142.1c0.2,0,3.1,2.1,3.1,2.3c0,0.2,0,0.4-0.1,0.5c-0.2,0.3-0.4,0.2-0.6,0
		c-0.9-0.7-1.8-1.3-2.7-2c-0.2-0.2-0.3-0.4-0.1-0.6C135.8,142.3,135.9,142.1,136.1,142.1z"/>
	<path id="XMLID_5_" class="st0" d="M138.9,138.2c0.9,0.5,2,1.1,3,1.8c0.2,0.1,0.2,0.4,0.1,0.6c-0.2,0.2-0.4,0.3-0.6,0.2
		c-1-0.6-2-1.1-3-1.7c-0.3-0.2-0.2-0.4,0-0.6C138.4,138.3,138.6,138.1,138.9,138.2z"/>
	<path id="XMLID_4_" class="st0" d="M144.3,135.9c-0.1,0.5-0.4,0.5-0.8,0.4c-1-0.4-2-0.9-2.9-1.3c-0.2-0.1-0.4-0.2-0.3-0.6
		c0.1-0.2,0.3-0.5,0.5-0.4c1.1,0.4,2.1,0.9,3.2,1.4C144.3,135.5,144.4,135.7,144.3,135.9z"/>
	<path id="XMLID_3_" class="st0" d="M133.1,145.8c0.5,0,3.1,2.4,3,2.8c-0.1,0.4-0.3,0.7-0.7,0.4c-0.9-0.7-1.8-1.5-2.6-2.3
		c-0.1-0.1-0.2-0.3-0.1-0.5C132.9,145.9,133,145.8,133.1,145.8z"/>
	<path id="XMLID_2_" class="st0" d="M146.1,116.7c-0.5-0.3-1.7,0.6-1.7-0.5c0-0.8,1.2-0.3,1.9-0.4c0.5-0.1,1.1,0,1.6,0
		c0.3,0,0.6,0.1,0.6,0.5c0,0.4-0.3,0.5-0.6,0.5C147.3,116.7,146.8,116.7,146.1,116.7z"/>
	<path id="XMLID_1_" class="st0" d="M100.1,114.5c1.1,0.1,1.7,0.7,1.7,1.8c0,1.1-0.7,1.7-1.8,1.7c-1,0-1.7-0.7-1.7-1.8
		C98.3,115.1,99,114.6,100.1,114.5z"/>
</g>
</svg>
