<?xml version="1.0" encoding="utf-8"?>
<!-- Generator: Adobe Illustrator 19.0.0, SVG Export Plug-In . SVG Version: 6.00 Build 0)  -->
<svg version="1.1" id="Layer_1" xmlns="http://www.w3.org/2000/svg" xmlns:xlink="http://www.w3.org/1999/xlink" x="0px" y="0px"
	 viewBox="-37 -2 21 60" style="enable-background:new -37 -2 21 60;" xml:space="preserve">
<style type="text/css">
	.st0{fill:#0070C9;}
	.st1{fill:#ADADAD;}
</style>
<g id="Global_Nav_Large_Icons">
	<path id="Suggested_Search_-_Hover_1_" class="st0" d="M-19,50.3l-4.3-4.3c0.8-1,1.3-2.2,1.3-3.5c0-3-2.5-5.5-5.5-5.5
		s-5.5,2.5-5.5,5.5s2.5,5.5,5.5,5.5c1.3,0,2.6-0.5,3.5-1.3l4.3,4.3L-19,50.3z M-32,42.5c0-2.5,2-4.5,4.5-4.5s4.5,2,4.5,4.5
		s-2,4.5-4.5,4.5S-32,45-32,42.5z"/>
	<path id="Suggested_Search_1_" class="st1" d="M-19,20.3l-4.3-4.3c0.8-1,1.3-2.2,1.3-3.5c0-3-2.5-5.5-5.5-5.5S-33,9.5-33,12.5
		s2.5,5.5,5.5,5.5c1.3,0,2.6-0.5,3.5-1.3l4.3,4.3L-19,20.3z M-32,12.5C-32,10-30,8-27.5,8s4.5,2,4.5,4.5s-2,4.5-4.5,4.5
		S-32,15-32,12.5z"/>
</g>
</svg>
