<?xml version="1.0" encoding="utf-8"?>
<!-- Generator: Adobe Illustrator 19.0.0, SVG Export Plug-In . SVG Version: 6.00 Build 0)  -->
<svg version="1.1" id="Layer_1" xmlns="http://www.w3.org/2000/svg" xmlns:xlink="http://www.w3.org/1999/xlink" x="0px" y="0px"
	 viewBox="-38 -17 18 90" style="enable-background:new -38 -17 18 90;" xml:space="preserve">
<style type="text/css">
	.st0{fill:#66BBFF;}
	.st1{fill:#A2A2A2;}
</style>
<g id="Global_Nav_Small_Icons">
	<path id="Suggested_Search_-_Hover" class="st0" d="M-21,57.3l-4.6-4.6c1-1.1,1.6-2.6,1.6-4.2c0-3.6-2.9-6.5-6.5-6.5
		s-6.5,2.9-6.5,6.5s2.9,6.5,6.5,6.5c1.6,0,3.1-0.6,4.2-1.6l4.6,4.6L-21,57.3z M-36,48.5c0-3,2.5-5.5,5.5-5.5s5.5,2.5,5.5,5.5
		s-2.5,5.5-5.5,5.5S-36,51.5-36,48.5z"/>
	<path id="Suggested_Search" class="st1" d="M-21,12.3l-4.6-4.6c1-1.1,1.6-2.6,1.6-4.2c0-3.6-2.9-6.5-6.5-6.5S-37-0.1-37,3.5
		s2.9,6.5,6.5,6.5c1.6,0,3.1-0.6,4.2-1.6l4.6,4.6L-21,12.3z M-36,3.5c0-3,2.5-5.5,5.5-5.5S-25,0.5-25,3.5S-27.5,9-30.5,9
		S-36,6.5-36,3.5z"/>
</g>
</svg>
