<?xml version="1.0" encoding="utf-8"?>
<!-- Generator: Adobe Illustrator 19.0.0, SVG Export Plug-In . SVG Version: 6.00 Build 0)  -->
<svg version="1.1" id="Layer_1" xmlns="http://www.w3.org/2000/svg" xmlns:xlink="http://www.w3.org/1999/xlink" x="0px" y="0px"
	 viewBox="-37 7 20 44" style="enable-background:new -37 7 20 44;" xml:space="preserve">
<g id="FPO">
</g>
<g id="Global_Nav_Small_Icons">
</g>
<g id="Global_Nav_Small_1_">
</g>
<g id="Bag">
</g>
<g id="Global_Nav_Large_Icons">
	<path id="Search_1_" d="M-19.5,35.8l-4.4-4.4c0.9-1,1.4-2.4,1.4-3.9c0-3.3-2.7-6-6-6s-6,2.7-6,6c0,3.3,2.7,6,6,6
		c1.5,0,2.8-0.5,3.9-1.4l4.4,4.4L-19.5,35.8z M-28.5,32.5c-2.8,0-5-2.2-5-5c0-2.8,2.2-5,5-5c2.8,0,5,2.2,5,5
		C-23.5,30.3-25.7,32.5-28.5,32.5z"/>
</g>
<g id="Global_Nav_Large_1_">
</g>
<g id="Guides">
</g>
<g id="NOTES">
</g>
</svg>
