<?xml version="1.0" encoding="utf-8"?>
<!-- Generator: Adobe Illustrator 19.0.0, SVG Export Plug-In . SVG Version: 6.00 Build 0)  -->
<svg version="1.1" id="Layer_1" xmlns="http://www.w3.org/2000/svg" xmlns:xlink="http://www.w3.org/1999/xlink" x="0px" y="0px"
	 viewBox="-36 5 22 48" style="enable-background:new -36 5 22 48;" xml:space="preserve">
<style type="text/css">
	.st0{display:none;}
</style>
<g id="FPO">
</g>
<g id="Global_Nav_Small_Icons">
	<path id="Search" d="M-16,37.3l-5.7-5.7c1.1-1.2,1.7-2.8,1.7-4.6c0-3.9-3.1-7-7-7s-7,3.1-7,7s3.1,7,7,7c1.8,0,3.3-0.7,4.6-1.7
		l5.7,5.7L-16,37.3z M-27,33c-3.3,0-6-2.7-6-6c0-3.3,2.7-6,6-6s6,2.7,6,6C-21,30.3-23.7,33-27,33z"/>
</g>
<g id="Global_Nav_Small_1_">
</g>
<g id="Bag">
</g>
<g id="Global_Nav_Large_Icons">
</g>
<g id="Global_Nav_Large_1_">
</g>
<g id="Guides" class="st0">
</g>
<g id="NOTES" class="st0">
</g>
</svg>
