<?xml version="1.0" encoding="UTF-8" standalone="no"?><!DOCTYPE svg PUBLIC "-//W3C//DTD SVG 1.1//EN" "http://www.w3.org/Graphics/SVG/1.1/DTD/svg11.dtd"><svg width="100%" height="100%" viewBox="0 0 500 404" version="1.1" xmlns="http://www.w3.org/2000/svg" xmlns:xlink="http://www.w3.org/1999/xlink" xml:space="preserve" style="fill-rule:evenodd;clip-rule:evenodd;stroke-linejoin:round;stroke-miterlimit:1.41421;"><path id="ring" d="M250.651,0.001l0.65,0.003l0.65,0.005l0.65,0.007l0.649,0.01l0.649,0.011l0.648,0.013l0.648,0.016l0.648,0.017l0.647,0.02l0.646,0.021l0.647,0.024l0.645,0.025l0.646,0.028l0.644,0.03l0.645,0.031l0.644,0.034l0.643,0.036l0.643,0.038l0.642,0.039l0.642,0.042l0.642,0.044l0.641,0.046l0.64,0.047l0.64,0.05l0.639,0.052l0.639,0.054l0.639,0.056l0.638,0.057l0.637,0.06l0.637,0.062l0.636,0.063l0.636,0.066l0.635,0.068l0.635,0.069l0.634,0.072l0.634,0.073l0.633,0.076l0.632,0.077l0.632,0.08l0.632,0.081l0.631,0.083l0.63,0.086l0.629,0.087l0.629,0.089l0.629,0.091l0.628,0.093l0.627,0.095l0.627,0.097l0.626,0.099l0.625,0.101l0.625,0.102l0.624,0.105l0.624,0.106l0.623,0.109l0.622,0.11l0.622,0.112l0.621,0.114l0.62,0.116l0.62,0.118l0.619,0.12l0.618,0.121l0.618,0.124l0.618,0.125l0.616,0.128l0.616,0.129l0.615,0.131l0.615,0.133l0.614,0.135l0.612,0.136l0.613,0.139l0.612,0.14l0.611,0.142l0.61,0.144l0.61,0.146l0.609,0.148l0.608,0.15l0.608,0.151l0.606,0.153l0.606,0.155l0.606,0.157l0.605,0.159l0.603,0.161l0.604,0.162l0.602,0.164l0.602,0.166l0.601,0.168l0.6,0.17l0.6,0.171l0.598,0.173l0.598,0.175l0.597,0.177l0.597,0.179l0.595,0.18l0.595,0.182l0.594,0.184l0.594,0.186l0.592,0.187l0.592,0.19l0.591,0.191l0.59,0.192l0.589,0.195l0.589,0.196l0.587,0.198l0.587,0.2l0.587,0.202l0.585,0.203l0.584,0.205l0.584,0.207l0.583,0.208l0.582,0.21l0.581,0.212l0.58,0.214l0.58,0.215l0.579,0.218l0.577,0.218l0.577,0.221l0.576,0.222l0.575,0.224l0.575,0.226l0.573,0.227l0.573,0.229l0.572,0.231l0.571,0.232l0.57,0.234l0.569,0.236l0.568,0.238l0.567,0.239l0.567,0.24l0.566,0.243l0.564,0.244l0.564,0.246l0.563,0.247l0.562,0.249l0.561,0.251l0.56,0.253l0.56,0.254l0.558,0.255l0.557,0.258l0.557,0.259l0.555,0.26l0.555,0.262l0.554,0.264l0.552,0.266l0.552,0.267l0.551,0.269l0.55,0.27l0.549,0.272l0.548,0.273l0.547,0.275l0.546,0.277l0.545,0.278l0.544,0.28l0.543,0.282l0.543,0.283l0.541,0.285l0.54,0.286l0.539,0.288l0.538,0.289l0.538,0.291l0.536,0.293l0.535,0.294l0.534,0.295l0.534,0.298l0.533,0.299l0.531,0.3l0.53,0.302l0.529,0.303l0.528,0.305l0.528,0.307l0.526,0.308l0.525,0.309l0.524,0.311l0.523,0.313l0.523,0.314l0.521,0.316l0.52,0.317l0.519,0.319l0.517,0.32l0.517,0.322l0.516,0.323l0.515,0.325l0.514,0.326l0.513,0.328l0.511,0.329l0.511,0.33l0.509,0.332l0.508,0.334l0.508,0.335l0.506,0.337l0.505,0.338l0.504,0.34l0.503,0.34l0.502,0.343l0.501,0.344l0.5,0.345l0.498,0.347l0.498,0.349l0.496,0.35l0.495,0.351l0.495,0.352l0.493,0.354l0.491,0.356l0.492,0.357l0.489,0.358l0.488,0.36l0.488,0.361l0.487,0.363l0.485,0.364l0.483,0.365l0.483,0.367l0.482,0.369l0.481,0.369l0.479,0.372l0.479,0.372l0.477,0.374l0.475,0.375l0.476,0.377l0.473,0.378l0.473,0.38l0.471,0.38l0.47,0.382l0.469,0.384l0.468,0.385l0.467,0.387l0.465,0.387l0.464,0.389l0.464,0.391l0.461,0.391l0.46,0.393l0.461,0.395l0.458,0.396l0.457,0.397l0.456,0.399l0.455,0.4l0.453,0.4l0.452,0.403l0.451,0.404l0.45,0.405l0.449,0.407l0.446,0.407l0.447,0.41l0.445,0.41l0.443,0.412l0.443,0.413l0.441,0.415l0.44,0.415l0.438,0.417l0.438,0.419l0.436,0.419l0.435,0.42l0.433,0.423l0.433,0.424l0.431,0.425l0.43,0.425l0.428,0.427l0.428,0.429l0.426,0.43l0.424,0.431l0.424,0.432l0.422,0.434l0.421,0.435l0.42,0.437l0.418,0.437l0.417,0.438l0.416,0.44l0.414,0.441l0.413,0.443l0.412,0.443l0.41,0.445l0.409,0.446l0.408,0.448l0.407,0.448l0.405,0.45l0.404,0.451l0.403,0.452l0.401,0.454l0.4,0.454l0.398,0.456l0.397,0.457l0.396,0.459l0.394,0.459l0.394,0.461l0.391,0.462l0.391,0.463l0.389,0.464l0.388,0.465l0.386,0.467l0.385,0.468l0.383,0.469l0.383,0.47l0.381,0.471l0.379,0.473l0.378,0.474l0.377,0.475l0.375,0.475l0.374,0.477l0.372,0.479l0.371,0.479l0.37,0.481l0.369,0.482l0.366,0.482l0.366,0.484l0.364,0.486l0.363,0.486l0.361,0.487l0.36,0.489l0.358,0.49l0.357,0.491l0.355,0.491l0.355,0.494l0.353,0.494l0.35,0.495l0.35,0.496l0.349,0.498l0.346,0.498l0.346,0.5l0.344,0.501l0.343,0.502l0.341,0.503l0.339,0.504l0.338,0.505l0.337,0.506l0.335,0.508l0.333,0.508l0.332,0.509l0.331,0.511l0.33,0.512l0.328,0.513l0.325,0.513l0.325,0.514l0.324,0.517l0.321,0.517l0.32,0.517l0.319,0.519l0.317,0.521l0.316,0.52l0.314,0.523l0.313,0.523l0.311,0.524l0.309,0.525l0.308,0.526l0.307,0.528l0.305,0.528l0.303,0.529l0.302,0.53l0.3,0.531l0.299,0.533l0.298,0.534l0.295,0.533l0.294,0.535l0.293,0.537l0.291,0.538l0.289,0.538l0.288,0.54l0.286,0.539l0.285,0.541l0.283,0.542l0.282,0.544l0.28,0.545l0.278,0.544l0.277,0.546l0.275,0.547l0.273,0.548l0.272,0.549l0.27,0.55l0.269,0.551l0.267,0.552l0.266,0.553l0.264,0.554l0.262,0.554l0.26,0.555l0.259,0.557l0.258,0.557l0.255,0.559l0.254,0.559l0.253,0.56l0.251,0.562l0.249,0.561l0.247,0.563l0.246,0.564l0.244,0.564l0.243,0.566l0.24,0.566l0.239,0.568l0.238,0.569l0.236,0.568l0.234,0.57l0.232,0.571l0.231,0.572l0.229,0.572l0.227,0.574l0.226,0.575l0.224,0.575l0.222,0.576l0.22,0.576l0.219,0.578l0.218,0.58l0.215,0.579l0.214,0.58l0.211,0.581l0.211,0.582l0.208,0.583l0.207,0.584l0.205,0.584l0.203,0.585l0.202,0.587l0.2,0.586l0.198,0.588l0.196,0.589l0.194,0.589l0.194,0.591l0.191,0.591l0.189,0.591l0.187,0.592l0.186,0.593l0.184,0.595l0.182,0.596l0.18,0.595l0.179,0.596l0.177,0.597l0.175,0.598l0.173,0.598l0.171,0.6l0.17,0.6l0.168,0.6l0.166,0.603l0.164,0.603l0.162,0.602l0.161,0.604l0.159,0.605l0.157,0.606l0.155,0.605l0.153,0.607l0.151,0.608l0.15,0.608l0.148,0.609l0.146,0.61l0.144,0.61l0.142,0.611l0.14,0.612l0.139,0.612l0.136,0.614l0.135,0.614l0.133,0.614l0.131,0.615l0.129,0.616l0.128,0.616l0.125,0.618l0.123,0.617l0.122,0.618l0.12,0.621l0.118,0.619l0.116,0.62l0.114,0.621l0.112,0.622l0.111,0.623l0.108,0.623l0.106,0.622l0.105,0.625l0.103,0.625l0.1,0.625l0.099,0.626l0.097,0.627l0.095,0.628l0.093,0.627l0.091,0.628l0.089,0.629l0.087,0.63l0.086,0.631l0.083,0.631l0.081,0.631l0.08,0.631l0.077,0.633l0.076,0.634l0.073,0.632l0.072,0.634l0.069,0.636l0.068,0.635l0.066,0.636l0.063,0.636l0.062,0.636l0.06,0.638l0.057,0.638l0.056,0.639l0.054,0.639l0.052,0.638l0.05,0.641l0.047,0.64l0.046,0.641l0.044,0.642l0.042,0.642l0.039,0.642l0.038,0.643l0.036,0.643l0.034,0.644l0.031,0.645l0.03,0.645l0.028,0.645l0.025,0.645l0.024,0.646l0.021,0.647l0.02,0.648l0.017,0.646l0.016,0.648l0.013,0.649l0.011,0.649l0.01,0.649l0.007,0.65l0.005,0.65l0.003,0.65l0.001,0.651l-0.001,0.651l-0.003,0.65l-0.005,0.65l-0.007,0.65l-0.01,0.649l-0.011,0.649l-0.013,0.649l-0.016,0.648l-0.017,0.646l-0.02,0.648l-0.021,0.647l-0.024,0.646l-0.025,0.645l-0.028,0.645l-0.03,0.645l-0.031,0.645l-0.034,0.644l-0.036,0.643l-0.038,0.643l-0.039,0.642l-0.042,0.642l-0.044,0.642l-0.046,0.641l-0.047,0.64l-0.05,0.641l-0.052,0.638l-0.054,0.639l-0.056,0.639l-0.057,0.638l-0.06,0.638l-0.062,0.636l-0.063,0.636l-0.066,0.636l-0.068,0.635l-0.069,0.636l-0.072,0.634l-0.073,0.632l-0.076,0.634l-0.077,0.633l-0.08,0.631l-0.081,0.631l-0.083,0.631l-0.086,0.631l-0.087,0.63l-0.089,0.629l-0.091,0.628l-0.093,0.627l-0.095,0.628l-0.097,0.627l-0.099,0.626l-0.1,0.625l-0.103,0.625l-0.105,0.625l-0.106,0.622l-0.108,0.623l-0.111,0.623l-0.112,0.622l-0.114,0.621l-0.116,0.62l-0.118,0.619l-0.12,0.621l-0.122,0.618l-0.123,0.617l-0.125,0.618l-0.128,0.616l-0.129,0.616l-0.131,0.615l-0.133,0.614l-0.135,0.614l-0.136,0.614l-0.139,0.612l-0.14,0.612l-0.142,0.611l-0.144,0.61l-0.146,0.61l-0.148,0.609l-0.15,0.608l-0.151,0.608l-0.153,0.607l-0.155,0.605l-0.157,0.606l-0.159,0.605l-0.161,0.604l-0.162,0.602l-0.164,0.603l-0.166,0.603l-0.168,0.6l-0.17,0.6l-0.171,0.6l-0.173,0.598l-0.175,0.598l-0.177,0.597l-0.179,0.596l-0.18,0.595l-0.182,0.596l-0.184,0.595l-0.186,0.593l-0.187,0.592l-0.189,0.591l-0.191,0.591l-0.194,0.591l-0.194,0.589l-0.196,0.589l-0.198,0.588l-0.2,0.586l-0.202,0.587l-0.203,0.585l-0.205,0.584l-0.207,0.584l-0.208,0.583l-0.211,0.582l-0.211,0.581l-0.214,0.58l-0.215,0.579l-0.218,0.58l-0.219,0.578l-0.22,0.576l-0.222,0.576l-0.224,0.575l-0.226,0.575l-0.227,0.574l-0.229,0.572l-0.231,0.572l-0.232,0.571l-0.234,0.57l-0.236,0.568l-0.238,0.57l-0.239,0.567l-0.24,0.566l-0.243,0.566l-0.244,0.564l-0.246,0.564l-0.247,0.563l-0.249,0.561l-0.251,0.562l-0.253,0.561l-0.254,0.559l-0.255,0.558l-0.258,0.557l-0.259,0.557l-0.26,0.555l-0.262,0.554l-0.264,0.555l-0.266,0.552l-0.267,0.552l-0.269,0.551l-0.27,0.55l-0.272,0.549l-0.273,0.548l-0.275,0.547l-0.277,0.546l-0.278,0.544l-0.28,0.545l-0.282,0.543l-0.283,0.543l-0.285,0.541l-0.286,0.539l-0.287,0.54l-0.29,0.538l-0.291,0.538l-0.293,0.537l-0.294,0.535l-0.295,0.533l-0.298,0.534l-0.299,0.533l-0.3,0.531l-0.302,0.53l-0.303,0.529l-0.305,0.528l-0.307,0.528l-0.308,0.526l-0.309,0.525l-0.311,0.524l-0.313,0.523l-0.314,0.523l-0.315,0.52l-0.318,0.521l-0.319,0.519l-0.319,0.517l-0.322,0.517l-0.324,0.517l-0.324,0.514l-0.327,0.513l-0.328,0.514l-0.329,0.511l-0.331,0.511l-0.331,0.509l-0.334,0.508l-0.335,0.508l-0.337,0.506l-0.338,0.505l-0.339,0.504l-0.341,0.503l-0.343,0.502l-0.344,0.501l-0.346,0.5l-0.346,0.498l-0.349,0.498l-0.35,0.496l-0.35,0.495l-0.353,0.495l-0.355,0.493l-0.355,0.491l-0.357,0.491l-0.358,0.49l-0.36,0.488l-0.361,0.488l-0.363,0.486l-0.364,0.486l-0.365,0.483l-0.367,0.483l-0.369,0.482l-0.369,0.481l-0.372,0.48l-0.372,0.478l-0.374,0.477l-0.375,0.475l-0.377,0.475l-0.378,0.474l-0.38,0.473l-0.38,0.471l-0.382,0.47l-0.384,0.469l-0.385,0.468l-0.387,0.467l-0.387,0.465l-0.389,0.464l-0.391,0.463l-0.391,0.462l-0.393,0.461l-0.395,0.459l-0.396,0.459l-0.397,0.457l-0.399,0.456l-0.399,0.454l-0.401,0.453l-0.403,0.453l-0.404,0.451l-0.405,0.45l-0.407,0.448l-0.407,0.448l-0.41,0.446l-0.41,0.445l-0.412,0.443l-0.413,0.443l-0.415,0.441l-0.415,0.44l-0.417,0.438l-0.418,0.438l-0.42,0.436l-0.42,0.435l-0.423,0.434l-0.424,0.432l-0.425,0.431l-0.425,0.429l-0.428,0.429l-0.429,0.428l-0.429,0.425l-0.431,0.425l-0.432,0.424l-0.434,0.423l-0.435,0.42l-0.436,0.42l-0.438,0.418l-0.438,0.417l-0.44,0.415l-0.441,0.415l-0.443,0.413l-0.443,0.412l-0.445,0.41l-0.446,0.41l-0.448,0.407l-0.448,0.407l-0.45,0.405l-0.451,0.404l-0.453,0.403l-0.453,0.401l-0.454,0.399l-0.456,0.399l-0.457,0.397l-0.459,0.396l-0.459,0.395l-0.461,0.393l-0.462,0.391l-0.463,0.391l-0.464,0.389l-0.465,0.387l-0.467,0.387l-0.468,0.385l-0.469,0.384l-0.47,0.382l-0.471,0.38l-0.473,0.38l-0.474,0.378l-0.475,0.377l-0.475,0.375l-0.477,0.374l-0.478,0.372l-0.48,0.372l-0.481,0.369l-0.482,0.369l-0.483,0.367l-0.483,0.365l-0.486,0.364l-0.486,0.363l-0.488,0.361l-0.488,0.36l-0.49,0.358l-0.491,0.357l-0.491,0.355l-0.493,0.355l-0.495,0.353l-0.495,0.35l-0.496,0.35l-0.498,0.349l-0.498,0.346l-0.5,0.346l-0.501,0.344l-0.502,0.343l-0.503,0.341l-0.504,0.339l-0.505,0.338l-0.506,0.337l-0.508,0.335l-0.508,0.334l-0.509,0.331l-0.511,0.331l-0.511,0.329l-0.514,0.328l-0.513,0.327l-0.514,0.324l-0.517,0.324l-0.517,0.322l-0.517,0.319l-0.519,0.319l-0.521,0.318l-0.52,0.315l-0.523,0.314l-0.523,0.313l-0.524,0.311l-0.525,0.309l-0.526,0.308l-0.528,0.307l-0.528,0.305l-0.529,0.303l-0.53,0.302l-0.531,0.3l-0.533,0.299l-0.534,0.298l-0.533,0.295l-0.535,0.294l-0.537,0.293l-0.538,0.291l-0.538,0.29l-0.54,0.287l-0.539,0.286l-0.541,0.285l-0.543,0.283l-0.543,0.282l-0.545,0.28l-0.544,0.278l-0.546,0.277l-0.547,0.275l-0.548,0.273l-0.549,0.272l-0.55,0.27l-0.551,0.269l-0.552,0.267l-0.552,0.266l-0.555,0.264l-0.554,0.262l-0.555,0.26l-0.557,0.259l-0.557,0.258l-0.558,0.255l-0.559,0.254l-0.561,0.253l-0.562,0.251l-0.561,0.249l-0.563,0.247l-0.564,0.246l-0.564,0.244l-0.566,0.243l-0.566,0.24l-0.567,0.239l-0.57,0.238l-0.568,0.236l-0.57,0.234l-0.571,0.232l-0.572,0.231l-0.572,0.229l-0.574,0.227l-0.575,0.226l-0.575,0.224l-0.576,0.222l-0.576,0.22l-0.578,0.219l-0.58,0.218l-0.579,0.215l-0.58,0.214l-0.581,0.211l-0.582,0.211l-0.583,0.208l-0.584,0.207l-0.584,0.205l-0.585,0.203l-0.587,0.202l-0.586,0.2l-0.588,0.198l-0.589,0.196l-0.589,0.194l-0.591,0.193l-0.591,0.192l-0.591,0.189l-0.592,0.187l-0.593,0.186l-0.595,0.184l-0.596,0.182l-0.595,0.18l-0.595,0.179l-0.598,0.177l-0.598,0.175l-0.598,0.173l-0.6,0.171l-0.6,0.17l-0.601,0.168l-0.602,0.166l-0.603,0.164l-0.602,0.162l-0.604,0.161l-0.605,0.159l-0.606,0.157l-0.605,0.155l-0.607,0.153l-0.608,0.151l-0.608,0.15l-0.609,0.148l-0.61,0.146l-0.61,0.144l-0.611,0.142l-0.612,0.14l-0.612,0.139l-0.613,0.136l-0.615,0.135l-0.614,0.133l-0.615,0.131l-0.616,0.129l-0.616,0.128l-0.618,0.125l-0.617,0.123l-0.618,0.122l-0.621,0.12l-0.619,0.118l-0.62,0.116l-0.621,0.114l-0.622,0.112l-0.623,0.111l-0.623,0.108l-0.623,0.106l-0.624,0.105l-0.625,0.103l-0.625,0.1l-0.626,0.099l-0.627,0.097l-0.628,0.095l-0.627,0.093l-0.628,0.091l-0.629,0.089l-0.63,0.087l-0.631,0.086l-0.631,0.083l-0.631,0.081l-0.631,0.08l-0.633,0.077l-0.634,0.076l-0.632,0.073l-0.634,0.072l-0.636,0.069l-0.635,0.068l-0.636,0.066l-0.636,0.063l-0.636,0.062l-0.638,0.06l-0.638,0.057l-0.639,0.056l-0.639,0.054l-0.638,0.052l-0.641,0.05l-0.64,0.047l-0.641,0.046l-0.642,0.044l-0.642,0.042l-0.642,0.039l-0.643,0.038l-0.643,0.036l-0.644,0.034l-0.645,0.031l-0.645,0.03l-0.645,0.028l-0.645,0.025l-0.646,0.024l-0.647,0.021l-0.648,0.02l-0.646,0.017l-0.648,0.016l-0.649,0.013l-0.649,0.011l-0.649,0.01l-0.65,0.007l-0.65,0.005l-0.65,0.003l-0.651,0.001l-0.651,-0.001l-0.65,-0.003l-0.65,-0.005l-0.65,-0.007l-0.649,-0.01l-0.649,-0.011l-0.649,-0.013l-0.648,-0.016l-0.646,-0.017l-0.648,-0.02l-0.647,-0.021l-0.646,-0.024l-0.645,-0.025l-0.645,-0.028l-0.645,-0.03l-0.645,-0.031l-0.644,-0.034l-0.643,-0.036l-0.643,-0.038l-0.642,-0.039l-0.642,-0.042l-0.642,-0.044l-0.641,-0.046l-0.64,-0.047l-0.641,-0.05l-0.638,-0.052l-0.639,-0.054l-0.639,-0.056l-0.638,-0.057l-0.638,-0.06l-0.636,-0.062l-0.636,-0.063l-0.636,-0.066l-0.635,-0.068l-0.636,-0.069l-0.634,-0.072l-0.632,-0.073l-0.634,-0.076l-0.633,-0.077l-0.631,-0.08l-0.631,-0.081l-0.631,-0.083l-0.631,-0.086l-0.63,-0.087l-0.629,-0.089l-0.628,-0.091l-0.627,-0.093l-0.628,-0.095l-0.627,-0.097l-0.626,-0.099l-0.625,-0.1l-0.625,-0.103l-0.625,-0.105l-0.622,-0.106l-0.623,-0.108l-0.623,-0.111l-0.622,-0.112l-0.621,-0.114l-0.62,-0.116l-0.619,-0.118l-0.621,-0.12l-0.618,-0.122l-0.617,-0.123l-0.618,-0.125l-0.616,-0.128l-0.616,-0.129l-0.615,-0.131l-0.614,-0.133l-0.614,-0.135l-0.614,-0.136l-0.612,-0.139l-0.612,-0.14l-0.611,-0.142l-0.61,-0.144l-0.61,-0.146l-0.609,-0.148l-0.608,-0.15l-0.608,-0.151l-0.607,-0.153l-0.605,-0.155l-0.606,-0.157l-0.605,-0.159l-0.604,-0.161l-0.602,-0.162l-0.603,-0.164l-0.603,-0.166l-0.6,-0.168l-0.6,-0.17l-0.6,-0.171l-0.598,-0.173l-0.598,-0.175l-0.597,-0.177l-0.596,-0.179l-0.595,-0.18l-0.596,-0.182l-0.595,-0.184l-0.593,-0.186l-0.592,-0.187l-0.591,-0.189l-0.591,-0.191l-0.591,-0.194l-0.589,-0.194l-0.589,-0.196l-0.588,-0.198l-0.586,-0.2l-0.587,-0.202l-0.585,-0.203l-0.584,-0.205l-0.584,-0.207l-0.583,-0.208l-0.582,-0.211l-0.581,-0.211l-0.58,-0.214l-0.579,-0.215l-0.58,-0.218l-0.578,-0.219l-0.576,-0.22l-0.576,-0.222l-0.575,-0.224l-0.575,-0.226l-0.574,-0.227l-0.572,-0.229l-0.572,-0.231l-0.571,-0.232l-0.57,-0.234l-0.568,-0.236l-0.569,-0.238l-0.568,-0.239l-0.566,-0.24l-0.566,-0.243l-0.564,-0.244l-0.564,-0.246l-0.563,-0.247l-0.561,-0.249l-0.562,-0.251l-0.56,-0.253l-0.559,-0.254l-0.559,-0.255l-0.557,-0.258l-0.557,-0.259l-0.555,-0.26l-0.554,-0.262l-0.554,-0.264l-0.553,-0.266l-0.552,-0.267l-0.551,-0.269l-0.55,-0.27l-0.549,-0.272l-0.548,-0.273l-0.547,-0.275l-0.546,-0.277l-0.544,-0.278l-0.545,-0.28l-0.544,-0.282l-0.542,-0.283l-0.541,-0.285l-0.539,-0.286l-0.54,-0.288l-0.539,-0.289l-0.536,-0.291l-0.537,-0.293l-0.536,-0.294l-0.533,-0.295l-0.534,-0.298l-0.533,-0.299l-0.531,-0.3l-0.53,-0.302l-0.529,-0.303l-0.528,-0.305l-0.528,-0.307l-0.526,-0.308l-0.525,-0.309l-0.524,-0.311l-0.523,-0.313l-0.523,-0.314l-0.52,-0.315l-0.52,-0.318l-0.52,-0.319l-0.517,-0.32l-0.517,-0.321l-0.517,-0.324l-0.514,-0.324l-0.513,-0.327l-0.514,-0.328l-0.511,-0.329l-0.511,-0.331l-0.509,-0.332l-0.508,-0.333l-0.508,-0.335l-0.506,-0.337l-0.505,-0.338l-0.504,-0.339l-0.503,-0.342l-0.502,-0.342l-0.501,-0.344l-0.5,-0.346l-0.498,-0.346l-0.498,-0.349l-0.496,-0.35l-0.495,-0.351l-0.494,-0.352l-0.494,-0.355l-0.491,-0.355l-0.491,-0.357l-0.49,-0.358l-0.489,-0.36l-0.487,-0.361l-0.486,-0.363l-0.486,-0.364l-0.484,-0.366l-0.482,-0.366l-0.482,-0.369l-0.481,-0.37l-0.479,-0.371l-0.479,-0.372l-0.477,-0.374l-0.475,-0.375l-0.475,-0.377l-0.474,-0.378l-0.473,-0.38l-0.471,-0.38l-0.47,-0.383l-0.469,-0.383l-0.468,-0.385l-0.467,-0.387l-0.465,-0.387l-0.464,-0.389l-0.463,-0.391l-0.463,-0.392l-0.46,-0.393l-0.459,-0.393l-0.459,-0.397l-0.457,-0.397l-0.456,-0.399l-0.454,-0.399l-0.454,-0.401l-0.452,-0.403l-0.451,-0.404l-0.45,-0.405l-0.448,-0.406l-0.448,-0.409l-0.446,-0.409l-0.445,-0.41l-0.443,-0.412l-0.443,-0.413l-0.441,-0.414l-0.44,-0.416l-0.438,-0.417l-0.437,-0.418l-0.437,-0.42l-0.435,-0.421l-0.434,-0.422l-0.432,-0.424l-0.431,-0.424l-0.43,-0.426l-0.429,-0.428l-0.427,-0.428l-0.425,-0.43l-0.425,-0.431l-0.424,-0.432l-0.423,-0.434l-0.42,-0.435l-0.419,-0.436l-0.419,-0.438l-0.417,-0.438l-0.415,-0.44l-0.415,-0.441l-0.413,-0.443l-0.412,-0.443l-0.41,-0.445l-0.41,-0.447l-0.407,-0.446l-0.407,-0.449l-0.405,-0.45l-0.404,-0.451l-0.403,-0.452l-0.4,-0.453l-0.4,-0.455l-0.399,-0.456l-0.397,-0.457l-0.396,-0.458l-0.395,-0.461l-0.393,-0.46l-0.391,-0.461l-0.391,-0.464l-0.389,-0.464l-0.387,-0.465l-0.387,-0.467l-0.385,-0.468l-0.384,-0.469l-0.382,-0.47l-0.38,-0.471l-0.38,-0.473l-0.378,-0.473l-0.377,-0.476l-0.375,-0.475l-0.374,-0.477l-0.372,-0.479l-0.372,-0.479l-0.369,-0.481l-0.369,-0.482l-0.367,-0.483l-0.365,-0.483l-0.364,-0.485l-0.363,-0.487l-0.361,-0.488l-0.36,-0.488l-0.358,-0.489l-0.357,-0.492l-0.356,-0.491l-0.354,-0.493l-0.352,-0.495l-0.351,-0.495l-0.35,-0.496l-0.349,-0.498l-0.347,-0.498l-0.345,-0.5l-0.344,-0.501l-0.342,-0.502l-0.341,-0.503l-0.34,-0.504l-0.338,-0.505l-0.337,-0.506l-0.335,-0.508l-0.334,-0.508l-0.332,-0.51l-0.33,-0.51l-0.329,-0.511l-0.328,-0.513l-0.327,-0.514l-0.324,-0.515l-0.323,-0.515l-0.322,-0.518l-0.32,-0.517l-0.319,-0.519l-0.317,-0.52l-0.316,-0.521l-0.314,-0.523l-0.313,-0.523l-0.311,-0.524l-0.309,-0.525l-0.308,-0.526l-0.307,-0.528l-0.305,-0.528l-0.303,-0.529l-0.302,-0.53l-0.3,-0.531l-0.299,-0.533l-0.298,-0.534l-0.295,-0.534l-0.294,-0.535l-0.293,-0.536l-0.291,-0.538l-0.289,-0.538l-0.288,-0.539l-0.286,-0.54l-0.285,-0.541l-0.283,-0.543l-0.282,-0.543l-0.28,-0.544l-0.278,-0.545l-0.277,-0.546l-0.275,-0.547l-0.273,-0.548l-0.272,-0.549l-0.27,-0.55l-0.269,-0.552l-0.267,-0.551l-0.266,-0.552l-0.264,-0.554l-0.262,-0.555l-0.26,-0.555l-0.259,-0.557l-0.258,-0.557l-0.255,-0.558l-0.254,-0.56l-0.253,-0.56l-0.251,-0.561l-0.249,-0.562l-0.247,-0.563l-0.246,-0.564l-0.244,-0.564l-0.243,-0.566l-0.24,-0.567l-0.239,-0.567l-0.238,-0.568l-0.236,-0.569l-0.234,-0.57l-0.232,-0.571l-0.231,-0.572l-0.229,-0.573l-0.227,-0.573l-0.226,-0.575l-0.224,-0.575l-0.222,-0.576l-0.221,-0.577l-0.218,-0.577l-0.218,-0.579l-0.215,-0.58l-0.214,-0.58l-0.212,-0.581l-0.21,-0.582l-0.208,-0.583l-0.207,-0.584l-0.205,-0.584l-0.203,-0.585l-0.202,-0.587l-0.2,-0.586l-0.198,-0.588l-0.196,-0.589l-0.195,-0.589l-0.192,-0.59l-0.191,-0.591l-0.19,-0.592l-0.187,-0.593l-0.186,-0.593l-0.184,-0.594l-0.182,-0.595l-0.18,-0.595l-0.179,-0.597l-0.177,-0.597l-0.175,-0.598l-0.173,-0.599l-0.171,-0.599l-0.17,-0.6l-0.168,-0.601l-0.166,-0.602l-0.164,-0.602l-0.162,-0.604l-0.161,-0.604l-0.159,-0.604l-0.157,-0.605l-0.155,-0.606l-0.153,-0.607l-0.151,-0.608l-0.15,-0.608l-0.148,-0.609l-0.146,-0.61l-0.144,-0.61l-0.142,-0.611l-0.14,-0.612l-0.139,-0.612l-0.136,-0.614l-0.135,-0.613l-0.133,-0.615l-0.131,-0.615l-0.129,-0.616l-0.128,-0.616l-0.125,-0.618l-0.124,-0.617l-0.121,-0.619l-0.12,-0.619l-0.118,-0.62l-0.116,-0.62l-0.114,-0.621l-0.112,-0.622l-0.11,-0.622l-0.109,-0.623l-0.106,-0.624l-0.105,-0.624l-0.102,-0.625l-0.101,-0.625l-0.099,-0.627l-0.097,-0.626l-0.095,-0.627l-0.093,-0.628l-0.091,-0.629l-0.089,-0.629l-0.087,-0.629l-0.086,-0.63l-0.083,-0.631l-0.081,-0.632l-0.08,-0.632l-0.077,-0.632l-0.076,-0.633l-0.073,-0.634l-0.072,-0.634l-0.069,-0.635l-0.068,-0.635l-0.066,-0.635l-0.063,-0.637l-0.062,-0.637l-0.06,-0.637l-0.057,-0.638l-0.056,-0.638l-0.054,-0.639l-0.052,-0.64l-0.05,-0.64l-0.047,-0.64l-0.046,-0.641l-0.044,-0.642l-0.042,-0.642l-0.039,-0.642l-0.038,-0.643l-0.036,-0.643l-0.034,-0.644l-0.031,-0.645l-0.03,-0.644l-0.028,-0.646l-0.025,-0.645l-0.024,-0.647l-0.021,-0.646l-0.02,-0.647l-0.017,-0.648l-0.016,-0.648l-0.013,-0.648l-0.011,-0.649l-0.01,-0.649l-0.007,-0.65l-0.005,-0.65l-0.003,-0.65l-0.001,-0.651l0.001,-0.651l0.003,-0.65l0.005,-0.65l0.007,-0.65l0.01,-0.649l0.011,-0.649l0.013,-0.648l0.016,-0.648l0.017,-0.648l0.02,-0.647l0.021,-0.646l0.024,-0.647l0.025,-0.645l0.028,-0.646l0.03,-0.644l0.031,-0.645l0.034,-0.644l0.036,-0.643l0.038,-0.643l0.039,-0.642l0.042,-0.642l0.044,-0.642l0.046,-0.641l0.047,-0.64l0.05,-0.64l0.052,-0.64l0.054,-0.639l0.056,-0.638l0.057,-0.638l0.06,-0.637l0.062,-0.637l0.063,-0.637l0.066,-0.635l0.068,-0.635l0.069,-0.635l0.072,-0.634l0.073,-0.634l0.076,-0.633l0.077,-0.632l0.08,-0.632l0.081,-0.632l0.083,-0.631l0.086,-0.63l0.087,-0.629l0.089,-0.629l0.091,-0.629l0.093,-0.628l0.095,-0.627l0.097,-0.626l0.099,-0.627l0.101,-0.625l0.102,-0.625l0.105,-0.624l0.106,-0.624l0.109,-0.623l0.11,-0.622l0.112,-0.622l0.114,-0.621l0.116,-0.62l0.118,-0.62l0.12,-0.619l0.121,-0.619l0.124,-0.617l0.125,-0.618l0.128,-0.616l0.129,-0.616l0.131,-0.615l0.133,-0.615l0.135,-0.613l0.136,-0.614l0.139,-0.612l0.14,-0.612l0.142,-0.611l0.144,-0.61l0.146,-0.61l0.148,-0.609l0.15,-0.608l0.151,-0.608l0.153,-0.607l0.155,-0.606l0.157,-0.605l0.159,-0.604l0.161,-0.604l0.162,-0.604l0.164,-0.602l0.166,-0.602l0.168,-0.601l0.17,-0.6l0.171,-0.599l0.173,-0.599l0.175,-0.598l0.177,-0.597l0.179,-0.597l0.18,-0.595l0.182,-0.595l0.184,-0.594l0.186,-0.593l0.187,-0.593l0.19,-0.592l0.191,-0.591l0.192,-0.59l0.195,-0.589l0.196,-0.589l0.198,-0.588l0.2,-0.586l0.202,-0.587l0.203,-0.585l0.205,-0.584l0.207,-0.584l0.208,-0.583l0.21,-0.582l0.212,-0.581l0.214,-0.58l0.215,-0.58l0.218,-0.578l0.218,-0.578l0.221,-0.577l0.222,-0.576l0.224,-0.576l0.226,-0.574l0.227,-0.573l0.229,-0.573l0.231,-0.572l0.232,-0.571l0.234,-0.57l0.236,-0.569l0.238,-0.568l0.239,-0.567l0.24,-0.567l0.243,-0.565l0.244,-0.565l0.246,-0.564l0.247,-0.563l0.249,-0.562l0.251,-0.561l0.253,-0.56l0.254,-0.559l0.255,-0.559l0.258,-0.557l0.259,-0.557l0.26,-0.555l0.262,-0.555l0.264,-0.553l0.266,-0.553l0.267,-0.552l0.268,-0.551l0.271,-0.55l0.272,-0.549l0.273,-0.548l0.275,-0.547l0.277,-0.546l0.278,-0.545l0.28,-0.544l0.282,-0.543l0.283,-0.543l0.285,-0.541l0.286,-0.54l0.288,-0.539l0.289,-0.538l0.291,-0.538l0.293,-0.536l0.294,-0.535l0.295,-0.535l0.298,-0.533l0.298,-0.532l0.301,-0.532l0.302,-0.53l0.303,-0.529l0.305,-0.528l0.307,-0.528l0.308,-0.526l0.309,-0.525l0.311,-0.524l0.313,-0.523l0.314,-0.522l0.316,-0.522l0.317,-0.52l0.319,-0.519l0.32,-0.518l0.322,-0.517l0.323,-0.515l0.325,-0.515l0.326,-0.514l0.327,-0.512l0.33,-0.512l0.33,-0.511l0.333,-0.509l0.333,-0.508l0.335,-0.508l0.337,-0.506l0.338,-0.505l0.34,-0.504l0.341,-0.503l0.342,-0.502l0.344,-0.501l0.345,-0.5l0.347,-0.498l0.349,-0.498l0.349,-0.496l0.352,-0.495l0.352,-0.494l0.354,-0.494l0.356,-0.491l0.357,-0.491l0.358,-0.49l0.36,-0.489l0.361,-0.487l0.363,-0.486l0.364,-0.486l0.365,-0.484l0.367,-0.482l0.369,-0.482l0.369,-0.481l0.371,-0.479l0.373,-0.479l0.374,-0.477l0.375,-0.476l0.377,-0.475l0.378,-0.473l0.379,-0.473l0.381,-0.471l0.383,-0.47l0.383,-0.469l0.385,-0.468l0.386,-0.467l0.388,-0.465l0.389,-0.464l0.391,-0.464l0.391,-0.461l0.393,-0.461l0.395,-0.46l0.396,-0.458l0.397,-0.457l0.398,-0.456l0.4,-0.454l0.402,-0.454l0.402,-0.452l0.404,-0.451l0.405,-0.45l0.407,-0.449l0.407,-0.447l0.41,-0.446l0.41,-0.445l0.412,-0.443l0.413,-0.443l0.414,-0.441l0.416,-0.44l0.417,-0.438l0.418,-0.438l0.42,-0.436l0.421,-0.435l0.422,-0.434l0.423,-0.432l0.425,-0.431l0.426,-0.43l0.427,-0.428l0.429,-0.428l0.43,-0.426l0.431,-0.425l0.433,-0.423l0.433,-0.422l0.435,-0.421l0.436,-0.42l0.437,-0.418l0.439,-0.417l0.44,-0.416l0.441,-0.414l0.443,-0.413l0.443,-0.412l0.445,-0.41l0.446,-0.409l0.448,-0.408l0.448,-0.407l0.45,-0.405l0.451,-0.404l0.452,-0.402l0.453,-0.401l0.455,-0.4l0.456,-0.399l0.457,-0.397l0.459,-0.396l0.459,-0.395l0.461,-0.393l0.461,-0.391l0.464,-0.391l0.464,-0.389l0.465,-0.388l0.467,-0.386l0.468,-0.385l0.469,-0.383l0.47,-0.383l0.471,-0.38l0.473,-0.38l0.473,-0.378l0.475,-0.377l0.476,-0.375l0.477,-0.374l0.479,-0.373l0.479,-0.371l0.481,-0.369l0.481,-0.369l0.483,-0.366l0.485,-0.366l0.485,-0.364l0.486,-0.363l0.487,-0.361l0.489,-0.36l0.49,-0.358l0.491,-0.357l0.491,-0.356l0.494,-0.354l0.494,-0.352l0.495,-0.351l0.496,-0.35l0.498,-0.349l0.498,-0.347l0.5,-0.345l0.501,-0.344l0.502,-0.342l0.503,-0.341l0.504,-0.34l0.505,-0.338l0.506,-0.337l0.508,-0.335l0.508,-0.333l0.509,-0.333l0.511,-0.33l0.511,-0.329l0.513,-0.328l0.514,-0.326l0.515,-0.325l0.516,-0.323l0.516,-0.322l0.518,-0.32l0.519,-0.319l0.52,-0.317l0.521,-0.316l0.523,-0.314l0.523,-0.313l0.524,-0.311l0.525,-0.309l0.526,-0.308l0.527,-0.307l0.529,-0.305l0.529,-0.303l0.53,-0.302l0.532,-0.301l0.532,-0.298l0.533,-0.298l0.535,-0.295l0.535,-0.294l0.536,-0.293l0.538,-0.291l0.538,-0.289l0.539,-0.288l0.54,-0.286l0.542,-0.285l0.542,-0.283l0.543,-0.282l0.544,-0.28l0.545,-0.278l0.546,-0.277l0.547,-0.275l0.548,-0.273l0.549,-0.272l0.55,-0.271l0.551,-0.268l0.552,-0.267l0.553,-0.266l0.553,-0.264l0.555,-0.262l0.555,-0.26l0.557,-0.259l0.557,-0.258l0.559,-0.255l0.559,-0.254l0.56,-0.253l0.561,-0.251l0.562,-0.249l0.563,-0.247l0.564,-0.246l0.565,-0.244l0.565,-0.243l0.566,-0.24l0.568,-0.239l0.568,-0.238l0.569,-0.236l0.57,-0.234l0.571,-0.232l0.572,-0.231l0.573,-0.229l0.573,-0.227l0.574,-0.226l0.576,-0.224l0.576,-0.222l0.577,-0.221l0.578,-0.218l0.578,-0.218l0.58,-0.215l0.58,-0.214l0.581,-0.212l0.582,-0.21l0.583,-0.208l0.584,-0.207l0.584,-0.205l0.585,-0.203l0.587,-0.202l0.586,-0.2l0.588,-0.198l0.589,-0.196l0.589,-0.195l0.59,-0.192l0.591,-0.191l0.592,-0.19l0.592,-0.187l0.594,-0.186l0.594,-0.184l0.595,-0.182l0.595,-0.18l0.597,-0.179l0.597,-0.177l0.598,-0.175l0.598,-0.173l0.6,-0.171l0.6,-0.17l0.601,-0.168l0.602,-0.166l0.602,-0.164l0.604,-0.162l0.604,-0.161l0.604,-0.159l0.605,-0.157l0.607,-0.155l0.606,-0.153l0.608,-0.151l0.608,-0.15l0.609,-0.148l0.61,-0.146l0.61,-0.144l0.611,-0.142l0.612,-0.14l0.613,-0.139l0.613,-0.136l0.613,-0.135l0.615,-0.133l0.615,-0.131l0.616,-0.129l0.616,-0.128l0.618,-0.125l0.618,-0.124l0.618,-0.121l0.619,-0.12l0.62,-0.118l0.62,-0.116l0.621,-0.114l0.622,-0.112l0.622,-0.11l0.623,-0.109l0.624,-0.106l0.624,-0.105l0.625,-0.102l0.625,-0.101l0.626,-0.099l0.627,-0.097l0.628,-0.095l0.627,-0.093l0.629,-0.091l0.629,-0.089l0.629,-0.087l0.63,-0.086l0.631,-0.083l0.632,-0.081l0.632,-0.08l0.632,-0.077l0.633,-0.076l0.634,-0.073l0.634,-0.072l0.635,-0.069l0.635,-0.068l0.636,-0.066l0.636,-0.063l0.637,-0.062l0.637,-0.06l0.638,-0.057l0.638,-0.056l0.64,-0.054l0.639,-0.052l0.64,-0.05l0.64,-0.047l0.641,-0.046l0.642,-0.044l0.642,-0.042l0.642,-0.039l0.643,-0.038l0.643,-0.036l0.644,-0.034l0.645,-0.031l0.644,-0.03l0.646,-0.028l0.645,-0.025l0.647,-0.024l0.646,-0.021l0.647,-0.02l0.648,-0.017l0.648,-0.016l0.648,-0.013l0.649,-0.011l0.649,-0.01l0.65,-0.007l0.65,-0.005l0.65,-0.003l0.651,-0.001l0.651,0.001Zm-1.08,70l-0.428,0.002l-0.428,0.003l-0.428,0.005l-0.427,0.006l-0.427,0.007l-0.427,0.009l-0.426,0.01l-0.425,0.012l-0.426,0.013l-0.425,0.014l-0.424,0.015l-0.424,0.017l-0.424,0.018l-0.423,0.02l-0.423,0.021l-0.423,0.022l-0.422,0.023l-0.421,0.025l-0.421,0.026l-0.421,0.027l-0.421,0.029l-0.42,0.03l-0.419,0.031l-0.419,0.033l-0.419,0.034l-0.418,0.035l-0.418,0.036l-0.418,0.038l-0.417,0.039l-0.417,0.041l-0.416,0.041l-0.416,0.043l-0.415,0.045l-0.415,0.045l-0.415,0.047l-0.414,0.048l-0.413,0.049l-0.414,0.051l-0.412,0.052l-0.413,0.053l-0.412,0.054l-0.411,0.056l-0.412,0.057l-0.41,0.058l-0.41,0.06l-0.41,0.06l-0.41,0.062l-0.408,0.063l-0.409,0.065l-0.408,0.066l-0.408,0.067l-0.407,0.068l-0.406,0.069l-0.407,0.071l-0.405,0.072l-0.406,0.073l-0.405,0.074l-0.404,0.076l-0.404,0.077l-0.404,0.078l-0.403,0.079l-0.403,0.081l-0.402,0.081l-0.401,0.083l-0.402,0.084l-0.4,0.086l-0.401,0.086l-0.4,0.088l-0.399,0.089l-0.399,0.09l-0.398,0.092l-0.398,0.093l-0.398,0.093l-0.397,0.095l-0.397,0.097l-0.396,0.097l-0.395,0.099l-0.395,0.099l-0.395,0.101l-0.394,0.103l-0.394,0.103l-0.393,0.105l-0.393,0.105l-0.392,0.107l-0.392,0.108l-0.391,0.109l-0.391,0.111l-0.39,0.111l-0.39,0.113l-0.389,0.114l-0.389,0.115l-0.388,0.117l-0.388,0.117l-0.388,0.119l-0.386,0.119l-0.386,0.121l-0.386,0.122l-0.386,0.124l-0.384,0.124l-0.384,0.125l-0.384,0.127l-0.384,0.128l-0.382,0.129l-0.382,0.13l-0.382,0.131l-0.381,0.133l-0.381,0.133l-0.38,0.135l-0.379,0.136l-0.379,0.136l-0.379,0.139l-0.378,0.139l-0.377,0.14l-0.377,0.141l-0.377,0.143l-0.375,0.144l-0.376,0.144l-0.374,0.146l-0.375,0.147l-0.373,0.148l-0.373,0.15l-0.373,0.15l-0.372,0.151l-0.371,0.153l-0.371,0.153l-0.371,0.155l-0.369,0.156l-0.369,0.157l-0.369,0.158l-0.368,0.159l-0.368,0.16l-0.367,0.162l-0.366,0.162l-0.366,0.164l-0.365,0.164l-0.365,0.166l-0.364,0.166l-0.363,0.168l-0.363,0.169l-0.362,0.17l-0.362,0.171l-0.361,0.172l-0.361,0.173l-0.36,0.175l-0.359,0.175l-0.359,0.176l-0.358,0.178l-0.358,0.178l-0.357,0.18l-0.356,0.18l-0.356,0.182l-0.355,0.183l-0.354,0.183l-0.354,0.185l-0.354,0.186l-0.352,0.187l-0.353,0.188l-0.351,0.189l-0.351,0.19l-0.35,0.191l-0.349,0.192l-0.349,0.193l-0.349,0.194l-0.348,0.195l-0.347,0.196l-0.346,0.198l-0.346,0.198l-0.345,0.199l-0.344,0.2l-0.344,0.202l-0.343,0.202l-0.343,0.203l-0.342,0.205l-0.341,0.205l-0.341,0.206l-0.34,0.208l-0.339,0.208l-0.338,0.209l-0.339,0.211l-0.337,0.211l-0.336,0.212l-0.336,0.214l-0.335,0.214l-0.335,0.215l-0.334,0.217l-0.333,0.217l-0.333,0.218l-0.332,0.219l-0.331,0.22l-0.33,0.222l-0.33,0.222l-0.329,0.223l-0.329,0.224l-0.328,0.225l-0.326,0.226l-0.327,0.227l-0.325,0.228l-0.325,0.229l-0.324,0.23l-0.324,0.231l-0.323,0.232l-0.322,0.233l-0.321,0.233l-0.32,0.235l-0.321,0.235l-0.319,0.237l-0.318,0.237l-0.318,0.239l-0.317,0.239l-0.316,0.24l-0.316,0.242l-0.314,0.242l-0.314,0.243l-0.314,0.244l-0.312,0.245l-0.312,0.246l-0.311,0.246l-0.31,0.248l-0.31,0.249l-0.309,0.249l-0.308,0.251l-0.307,0.251l-0.307,0.252l-0.305,0.253l-0.306,0.255l-0.304,0.254l-0.303,0.256l-0.303,0.257l-0.302,0.258l-0.301,0.258l-0.3,0.26l-0.3,0.26l-0.299,0.261l-0.297,0.262l-0.298,0.263l-0.296,0.264l-0.296,0.265l-0.295,0.265l-0.294,0.267l-0.293,0.267l-0.292,0.268l-0.292,0.269l-0.291,0.27l-0.29,0.271l-0.289,0.272l-0.288,0.272l-0.288,0.273l-0.287,0.275l-0.286,0.275l-0.285,0.276l-0.284,0.277l-0.284,0.277l-0.282,0.279l-0.282,0.279l-0.281,0.28l-0.28,0.281l-0.279,0.282l-0.279,0.282l-0.277,0.284l-0.277,0.284l-0.276,0.285l-0.275,0.286l-0.274,0.287l-0.274,0.288l-0.272,0.288l-0.272,0.289l-0.271,0.29l-0.27,0.291l-0.269,0.292l-0.268,0.292l-0.267,0.294l-0.267,0.293l-0.265,0.295l-0.265,0.296l-0.264,0.296l-0.263,0.297l-0.262,0.298l-0.261,0.299l-0.261,0.3l-0.259,0.3l-0.258,0.301l-0.258,0.302l-0.257,0.303l-0.256,0.303l-0.255,0.304l-0.254,0.305l-0.253,0.306l-0.252,0.307l-0.251,0.307l-0.251,0.308l-0.249,0.309l-0.249,0.309l-0.248,0.311l-0.246,0.311l-0.246,0.312l-0.245,0.312l-0.244,0.314l-0.243,0.314l-0.242,0.314l-0.241,0.316l-0.241,0.316l-0.239,0.317l-0.239,0.318l-0.237,0.318l-0.237,0.319l-0.235,0.321l-0.235,0.32l-0.233,0.321l-0.233,0.322l-0.232,0.323l-0.231,0.324l-0.23,0.324l-0.229,0.325l-0.228,0.325l-0.227,0.327l-0.226,0.327l-0.225,0.327l-0.224,0.329l-0.223,0.329l-0.222,0.33l-0.222,0.33l-0.22,0.331l-0.219,0.332l-0.218,0.333l-0.217,0.333l-0.217,0.334l-0.215,0.334l-0.214,0.336l-0.214,0.336l-0.212,0.336l-0.211,0.338l-0.211,0.338l-0.209,0.338l-0.208,0.339l-0.208,0.34l-0.206,0.341l-0.205,0.341l-0.205,0.342l-0.203,0.343l-0.202,0.343l-0.202,0.344l-0.2,0.344l-0.199,0.345l-0.198,0.346l-0.198,0.346l-0.196,0.347l-0.195,0.348l-0.194,0.349l-0.193,0.348l-0.192,0.35l-0.191,0.35l-0.19,0.351l-0.189,0.352l-0.188,0.351l-0.187,0.353l-0.186,0.354l-0.185,0.354l-0.183,0.354l-0.183,0.355l-0.182,0.356l-0.18,0.357l-0.18,0.356l-0.178,0.358l-0.178,0.358l-0.176,0.359l-0.175,0.359l-0.175,0.36l-0.173,0.361l-0.172,0.361l-0.171,0.362l-0.17,0.362l-0.169,0.363l-0.168,0.363l-0.166,0.364l-0.166,0.365l-0.164,0.365l-0.164,0.366l-0.162,0.366l-0.162,0.367l-0.16,0.368l-0.159,0.368l-0.158,0.369l-0.157,0.369l-0.156,0.369l-0.155,0.371l-0.153,0.371l-0.153,0.371l-0.151,0.372l-0.15,0.373l-0.15,0.373l-0.148,0.373l-0.147,0.375l-0.146,0.374l-0.144,0.376l-0.144,0.375l-0.143,0.377l-0.141,0.377l-0.14,0.377l-0.139,0.378l-0.139,0.379l-0.136,0.379l-0.136,0.379l-0.135,0.38l-0.133,0.381l-0.133,0.381l-0.131,0.382l-0.13,0.382l-0.129,0.383l-0.128,0.383l-0.126,0.383l-0.126,0.385l-0.124,0.384l-0.124,0.386l-0.122,0.385l-0.121,0.387l-0.119,0.387l-0.119,0.387l-0.117,0.388l-0.117,0.388l-0.115,0.389l-0.114,0.389l-0.112,0.39l-0.112,0.39l-0.111,0.391l-0.109,0.391l-0.108,0.392l-0.107,0.392l-0.105,0.393l-0.105,0.393l-0.103,0.394l-0.103,0.394l-0.101,0.395l-0.099,0.395l-0.099,0.395l-0.097,0.397l-0.097,0.396l-0.095,0.397l-0.094,0.398l-0.092,0.398l-0.091,0.398l-0.091,0.399l-0.089,0.399l-0.088,0.4l-0.086,0.401l-0.085,0.4l-0.085,0.402l-0.083,0.401l-0.081,0.403l-0.081,0.402l-0.079,0.403l-0.078,0.404l-0.077,0.404l-0.076,0.404l-0.074,0.405l-0.073,0.406l-0.072,0.405l-0.071,0.407l-0.069,0.406l-0.068,0.407l-0.067,0.408l-0.066,0.408l-0.065,0.409l-0.063,0.409l-0.062,0.409l-0.06,0.41l-0.06,0.41l-0.058,0.411l-0.057,0.411l-0.056,0.411l-0.054,0.412l-0.053,0.413l-0.052,0.412l-0.051,0.414l-0.049,0.414l-0.048,0.414l-0.047,0.414l-0.045,0.415l-0.045,0.416l-0.043,0.415l-0.041,0.416l-0.041,0.417l-0.039,0.417l-0.038,0.418l-0.036,0.418l-0.035,0.418l-0.034,0.419l-0.033,0.419l-0.031,0.419l-0.03,0.421l-0.029,0.42l-0.027,0.421l-0.026,0.421l-0.025,0.421l-0.023,0.422l-0.022,0.423l-0.021,0.423l-0.02,0.423l-0.018,0.424l-0.017,0.424l-0.015,0.424l-0.014,0.425l-0.013,0.425l-0.012,0.426l-0.01,0.426l-0.009,0.427l-0.007,0.427l-0.006,0.427l-0.005,0.427l-0.003,0.429l-0.002,0.428l-0.001,0.429l0.001,0.429l0.002,0.428l0.003,0.429l0.005,0.427l0.006,0.427l0.007,0.427l0.009,0.427l0.01,0.426l0.012,0.426l0.013,0.425l0.014,0.425l0.015,0.424l0.017,0.424l0.018,0.424l0.02,0.423l0.021,0.423l0.022,0.423l0.023,0.422l0.025,0.421l0.026,0.421l0.027,0.421l0.029,0.42l0.03,0.421l0.031,0.419l0.033,0.419l0.034,0.419l0.035,0.418l0.036,0.418l0.038,0.418l0.039,0.417l0.041,0.417l0.041,0.416l0.043,0.415l0.045,0.416l0.045,0.415l0.047,0.414l0.048,0.414l0.049,0.414l0.051,0.414l0.052,0.412l0.053,0.413l0.054,0.412l0.056,0.411l0.057,0.411l0.058,0.411l0.06,0.41l0.06,0.41l0.062,0.409l0.063,0.409l0.065,0.409l0.066,0.408l0.067,0.408l0.068,0.407l0.069,0.406l0.071,0.407l0.072,0.405l0.073,0.406l0.074,0.405l0.076,0.404l0.077,0.404l0.078,0.404l0.079,0.403l0.081,0.402l0.081,0.403l0.083,0.401l0.085,0.402l0.085,0.4l0.086,0.401l0.088,0.4l0.089,0.399l0.091,0.399l0.091,0.398l0.092,0.398l0.094,0.398l0.095,0.397l0.097,0.396l0.097,0.397l0.099,0.395l0.099,0.395l0.101,0.395l0.103,0.394l0.103,0.394l0.105,0.393l0.105,0.393l0.107,0.392l0.108,0.392l0.109,0.391l0.111,0.391l0.112,0.39l0.112,0.39l0.114,0.389l0.115,0.389l0.117,0.388l0.117,0.388l0.119,0.387l0.119,0.387l0.121,0.387l0.122,0.385l0.124,0.386l0.124,0.384l0.126,0.385l0.126,0.383l0.128,0.383l0.129,0.383l0.13,0.383l0.131,0.381l0.133,0.381l0.133,0.381l0.135,0.38l0.136,0.379l0.136,0.379l0.138,0.379l0.14,0.378l0.14,0.377l0.141,0.377l0.143,0.377l0.144,0.375l0.144,0.376l0.146,0.374l0.147,0.375l0.148,0.373l0.149,0.373l0.151,0.373l0.151,0.372l0.153,0.371l0.153,0.371l0.155,0.37l0.156,0.371l0.157,0.369l0.158,0.368l0.159,0.368l0.16,0.368l0.162,0.366l0.162,0.367l0.164,0.366l0.164,0.365l0.166,0.365l0.166,0.364l0.168,0.363l0.169,0.363l0.17,0.363l0.171,0.361l0.172,0.361l0.173,0.361l0.175,0.36l0.175,0.359l0.176,0.359l0.178,0.358l0.178,0.357l0.18,0.358l0.18,0.356l0.182,0.356l0.183,0.355l0.183,0.355l0.185,0.353l0.186,0.354l0.187,0.353l0.188,0.352l0.189,0.351l0.19,0.35l0.191,0.351l0.192,0.35l0.193,0.349l0.194,0.347l0.195,0.348l0.196,0.348l0.198,0.346l0.198,0.346l0.199,0.345l0.2,0.344l0.202,0.344l0.202,0.343l0.203,0.343l0.205,0.342l0.205,0.341l0.206,0.341l0.208,0.34l0.208,0.339l0.209,0.339l0.211,0.337l0.211,0.338l0.212,0.336l0.214,0.336l0.214,0.335l0.215,0.335l0.217,0.334l0.217,0.333l0.218,0.333l0.219,0.332l0.22,0.331l0.222,0.33l0.222,0.33l0.223,0.329l0.224,0.329l0.225,0.327l0.226,0.327l0.227,0.327l0.228,0.325l0.229,0.325l0.23,0.324l0.231,0.324l0.232,0.323l0.233,0.322l0.233,0.321l0.235,0.32l0.236,0.321l0.236,0.319l0.237,0.318l0.238,0.317l0.24,0.318l0.241,0.316l0.241,0.316l0.242,0.315l0.243,0.313l0.244,0.313l0.245,0.313l0.246,0.312l0.246,0.311l0.248,0.31l0.249,0.31l0.249,0.309l0.251,0.308l0.251,0.307l0.252,0.307l0.253,0.305l0.254,0.305l0.255,0.305l0.256,0.303l0.257,0.303l0.258,0.302l0.258,0.301l0.259,0.3l0.261,0.3l0.261,0.298l0.262,0.298l0.263,0.298l0.264,0.296l0.265,0.296l0.265,0.294l0.267,0.294l0.267,0.294l0.268,0.292l0.269,0.292l0.27,0.291l0.271,0.29l0.271,0.289l0.273,0.288l0.274,0.288l0.274,0.287l0.275,0.285l0.276,0.286l0.277,0.284l0.277,0.283l0.278,0.283l0.28,0.282l0.28,0.281l0.281,0.28l0.282,0.279l0.283,0.279l0.283,0.277l0.284,0.277l0.285,0.276l0.286,0.275l0.287,0.274l0.288,0.274l0.288,0.272l0.289,0.272l0.29,0.271l0.291,0.27l0.292,0.269l0.292,0.268l0.293,0.267l0.294,0.267l0.295,0.265l0.296,0.265l0.296,0.264l0.297,0.263l0.298,0.262l0.3,0.262l0.299,0.259l0.299,0.259l0.303,0.26l0.301,0.257l0.303,0.257l0.303,0.256l0.304,0.254l0.306,0.255l0.305,0.253l0.307,0.252l0.307,0.251l0.308,0.251l0.309,0.249l0.31,0.249l0.31,0.247l0.311,0.247l0.312,0.246l0.312,0.245l0.314,0.244l0.314,0.243l0.314,0.242l0.316,0.242l0.317,0.24l0.316,0.239l0.317,0.238l0.319,0.238l0.32,0.237l0.319,0.235l0.321,0.235l0.321,0.233l0.323,0.234l0.322,0.231l0.323,0.231l0.325,0.23l0.325,0.229l0.325,0.228l0.327,0.227l0.327,0.226l0.327,0.225l0.329,0.224l0.328,0.223l0.331,0.222l0.331,0.222l0.33,0.22l0.332,0.219l0.333,0.218l0.334,0.218l0.333,0.216l0.335,0.215l0.334,0.214l0.337,0.214l0.337,0.212l0.336,0.211l0.338,0.21l0.34,0.21l0.338,0.208l0.34,0.207l0.341,0.207l0.341,0.205l0.342,0.205l0.343,0.203l0.343,0.203l0.344,0.201l0.344,0.2l0.345,0.199l0.346,0.198l0.346,0.198l0.348,0.196l0.347,0.195l0.348,0.194l0.35,0.193l0.349,0.192l0.35,0.191l0.351,0.19l0.351,0.189l0.352,0.188l0.354,0.187l0.353,0.186l0.354,0.185l0.354,0.183l0.355,0.183l0.356,0.182l0.356,0.18l0.358,0.18l0.357,0.178l0.358,0.178l0.359,0.176l0.359,0.175l0.36,0.175l0.361,0.173l0.36,0.172l0.362,0.171l0.363,0.17l0.363,0.169l0.363,0.168l0.364,0.166l0.365,0.166l0.365,0.164l0.366,0.164l0.366,0.162l0.367,0.162l0.368,0.16l0.368,0.159l0.368,0.158l0.37,0.157l0.37,0.156l0.369,0.154l0.372,0.154l0.372,0.153l0.371,0.151l0.372,0.15l0.374,0.15l0.374,0.148l0.373,0.147l0.375,0.146l0.376,0.145l0.376,0.143l0.376,0.143l0.376,0.141l0.378,0.14l0.378,0.139l0.379,0.139l0.379,0.136l0.379,0.136l0.38,0.135l0.381,0.133l0.381,0.133l0.381,0.131l0.383,0.13l0.383,0.129l0.383,0.128l0.384,0.127l0.383,0.125l0.385,0.124l0.386,0.124l0.386,0.122l0.386,0.121l0.386,0.119l0.387,0.119l0.388,0.117l0.389,0.117l0.389,0.115l0.389,0.114l0.39,0.113l0.39,0.111l0.391,0.111l0.392,0.109l0.39,0.108l0.393,0.107l0.394,0.106l0.392,0.104l0.394,0.103l0.393,0.102l0.396,0.102l0.395,0.099l0.395,0.099l0.396,0.097l0.397,0.097l0.397,0.095l0.398,0.093l0.398,0.093l0.398,0.092l0.399,0.09l0.399,0.089l0.4,0.088l0.4,0.086l0.401,0.085l0.402,0.085l0.402,0.083l0.401,0.081l0.404,0.081l0.403,0.079l0.402,0.078l0.405,0.077l0.404,0.076l0.406,0.074l0.405,0.073l0.405,0.072l0.406,0.071l0.408,0.069l0.406,0.068l0.408,0.067l0.408,0.066l0.409,0.065l0.409,0.063l0.408,0.062l0.411,0.06l0.41,0.06l0.411,0.058l0.411,0.057l0.41,0.056l0.413,0.054l0.413,0.053l0.413,0.052l0.413,0.051l0.413,0.049l0.415,0.048l0.415,0.047l0.414,0.045l0.415,0.045l0.416,0.043l0.417,0.041l0.416,0.041l0.417,0.039l0.418,0.038l0.417,0.036l0.418,0.035l0.42,0.034l0.418,0.033l0.42,0.031l0.421,0.03l0.42,0.029l0.42,0.027l0.422,0.026l0.421,0.025l0.423,0.023l0.423,0.023l0.421,0.02l0.423,0.02l0.425,0.018l0.424,0.017l0.425,0.015l0.424,0.014l0.425,0.013l0.427,0.012l0.426,0.01l0.425,0.009l0.428,0.007l0.427,0.006l0.428,0.005l0.428,0.003l0.428,0.002l0.429,0.001l0.429,-0.001l0.428,-0.002l0.428,-0.003l0.428,-0.005l0.427,-0.006l0.428,-0.007l0.425,-0.009l0.426,-0.01l0.427,-0.012l0.425,-0.013l0.424,-0.014l0.425,-0.015l0.424,-0.017l0.425,-0.018l0.423,-0.02l0.421,-0.02l0.423,-0.023l0.423,-0.023l0.421,-0.025l0.422,-0.026l0.42,-0.027l0.42,-0.029l0.421,-0.03l0.42,-0.031l0.418,-0.033l0.42,-0.034l0.418,-0.035l0.417,-0.036l0.418,-0.038l0.416,-0.039l0.417,-0.041l0.417,-0.041l0.416,-0.043l0.415,-0.045l0.414,-0.045l0.415,-0.047l0.415,-0.048l0.413,-0.049l0.413,-0.051l0.413,-0.052l0.413,-0.053l0.413,-0.054l0.41,-0.056l0.411,-0.057l0.411,-0.058l0.41,-0.06l0.411,-0.06l0.408,-0.062l0.409,-0.063l0.409,-0.065l0.408,-0.066l0.408,-0.067l0.406,-0.068l0.408,-0.069l0.406,-0.071l0.405,-0.072l0.405,-0.073l0.406,-0.074l0.404,-0.076l0.405,-0.077l0.402,-0.078l0.403,-0.079l0.404,-0.081l0.401,-0.081l0.402,-0.083l0.402,-0.085l0.401,-0.085l0.4,-0.086l0.399,-0.088l0.399,-0.089l0.4,-0.09l0.398,-0.092l0.399,-0.093l0.397,-0.093l0.397,-0.095l0.397,-0.097l0.396,-0.097l0.395,-0.099l0.395,-0.099l0.396,-0.102l0.394,-0.102l0.393,-0.103l0.392,-0.104l0.394,-0.106l0.393,-0.107l0.39,-0.108l0.392,-0.109l0.391,-0.111l0.39,-0.111l0.39,-0.113l0.389,-0.114l0.389,-0.115l0.389,-0.117l0.388,-0.117l0.387,-0.119l0.386,-0.119l0.386,-0.121l0.386,-0.122l0.386,-0.124l0.385,-0.124l0.383,-0.125l0.384,-0.127l0.383,-0.128l0.383,-0.129l0.383,-0.13l0.381,-0.131l0.381,-0.133l0.381,-0.133l0.38,-0.135l0.379,-0.136l0.379,-0.136l0.379,-0.138l0.378,-0.14l0.378,-0.14l0.376,-0.141l0.376,-0.143l0.376,-0.143l0.376,-0.145l0.375,-0.146l0.374,-0.147l0.373,-0.148l0.374,-0.15l0.372,-0.15l0.371,-0.151l0.372,-0.153l0.372,-0.154l0.369,-0.154l0.37,-0.156l0.37,-0.157l0.368,-0.158l0.368,-0.159l0.368,-0.16l0.366,-0.162l0.368,-0.162l0.365,-0.164l0.365,-0.164l0.365,-0.166l0.364,-0.166l0.363,-0.168l0.363,-0.169l0.363,-0.17l0.362,-0.171l0.36,-0.172l0.361,-0.173l0.36,-0.175l0.359,-0.175l0.359,-0.176l0.358,-0.178l0.357,-0.178l0.358,-0.18l0.356,-0.18l0.356,-0.182l0.355,-0.183l0.354,-0.183l0.354,-0.185l0.353,-0.186l0.354,-0.187l0.352,-0.188l0.351,-0.189l0.351,-0.19l0.349,-0.19l0.35,-0.193l0.35,-0.193l0.348,-0.194l0.347,-0.195l0.348,-0.196l0.346,-0.198l0.346,-0.198l0.345,-0.199l0.344,-0.2l0.344,-0.201l0.343,-0.203l0.343,-0.203l0.342,-0.205l0.341,-0.205l0.341,-0.207l0.34,-0.207l0.338,-0.208l0.34,-0.21l0.338,-0.21l0.336,-0.211l0.337,-0.212l0.337,-0.214l0.334,-0.214l0.335,-0.215l0.333,-0.216l0.334,-0.218l0.333,-0.218l0.332,-0.219l0.33,-0.22l0.331,-0.221l0.331,-0.223l0.329,-0.223l0.328,-0.224l0.327,-0.225l0.327,-0.226l0.327,-0.227l0.325,-0.228l0.325,-0.229l0.325,-0.23l0.323,-0.231l0.322,-0.231l0.323,-0.234l0.321,-0.233l0.321,-0.235l0.32,-0.235l0.319,-0.237l0.318,-0.237l0.317,-0.238l0.318,-0.24l0.316,-0.241l0.316,-0.241l0.314,-0.242l0.314,-0.243l0.313,-0.244l0.313,-0.245l0.313,-0.246l0.31,-0.247l0.31,-0.247l0.31,-0.249l0.309,-0.249l0.308,-0.251l0.307,-0.251l0.307,-0.253l0.305,-0.252l0.305,-0.254l0.305,-0.256l0.303,-0.255l0.303,-0.257l0.302,-0.258l0.301,-0.258l0.3,-0.259l0.299,-0.26l0.299,-0.262l0.299,-0.262l0.297,-0.264l0.296,-0.263l0.296,-0.265l0.294,-0.265l0.295,-0.267l0.293,-0.267l0.292,-0.268l0.292,-0.269l0.291,-0.27l0.29,-0.271l0.289,-0.271l0.288,-0.273l0.288,-0.274l0.287,-0.274l0.285,-0.275l0.286,-0.276l0.284,-0.277l0.283,-0.277l0.283,-0.278l0.282,-0.28l0.281,-0.28l0.28,-0.281l0.28,-0.282l0.278,-0.283l0.277,-0.283l0.277,-0.284l0.276,-0.286l0.275,-0.285l0.274,-0.287l0.274,-0.288l0.273,-0.288l0.271,-0.289l0.271,-0.29l0.27,-0.291l0.269,-0.292l0.268,-0.292l0.267,-0.293l0.267,-0.295l0.265,-0.294l0.265,-0.296l0.263,-0.296l0.264,-0.297l0.262,-0.299l0.262,-0.299l0.26,-0.299l0.259,-0.3l0.258,-0.301l0.258,-0.302l0.257,-0.303l0.255,-0.303l0.256,-0.305l0.254,-0.305l0.252,-0.305l0.253,-0.307l0.251,-0.307l0.251,-0.308l0.249,-0.309l0.249,-0.31l0.247,-0.31l0.247,-0.31l0.246,-0.313l0.245,-0.313l0.244,-0.313l0.243,-0.314l0.242,-0.314l0.241,-0.316l0.241,-0.316l0.24,-0.318l0.238,-0.317l0.237,-0.318l0.237,-0.319l0.235,-0.32l0.235,-0.321l0.233,-0.321l0.234,-0.323l0.231,-0.322l0.231,-0.323l0.23,-0.325l0.229,-0.325l0.228,-0.325l0.227,-0.327l0.226,-0.327l0.225,-0.327l0.224,-0.328l0.223,-0.329l0.223,-0.331l0.221,-0.331l0.22,-0.33l0.219,-0.332l0.218,-0.333l0.218,-0.334l0.216,-0.333l0.215,-0.335l0.214,-0.334l0.214,-0.337l0.212,-0.337l0.211,-0.336l0.21,-0.338l0.21,-0.34l0.208,-0.338l0.207,-0.34l0.207,-0.341l0.205,-0.341l0.205,-0.342l0.203,-0.343l0.203,-0.343l0.201,-0.344l0.2,-0.344l0.199,-0.345l0.198,-0.346l0.198,-0.346l0.196,-0.348l0.195,-0.347l0.194,-0.348l0.193,-0.35l0.193,-0.35l0.19,-0.349l0.19,-0.351l0.189,-0.351l0.188,-0.352l0.187,-0.354l0.186,-0.353l0.185,-0.354l0.183,-0.354l0.183,-0.355l0.182,-0.356l0.18,-0.356l0.18,-0.358l0.178,-0.357l0.178,-0.358l0.176,-0.359l0.175,-0.359l0.175,-0.36l0.173,-0.361l0.172,-0.36l0.171,-0.362l0.17,-0.363l0.169,-0.363l0.168,-0.363l0.166,-0.364l0.166,-0.365l0.164,-0.365l0.164,-0.365l0.162,-0.368l0.162,-0.366l0.16,-0.368l0.159,-0.368l0.158,-0.368l0.157,-0.37l0.156,-0.37l0.154,-0.369l0.154,-0.372l0.153,-0.372l0.151,-0.371l0.15,-0.372l0.15,-0.374l0.148,-0.373l0.147,-0.374l0.146,-0.375l0.145,-0.376l0.143,-0.376l0.143,-0.376l0.141,-0.376l0.14,-0.378l0.14,-0.378l0.138,-0.379l0.136,-0.379l0.136,-0.379l0.135,-0.38l0.133,-0.381l0.133,-0.381l0.131,-0.381l0.13,-0.383l0.129,-0.383l0.128,-0.383l0.127,-0.384l0.125,-0.383l0.124,-0.385l0.124,-0.386l0.122,-0.386l0.121,-0.386l0.119,-0.386l0.119,-0.387l0.117,-0.388l0.117,-0.389l0.115,-0.389l0.114,-0.389l0.113,-0.39l0.111,-0.39l0.111,-0.391l0.109,-0.392l0.108,-0.39l0.107,-0.393l0.106,-0.394l0.104,-0.392l0.103,-0.394l0.102,-0.393l0.102,-0.396l0.099,-0.395l0.099,-0.395l0.097,-0.396l0.097,-0.397l0.095,-0.397l0.093,-0.398l0.093,-0.398l0.092,-0.398l0.09,-0.399l0.089,-0.399l0.088,-0.4l0.086,-0.4l0.085,-0.401l0.085,-0.402l0.083,-0.402l0.081,-0.401l0.081,-0.404l0.079,-0.403l0.078,-0.402l0.077,-0.405l0.076,-0.404l0.074,-0.406l0.073,-0.405l0.072,-0.405l0.071,-0.406l0.069,-0.408l0.068,-0.406l0.067,-0.408l0.066,-0.408l0.065,-0.409l0.063,-0.409l0.062,-0.408l0.06,-0.411l0.06,-0.41l0.058,-0.411l0.057,-0.411l0.056,-0.41l0.054,-0.413l0.053,-0.413l0.052,-0.413l0.051,-0.413l0.049,-0.413l0.048,-0.415l0.047,-0.415l0.045,-0.414l0.045,-0.415l0.043,-0.416l0.041,-0.417l0.041,-0.416l0.039,-0.417l0.038,-0.418l0.036,-0.417l0.035,-0.418l0.034,-0.42l0.033,-0.418l0.031,-0.42l0.03,-0.421l0.029,-0.42l0.027,-0.42l0.026,-0.422l0.025,-0.421l0.023,-0.423l0.023,-0.423l0.02,-0.421l0.02,-0.423l0.018,-0.425l0.017,-0.424l0.015,-0.425l0.014,-0.424l0.013,-0.425l0.012,-0.427l0.01,-0.426l0.009,-0.425l0.007,-0.428l0.006,-0.427l0.005,-0.428l0.003,-0.428l0.002,-0.428l0.001,-0.429l-0.001,-0.429l-0.002,-0.428l-0.003,-0.428l-0.005,-0.428l-0.006,-0.427l-0.007,-0.428l-0.009,-0.425l-0.01,-0.426l-0.012,-0.427l-0.013,-0.425l-0.014,-0.424l-0.015,-0.425l-0.017,-0.424l-0.018,-0.425l-0.02,-0.423l-0.02,-0.421l-0.023,-0.423l-0.023,-0.423l-0.025,-0.421l-0.026,-0.422l-0.027,-0.42l-0.029,-0.42l-0.03,-0.421l-0.031,-0.42l-0.033,-0.418l-0.034,-0.42l-0.035,-0.418l-0.036,-0.417l-0.038,-0.418l-0.039,-0.417l-0.041,-0.416l-0.041,-0.417l-0.043,-0.416l-0.045,-0.415l-0.045,-0.414l-0.047,-0.415l-0.048,-0.415l-0.049,-0.413l-0.051,-0.413l-0.052,-0.413l-0.053,-0.413l-0.054,-0.413l-0.056,-0.41l-0.057,-0.411l-0.058,-0.411l-0.06,-0.41l-0.06,-0.411l-0.062,-0.408l-0.063,-0.409l-0.065,-0.409l-0.066,-0.408l-0.067,-0.408l-0.068,-0.406l-0.069,-0.408l-0.071,-0.406l-0.072,-0.405l-0.073,-0.405l-0.074,-0.406l-0.076,-0.404l-0.077,-0.405l-0.078,-0.402l-0.079,-0.403l-0.081,-0.404l-0.081,-0.401l-0.083,-0.402l-0.085,-0.402l-0.085,-0.401l-0.086,-0.4l-0.088,-0.4l-0.089,-0.399l-0.09,-0.399l-0.092,-0.398l-0.093,-0.398l-0.093,-0.398l-0.095,-0.397l-0.097,-0.397l-0.097,-0.396l-0.099,-0.395l-0.099,-0.395l-0.102,-0.396l-0.102,-0.393l-0.103,-0.394l-0.104,-0.392l-0.106,-0.394l-0.107,-0.393l-0.108,-0.39l-0.109,-0.392l-0.111,-0.391l-0.111,-0.39l-0.113,-0.39l-0.114,-0.389l-0.115,-0.389l-0.117,-0.389l-0.117,-0.388l-0.119,-0.387l-0.119,-0.386l-0.121,-0.386l-0.122,-0.386l-0.124,-0.386l-0.124,-0.385l-0.125,-0.383l-0.127,-0.384l-0.128,-0.383l-0.129,-0.383l-0.13,-0.383l-0.131,-0.381l-0.133,-0.381l-0.133,-0.381l-0.135,-0.38l-0.136,-0.379l-0.136,-0.379l-0.139,-0.379l-0.139,-0.378l-0.14,-0.378l-0.141,-0.376l-0.143,-0.376l-0.143,-0.376l-0.145,-0.376l-0.146,-0.375l-0.147,-0.373l-0.148,-0.374l-0.15,-0.374l-0.15,-0.372l-0.151,-0.371l-0.153,-0.372l-0.154,-0.372l-0.154,-0.369l-0.156,-0.37l-0.157,-0.37l-0.158,-0.368l-0.159,-0.368l-0.16,-0.368l-0.162,-0.367l-0.162,-0.366l-0.164,-0.366l-0.164,-0.365l-0.166,-0.365l-0.166,-0.364l-0.168,-0.363l-0.169,-0.363l-0.17,-0.363l-0.171,-0.362l-0.172,-0.36l-0.173,-0.361l-0.175,-0.36l-0.175,-0.359l-0.176,-0.359l-0.178,-0.358l-0.178,-0.358l-0.18,-0.356l-0.18,-0.357l-0.182,-0.356l-0.183,-0.355l-0.183,-0.354l-0.185,-0.354l-0.186,-0.353l-0.187,-0.354l-0.188,-0.352l-0.189,-0.351l-0.19,-0.351l-0.191,-0.349l-0.192,-0.35l-0.193,-0.35l-0.194,-0.348l-0.195,-0.347l-0.196,-0.348l-0.198,-0.346l-0.198,-0.346l-0.199,-0.345l-0.2,-0.344l-0.201,-0.344l-0.203,-0.343l-0.203,-0.343l-0.205,-0.342l-0.205,-0.341l-0.206,-0.341l-0.208,-0.34l-0.208,-0.338l-0.21,-0.34l-0.21,-0.338l-0.211,-0.336l-0.212,-0.337l-0.214,-0.337l-0.214,-0.335l-0.215,-0.334l-0.216,-0.333l-0.218,-0.334l-0.218,-0.333l-0.219,-0.332l-0.22,-0.33l-0.222,-0.331l-0.222,-0.33l-0.223,-0.33l-0.224,-0.328l-0.225,-0.327l-0.226,-0.327l-0.227,-0.327l-0.228,-0.325l-0.229,-0.325l-0.23,-0.325l-0.231,-0.323l-0.231,-0.322l-0.234,-0.323l-0.233,-0.321l-0.235,-0.321l-0.235,-0.319l-0.237,-0.32l-0.238,-0.319l-0.238,-0.317l-0.239,-0.317l-0.241,-0.316l-0.241,-0.316l-0.242,-0.314l-0.243,-0.314l-0.244,-0.314l-0.245,-0.312l-0.246,-0.312l-0.246,-0.311l-0.248,-0.31l-0.249,-0.31l-0.249,-0.309l-0.251,-0.308l-0.251,-0.307l-0.252,-0.307l-0.253,-0.305l-0.254,-0.306l-0.255,-0.304l-0.256,-0.303l-0.257,-0.303l-0.257,-0.301l-0.26,-0.302l-0.259,-0.3l-0.259,-0.299l-0.262,-0.3l-0.263,-0.298l-0.262,-0.297l-0.264,-0.296l-0.265,-0.296l-0.265,-0.295l-0.267,-0.294l-0.267,-0.293l-0.268,-0.292l-0.269,-0.292l-0.27,-0.291l-0.271,-0.29l-0.272,-0.289l-0.272,-0.288l-0.274,-0.288l-0.274,-0.287l-0.275,-0.286l-0.276,-0.285l-0.277,-0.284l-0.277,-0.283l-0.279,-0.283l-0.279,-0.282l-0.28,-0.281l-0.281,-0.28l-0.282,-0.28l-0.283,-0.278l-0.283,-0.277l-0.284,-0.277l-0.286,-0.276l-0.286,-0.275l-0.286,-0.274l-0.288,-0.274l-0.288,-0.273l-0.289,-0.271l-0.29,-0.271l-0.291,-0.27l-0.292,-0.269l-0.292,-0.268l-0.294,-0.267l-0.294,-0.267l-0.294,-0.265l-0.296,-0.265l-0.296,-0.264l-0.298,-0.263l-0.298,-0.262l-0.298,-0.261l-0.3,-0.261l-0.3,-0.259l-0.301,-0.258l-0.302,-0.258l-0.303,-0.257l-0.303,-0.256l-0.305,-0.255l-0.305,-0.254l-0.305,-0.253l-0.307,-0.252l-0.307,-0.251l-0.308,-0.251l-0.309,-0.249l-0.31,-0.249l-0.31,-0.248l-0.311,-0.246l-0.312,-0.246l-0.313,-0.245l-0.313,-0.244l-0.313,-0.243l-0.315,-0.242l-0.316,-0.241l-0.316,-0.241l-0.318,-0.24l-0.317,-0.238l-0.318,-0.237l-0.319,-0.236l-0.321,-0.236l-0.32,-0.235l-0.321,-0.233l-0.322,-0.233l-0.323,-0.232l-0.324,-0.231l-0.324,-0.23l-0.325,-0.229l-0.325,-0.228l-0.327,-0.227l-0.327,-0.226l-0.327,-0.225l-0.328,-0.224l-0.33,-0.223l-0.33,-0.222l-0.33,-0.222l-0.331,-0.22l-0.332,-0.219l-0.332,-0.218l-0.334,-0.217l-0.334,-0.217l-0.335,-0.215l-0.335,-0.214l-0.336,-0.214l-0.336,-0.212l-0.337,-0.211l-0.338,-0.21l-0.339,-0.21l-0.34,-0.208l-0.339,-0.208l-0.341,-0.206l-0.341,-0.205l-0.342,-0.205l-0.343,-0.203l-0.343,-0.202l-0.344,-0.202l-0.344,-0.2l-0.345,-0.199l-0.346,-0.198l-0.346,-0.198l-0.348,-0.196l-0.347,-0.195l-0.348,-0.194l-0.349,-0.193l-0.35,-0.192l-0.351,-0.191l-0.35,-0.19l-0.351,-0.189l-0.353,-0.188l-0.352,-0.187l-0.354,-0.186l-0.353,-0.185l-0.355,-0.183l-0.355,-0.183l-0.356,-0.182l-0.356,-0.18l-0.357,-0.18l-0.358,-0.178l-0.358,-0.178l-0.359,-0.176l-0.359,-0.175l-0.36,-0.175l-0.361,-0.173l-0.361,-0.172l-0.361,-0.171l-0.363,-0.17l-0.363,-0.169l-0.363,-0.168l-0.364,-0.166l-0.365,-0.166l-0.365,-0.164l-0.366,-0.164l-0.366,-0.162l-0.367,-0.162l-0.368,-0.16l-0.368,-0.159l-0.368,-0.158l-0.369,-0.157l-0.371,-0.156l-0.37,-0.155l-0.371,-0.153l-0.371,-0.153l-0.372,-0.151l-0.373,-0.151l-0.373,-0.149l-0.373,-0.148l-0.374,-0.147l-0.376,-0.146l-0.375,-0.144l-0.375,-0.144l-0.377,-0.143l-0.376,-0.141l-0.378,-0.14l-0.378,-0.14l-0.378,-0.137l-0.38,-0.137l-0.379,-0.136l-0.38,-0.135l-0.381,-0.133l-0.381,-0.133l-0.381,-0.131l-0.383,-0.13l-0.382,-0.129l-0.384,-0.128l-0.384,-0.127l-0.384,-0.125l-0.384,-0.124l-0.386,-0.124l-0.386,-0.122l-0.386,-0.121l-0.386,-0.119l-0.388,-0.119l-0.388,-0.117l-0.388,-0.117l-0.389,-0.115l-0.389,-0.114l-0.39,-0.113l-0.39,-0.111l-0.391,-0.111l-0.391,-0.109l-0.392,-0.108l-0.392,-0.107l-0.393,-0.105l-0.393,-0.105l-0.394,-0.103l-0.394,-0.103l-0.395,-0.101l-0.395,-0.099l-0.395,-0.099l-0.396,-0.097l-0.397,-0.097l-0.397,-0.095l-0.397,-0.093l-0.399,-0.093l-0.398,-0.092l-0.399,-0.09l-0.4,-0.089l-0.399,-0.088l-0.401,-0.086l-0.4,-0.086l-0.402,-0.084l-0.402,-0.083l-0.401,-0.081l-0.403,-0.081l-0.403,-0.079l-0.404,-0.078l-0.404,-0.077l-0.404,-0.076l-0.405,-0.074l-0.406,-0.073l-0.406,-0.072l-0.406,-0.071l-0.406,-0.069l-0.407,-0.068l-0.408,-0.067l-0.408,-0.066l-0.409,-0.065l-0.408,-0.063l-0.41,-0.062l-0.41,-0.06l-0.41,-0.06l-0.41,-0.058l-0.412,-0.057l-0.411,-0.056l-0.412,-0.054l-0.413,-0.053l-0.412,-0.052l-0.414,-0.051l-0.413,-0.049l-0.414,-0.048l-0.415,-0.047l-0.415,-0.045l-0.415,-0.045l-0.416,-0.043l-0.416,-0.041l-0.417,-0.041l-0.417,-0.039l-0.418,-0.038l-0.418,-0.036l-0.418,-0.035l-0.419,-0.034l-0.419,-0.033l-0.419,-0.031l-0.42,-0.03l-0.421,-0.029l-0.421,-0.027l-0.421,-0.026l-0.421,-0.025l-0.423,-0.023l-0.422,-0.022l-0.423,-0.021l-0.423,-0.02l-0.424,-0.018l-0.424,-0.017l-0.424,-0.015l-0.425,-0.014l-0.426,-0.013l-0.425,-0.012l-0.426,-0.01l-0.427,-0.009l-0.427,-0.007l-0.427,-0.006l-0.428,-0.005l-0.428,-0.003l-0.428,-0.002l-0.429,-0.001l-0.429,0.001Z" style="fill:#dc241f;"/><rect id="bar" x="0" y="163.5" width="500" height="77" style="fill:#0019a8;"/><g><path id="U1" d="M35.493,204.962l0,-23.524l7.37,0l0.03,24.32c0.199,6.06 4.68,10.91 10.199,10.996c5.69,0 10.289,-5.041 10.289,-10.996l0,-24.32l7.34,0l0.03,23.642c0,10.79 -7.842,18.838 -17.659,18.838c-9.816,0 -17.599,-8.667 -17.599,-18.956l0,0Z" style="fill:#fff;fill-rule:nonzero;"/><path id="N1" d="M106.863,222.444l7.37,0l0,-41.006l-7.37,0l0,28.094l-21.166,-28.094l-7.4,0l0,41.006l7.4,0l0,-27.564l21.166,27.564Z" style="fill:#fff;fill-rule:nonzero;"/><path id="D1" d="M122.095,181.45l0,40.984l14.852,-0.031c10.789,0 19.458,-9.207 19.458,-20.586c0,-11.291 -8.451,-20.367 -19.27,-20.367l-15.04,0Zm14.789,7.52c6.78,0 12.22,5.801 12.22,12.847c0,7.134 -5.628,12.878 -12.408,12.878l-7.144,0.031l0,-25.725l7.332,-0.031Z" style="fill:#fff;fill-rule:nonzero;"/><path id="E" d="M186.988,222.444l0,-8.225l-17.482,0l0,-9.581l13.148,0l0,-7.9l-13.148,0l0,-7.193l16.951,0l0,-8.107l-24.32,0l0,41.006l24.851,0Z" style="fill:#fff;fill-rule:nonzero;"/><path id="R1" d="M193.693,181.512l0,40.985l7.395,0l0,-16.325l4.418,0l11.593,16.325l7.99,0l-11.906,-17.798c3.979,-2.063 6.674,-6.034 6.674,-10.81c0,-6.81 -5.536,-12.377 -12.346,-12.377l-13.818,0Zm7.489,7.238l6.329,0.032c2.83,0 5.108,2.277 5.108,5.107c0,2.801 -2.278,5.076 -5.108,5.076l-6.329,0l0,-10.215Z" style="fill:#fff;fill-rule:nonzero;"/><path id="G" d="M232.15,200.776c0,-10.052 11.939,-17.275 27.563,-9.227l0,-8.048c-14.474,-6.426 -34.815,-3.065 -34.815,17.6c0,20.665 22.198,28.359 35.317,16.98l0,-19.516l-13.974,0l0,7.075l6.604,0l0,9.08c-11.998,4.864 -20.695,-2.683 -20.695,-13.944l0,0Z" style="fill:#fff;fill-rule:nonzero;"/><path id="R2" d="M266.92,181.512l0,40.985l7.395,0l0,-16.325l4.418,0l11.594,16.325l7.99,0l-11.907,-17.798c3.98,-2.063 6.674,-6.034 6.674,-10.81c0,-6.81 -5.536,-12.377 -12.345,-12.377l-13.819,0Zm7.489,7.238l6.33,0.032c2.83,0 5.107,2.277 5.107,5.107c0,2.801 -2.277,5.076 -5.107,5.076l-6.33,0l0,-10.215Z" style="fill:#fff;fill-rule:nonzero;"/><path id="O" d="M318.997,180.541c-11.29,0 -20.429,9.609 -20.429,21.401c0,11.821 9.139,21.401 20.429,21.401c11.291,0 20.43,-9.58 20.43,-21.401c0,-11.792 -9.139,-21.401 -20.43,-21.401Zm0,8.084c7.105,0 12.847,5.947 12.847,13.317c0,7.399 -5.742,13.38 -12.847,13.38c-7.075,0 -12.815,-5.981 -12.815,-13.38c0,-7.37 5.74,-13.317 12.815,-13.317Z" style="fill:#fff;fill-rule:nonzero;"/><path id="U2" d="M345.204,204.962l0,-23.524l7.37,0l0.029,24.32c0.199,6.06 4.681,10.91 10.2,10.996c5.689,0 10.288,-5.041 10.288,-10.996l0,-24.32l7.341,0l0.029,23.642c0,10.79 -7.841,18.838 -17.658,18.838c-9.817,0 -17.599,-8.667 -17.599,-18.956l0,0Z" style="fill:#fff;fill-rule:nonzero;"/><path id="N2" d="M417.929,222.444l7.37,0l0,-41.006l-7.37,0l0,28.094l-21.166,-28.094l-7.399,0l0,41.006l7.399,0l0,-27.564l21.166,27.564Z" style="fill:#fff;fill-rule:nonzero;"/><path id="D2" d="M434.557,181.45l0,40.984l14.853,-0.031c10.789,0 19.458,-9.207 19.458,-20.586c0,-11.291 -8.451,-20.367 -19.27,-20.367l-15.041,0Zm14.79,7.52c6.78,0 12.22,5.801 12.22,12.847c0,7.134 -5.628,12.878 -12.408,12.878l-7.144,0.031l0,-25.725l7.332,-0.031Z" style="fill:#fff;fill-rule:nonzero;"/></g></svg>