<?xml version="1.0" encoding="utf-8"?>
<!-- Generator: Adobe Illustrator 19.0.0, SVG Export Plug-In . SVG Version: 6.00 Build 0)  -->
<svg version="1.1" id="Layer_1" xmlns="http://www.w3.org/2000/svg" xmlns:xlink="http://www.w3.org/1999/xlink" x="0px" y="0px"
	 viewBox="-26 4 57 44" style="enable-background:new -26 4 57 44;" xml:space="preserve">
<style type="text/css">
	.st0{display:none;}
	.st1{display:inline;fill:#FFFFFF;}
	.st2{enable-background:new    ;}
</style>
<g id="Global_Nav_Large" class="st0">
	<path id="Support" class="st1" d="M-94.5,89.2c-0.4-0.5-1.1-0.9-2-1.3c-0.8-0.3-1.3-0.6-1.6-0.9s-0.5-0.7-0.5-1.3
		c0-0.4,0.2-0.8,0.5-1.1c0.4-0.4,0.9-0.6,1.6-0.6c0.8,0,1.4,0.2,1.9,0.5l0.4-1c-0.6-0.3-1.3-0.5-2.3-0.5s-1.8,0.3-2.4,0.8
		s-0.9,1.2-0.9,2c0,1.3,0.9,2.3,2.8,3c0.7,0.3,1.2,0.6,1.6,0.9c0.2,0.6,0.4,1,0.4,1.5c0,0.6-0.2,1-0.6,1.4c-0.4,0.3-1,0.5-1.7,0.5
		c-0.9,0-1.7-0.2-2.4-0.7l-0.3,1c0.7,0.5,1.5,0.7,2.6,0.7c1.2,0,2.1-0.3,2.7-0.9s0.9-1.3,0.9-2.1C-93.8,90.4-94,89.7-94.5,89.2
		L-94.5,89.2z M-85.7,92v-5.6h-1.2v4.8c0,0.3,0,0.5-0.1,0.7c-0.1,0.4-0.4,0.7-0.7,0.9c-0.4,0.3-0.8,0.4-1.2,0.4
		c-1.2,0-1.7-0.8-1.7-2.5v-4.3h-1.2v4.5c0,1.2,0.3,2.1,0.9,2.7c0.4,0.4,1,0.7,1.7,0.7c1.1,0,2-0.5,2.5-1.4l0,0l0.1,1.3h1.1
		C-85.7,93.3-85.7,92.6-85.7,92L-85.7,92z M-77,87.3c-0.6-0.7-1.4-1.1-2.3-1.1c-1.2,0-2.1,0.5-2.7,1.5l-0.1-1.3h-1.1
		c0,0.8,0.1,1.6,0.1,2.5v8.3h1.2V93c0.5,0.8,1.3,1.2,2.4,1.2c1,0,1.8-0.3,2.4-1c0.7-0.8,1.1-1.8,1.1-3.1l0,0l0,0
		C-76.1,88.9-76.4,88-77,87.3z M-78,92.3c-0.4,0.6-1,0.9-1.8,0.9c-0.6,0-1.2-0.2-1.6-0.7c-0.4-0.4-0.6-1-0.6-1.6v-1.4
		c0-0.1,0-0.3,0.1-0.6c0.1-0.5,0.4-1,0.8-1.3s0.9-0.5,1.3-0.5c0.7,0,1.3,0.3,1.7,0.9s0.6,1.2,0.6,2.1C-77.3,91-77.5,91.8-78,92.3
		L-78,92.3z M-68,87.3c-0.6-0.7-1.4-1.1-2.3-1.1c-1.2,0-2.1,0.5-2.7,1.5v-1.4h-1.1c0,0.8,0.1,1.6,0.1,2.5v8.3h1.2v-4.2
		c0.5,0.8,1.3,1.2,2.4,1.2c1,0,1.8-0.3,2.4-1c0.7-0.8,1.1-1.8,1.1-3.1l0,0l0,0C-67.1,88.9-67.4,88-68,87.3z M-68.9,92.3
		c-0.4,0.6-1,0.9-1.8,0.9c-0.6,0-1.2-0.2-1.6-0.7c-0.4-0.4-0.6-1-0.6-1.6v-1.4c0-0.1,0-0.3,0.1-0.6c0.1-0.5,0.4-1,0.8-1.3
		s0.9-0.5,1.3-0.5c0.7,0,1.3,0.3,1.7,0.9s0.6,1.2,0.6,2.1C-68.3,91-68.5,91.8-68.9,92.3L-68.9,92.3z M-59.1,87.3
		c-0.7-0.8-1.5-1.1-2.6-1.1s-2,0.4-2.7,1.2c-0.6,0.8-1,1.7-1,2.9c0,1.1,0.3,2,0.9,2.8c0.7,0.8,1.5,1.2,2.6,1.2s2.1-0.4,2.7-1.2
		c0.6-0.8,1-1.7,1-2.9S-58.5,88-59.1,87.3L-59.1,87.3z M-60.1,92.2c-0.5,0.7-1.1,1-1.8,1c-0.8,0-1.4-0.3-1.8-1
		c-0.4-0.6-0.6-1.3-0.6-2c0-0.8,0.2-1.5,0.6-2.1c0.4-0.7,1.1-1,1.9-1s1.4,0.3,1.8,1c0.4,0.6,0.6,1.3,0.6,2.1
		C-59.5,90.9-59.7,91.6-60.1,92.2L-60.1,92.2z M-52.6,86.2c-0.1,0-0.2,0-0.4,0c-0.5,0-0.9,0.2-1.3,0.5s-0.7,0.7-0.8,1.2l0,0v-1.5h-1
		c0,0.8,0,1.6,0,2.3V94h1.1v-4.1c0-0.7,0.1-1.2,0.4-1.7c0.4-0.6,0.9-0.8,1.5-0.8c0.2,0,0.3,0,0.4,0L-52.6,86.2L-52.6,86.2z
		 M-46.9,86.3h-2v-1.8l-1.2,0.4v1.4h-1.2v0.9h1.2v4.4c0,0.9,0.2,1.5,0.5,1.9c0.3,0.4,0.8,0.6,1.4,0.6c0.5,0,0.9-0.1,1.2-0.2
		l-0.1-0.9c-0.2,0.1-0.5,0.1-0.8,0.1c-0.7,0-1-0.5-1-1.5v-4.4h2C-46.9,87.3-46.9,86.3-46.9,86.3z"/>
</g>
<g id="Layer_2">
	<g class="st2">
		<path d="M-20.6,18.7c1.8,0,3.3,0.5,4.2,1.4s1.5,2.4,1.5,4.3c0,1-0.1,1.9-0.3,2.7c-0.2,0.8-0.6,1.4-1,2c-0.5,0.5-1.1,0.9-1.8,1.2
			s-1.6,0.4-2.6,0.4h-4.1V18.7H-20.6z M-20.5,29.3c0.2,0,0.4,0,0.7,0c0.3,0,0.6-0.1,0.9-0.2c0.3-0.1,0.6-0.3,0.9-0.5
			c0.3-0.2,0.6-0.5,0.8-0.8c0.2-0.3,0.4-0.8,0.6-1.3s0.2-1.1,0.2-1.9c0-0.7-0.1-1.4-0.2-1.9c-0.1-0.6-0.4-1-0.7-1.4
			c-0.3-0.4-0.7-0.7-1.2-0.9c-0.5-0.2-1.1-0.3-1.9-0.3h-2.7v9.3H-20.5z"/>
		<path d="M-7,30.1c-0.6,0.5-1.5,0.7-2.4,0.7c-0.7,0-1.3-0.1-1.8-0.3c-0.5-0.2-0.9-0.5-1.3-0.9c-0.3-0.4-0.6-0.9-0.8-1.4
			c-0.2-0.6-0.3-1.2-0.3-1.8c0-0.7,0.1-1.3,0.3-1.8c0.2-0.5,0.5-1,0.8-1.4s0.8-0.7,1.3-0.9s1-0.3,1.6-0.3c0.8,0,1.4,0.2,1.9,0.5
			c0.5,0.3,0.9,0.7,1.2,1.2c0.3,0.5,0.5,1,0.6,1.6s0.2,1.1,0.1,1.7h-6.5c0,0.4,0,0.7,0.1,1.1c0.1,0.3,0.3,0.6,0.5,0.9
			c0.2,0.3,0.5,0.5,0.9,0.6c0.3,0.2,0.8,0.2,1.2,0.2c0.6,0,1.1-0.1,1.5-0.4c0.4-0.3,0.6-0.7,0.8-1.3h1.4C-6,28.8-6.4,29.6-7,30.1z
			 M-7.4,24.5c-0.1-0.3-0.3-0.6-0.5-0.8c-0.2-0.2-0.5-0.4-0.8-0.5s-0.6-0.2-1-0.2c-0.4,0-0.7,0.1-1,0.2s-0.5,0.3-0.8,0.5
			c-0.2,0.2-0.4,0.5-0.5,0.8c-0.1,0.3-0.2,0.6-0.2,0.9h5C-7.2,25.1-7.3,24.8-7.4,24.5z"/>
		<path d="M-3.1,28.7c0.1,0.2,0.3,0.4,0.5,0.5s0.5,0.2,0.7,0.3c0.3,0.1,0.6,0.1,0.8,0.1c0.2,0,0.5,0,0.7,0c0.2,0,0.5-0.1,0.7-0.2
			c0.2-0.1,0.4-0.2,0.5-0.4s0.2-0.4,0.2-0.7c0-0.4-0.1-0.6-0.4-0.8c-0.3-0.2-0.6-0.3-1-0.5c-0.4-0.1-0.9-0.2-1.4-0.3
			s-0.9-0.2-1.4-0.4s-0.8-0.4-1-0.7c-0.3-0.3-0.4-0.7-0.4-1.3c0-0.4,0.1-0.8,0.3-1.1c0.2-0.3,0.4-0.6,0.8-0.8c0.3-0.2,0.7-0.3,1-0.4
			c0.4-0.1,0.8-0.1,1.1-0.1c0.5,0,0.9,0,1.4,0.1c0.4,0.1,0.8,0.2,1.1,0.4c0.3,0.2,0.6,0.5,0.8,0.8c0.2,0.4,0.3,0.8,0.3,1.3H0.8
			c0-0.3-0.1-0.5-0.2-0.7c-0.1-0.2-0.3-0.3-0.5-0.4c-0.2-0.1-0.4-0.2-0.6-0.2C-0.7,23-1,23-1.2,23c-0.2,0-0.4,0-0.6,0
			c-0.2,0-0.4,0.1-0.6,0.2c-0.2,0.1-0.3,0.2-0.4,0.3C-3,23.7-3,23.9-3,24.1c0,0.2,0.1,0.4,0.3,0.6c0.2,0.2,0.4,0.3,0.7,0.4
			c0.3,0.1,0.6,0.2,0.9,0.3s0.7,0.1,1,0.2c0.4,0.1,0.7,0.2,1,0.3c0.3,0.1,0.6,0.3,0.9,0.4c0.3,0.2,0.5,0.4,0.6,0.7
			c0.2,0.3,0.2,0.6,0.2,1c0,0.5-0.1,1-0.3,1.3c-0.2,0.3-0.5,0.6-0.9,0.8s-0.7,0.4-1.2,0.4s-0.9,0.1-1.3,0.1c-0.5,0-0.9,0-1.4-0.2
			c-0.4-0.1-0.8-0.3-1.2-0.5c-0.3-0.2-0.6-0.5-0.8-0.9c-0.2-0.4-0.3-0.8-0.3-1.4h1.4C-3.3,28.2-3.2,28.5-3.1,28.7z"/>
		<path d="M5.7,18.7v7.1L9.6,22h1.9l-3.4,3.1l3.7,5.5H10l-3-4.5l-1.3,1.2v3.3H4.3V18.7H5.7z"/>
		<path d="M13.9,28.7c0.1,0.2,0.3,0.4,0.5,0.5c0.2,0.1,0.5,0.2,0.7,0.3s0.6,0.1,0.8,0.1c0.2,0,0.5,0,0.7,0s0.5-0.1,0.7-0.2
			c0.2-0.1,0.4-0.2,0.5-0.4s0.2-0.4,0.2-0.7c0-0.4-0.1-0.6-0.4-0.8c-0.3-0.2-0.6-0.3-1-0.5c-0.4-0.1-0.9-0.2-1.4-0.3
			c-0.5-0.1-0.9-0.2-1.4-0.4s-0.8-0.4-1-0.7c-0.3-0.3-0.4-0.7-0.4-1.3c0-0.4,0.1-0.8,0.3-1.1c0.2-0.3,0.4-0.6,0.8-0.8
			c0.3-0.2,0.7-0.3,1-0.4c0.4-0.1,0.8-0.1,1.1-0.1c0.5,0,0.9,0,1.4,0.1c0.4,0.1,0.8,0.2,1.1,0.4s0.6,0.5,0.8,0.8
			c0.2,0.4,0.3,0.8,0.3,1.3h-1.4c0-0.3-0.1-0.5-0.2-0.7c-0.1-0.2-0.3-0.3-0.5-0.4s-0.4-0.2-0.6-0.2C16.3,23,16.1,23,15.8,23
			c-0.2,0-0.4,0-0.6,0s-0.4,0.1-0.6,0.2s-0.3,0.2-0.4,0.3c-0.1,0.1-0.2,0.3-0.2,0.5c0,0.2,0.1,0.4,0.3,0.6c0.2,0.2,0.4,0.3,0.7,0.4
			c0.3,0.1,0.6,0.2,0.9,0.3c0.3,0.1,0.7,0.1,1,0.2c0.4,0.1,0.7,0.2,1,0.3c0.3,0.1,0.6,0.3,0.9,0.4c0.3,0.2,0.5,0.4,0.6,0.7
			c0.2,0.3,0.2,0.6,0.2,1c0,0.5-0.1,1-0.3,1.3c-0.2,0.3-0.5,0.6-0.9,0.8c-0.4,0.2-0.7,0.4-1.2,0.4s-0.9,0.1-1.3,0.1
			c-0.5,0-0.9,0-1.4-0.2c-0.4-0.1-0.8-0.3-1.2-0.5c-0.3-0.2-0.6-0.5-0.8-0.9c-0.2-0.4-0.3-0.8-0.3-1.4h1.4
			C13.7,28.2,13.8,28.5,13.9,28.7z"/>
	</g>
</g>
</svg>
