<?xml version="1.0" encoding="utf-8"?>
<!-- Generator: Adobe Illustrator 19.0.0, SVG Export Plug-In . SVG Version: 6.00 Build 0)  -->
<svg version="1.1" id="Layer_1" xmlns="http://www.w3.org/2000/svg" xmlns:xlink="http://www.w3.org/1999/xlink" x="0px" y="0px"
	 viewBox="-13 5 68 48" style="enable-background:new -13 5 68 48;" xml:space="preserve">
<style type="text/css">
	.st0{display:none;}
	.st1{display:inline;fill:#FFFFFF;}
	.st2{font-family:'HelveticaNeue-Light';}
	.st3{font-size:20.1981px;}
</style>
<g id="Layer_1_1_" class="st0">
	<path class="st1" d="M-48.3,70.3c0.2,0.1,0.4,0.2,0.6,0.3c0.2,0.1,0.5,0.2,0.8,0.3c0.3,0.1,0.6,0.2,0.9,0.2s0.6,0.1,0.9,0.1
		c0.7,0,1.3-0.1,1.8-0.3c0.5-0.2,1-0.5,1.3-0.8c0.4-0.3,0.6-0.7,0.8-1.2c0.2-0.4,0.3-0.9,0.3-1.4s-0.1-0.9-0.2-1.3
		c-0.1-0.4-0.4-0.7-0.6-1c-0.3-0.3-0.6-0.6-1-0.8c-0.4-0.2-0.9-0.5-1.4-0.7c-0.9-0.4-1.6-0.8-2.1-1.2c-0.4-0.4-0.7-1-0.7-1.8
		c0-0.3,0-0.5,0.1-0.8s0.3-0.5,0.5-0.8c0.2-0.2,0.5-0.4,0.9-0.6c0.4-0.2,0.8-0.2,1.3-0.2c0.6,0,1,0.1,1.4,0.2
		c0.4,0.1,0.7,0.3,0.9,0.4l0.4-0.8c-0.2-0.1-0.6-0.3-1-0.4c-0.4-0.1-1-0.2-1.6-0.2s-1.1,0.1-1.5,0.2c-0.5,0.2-0.9,0.4-1.2,0.7
		s-0.6,0.7-0.8,1.1c-0.2,0.4-0.3,0.9-0.3,1.4c0,0.9,0.3,1.7,0.9,2.3c0.6,0.6,1.4,1.1,2.5,1.4c1,0.4,1.6,0.8,2.1,1.3
		c0.4,0.5,0.6,1.1,0.6,1.9s-0.3,1.5-0.8,2c-0.6,0.5-1.3,0.8-2.3,0.8c-0.6,0-1.1-0.1-1.6-0.2s-0.9-0.4-1.3-0.6
		C-47.9,69.5-48.3,70.3-48.3,70.3z M-31.3,61.4h-0.9v6c0,0.2,0,0.4,0,0.6s-0.1,0.3-0.1,0.5c-0.1,0.2-0.2,0.5-0.4,0.7
		c-0.2,0.2-0.4,0.4-0.6,0.6s-0.5,0.3-0.8,0.5c-0.3,0.1-0.6,0.2-1,0.2c-0.5,0-0.9-0.1-1.2-0.3c-0.3-0.2-0.6-0.4-0.8-0.7
		s-0.3-0.7-0.4-1.1c-0.1-0.4-0.1-0.9-0.1-1.4v-5.5h-0.9V67c0,0.9,0.1,1.6,0.3,2.1c0.2,0.5,0.5,1,0.8,1.3c0.3,0.3,0.7,0.5,1,0.6
		c0.4,0.1,0.7,0.2,1,0.2c0.4,0,0.8-0.1,1.1-0.2s0.6-0.3,0.9-0.4c0.3-0.2,0.5-0.4,0.7-0.6c0.2-0.2,0.3-0.4,0.5-0.7h0.1V71h0.9
		c0-0.4,0-0.7-0.1-1.1c0-0.4,0-0.8,0-1.2V61.4L-31.3,61.4z M-28.1,75h0.9v-5.5l0,0c0.3,0.6,0.8,1,1.3,1.3c0.6,0.3,1.2,0.4,1.8,0.4
		s1.1-0.1,1.6-0.3s1-0.5,1.4-1c0.4-0.4,0.7-1,0.9-1.6s0.3-1.4,0.3-2.3c0-0.7-0.1-1.4-0.3-2c-0.2-0.6-0.5-1.1-0.8-1.5
		c-0.4-0.4-0.8-0.8-1.3-1s-1-0.4-1.6-0.4c-0.8,0-1.5,0.2-2,0.5c-0.6,0.3-1,0.8-1.4,1.5h-0.1v-1.8h-0.9c0,0.4,0,0.9,0.1,1.4
		c0,0.5,0,1,0,1.7L-28.1,75L-28.1,75z M-27.2,65.3c0-0.1,0-0.3,0-0.4l0.1-0.4c0.2-0.8,0.6-1.4,1.2-1.9c0.6-0.4,1.2-0.7,1.9-0.7
		c0.5,0,1,0.1,1.4,0.3s0.7,0.5,1,0.9s0.5,0.8,0.6,1.3s0.2,1,0.2,1.5c0,0.6-0.1,1.2-0.2,1.8c-0.1,0.5-0.4,1-0.6,1.4
		c-0.3,0.4-0.6,0.7-1.1,0.9c-0.4,0.2-0.9,0.3-1.4,0.3c-0.7,0-1.4-0.2-1.9-0.6c-0.6-0.4-0.9-1-1.1-1.8c-0.1-0.2-0.1-0.5-0.1-0.8V65.3
		L-27.2,65.3z M-17.2,75h0.9v-5.5l0,0c0.3,0.6,0.8,1,1.3,1.3s1.2,0.4,1.8,0.4s1.1-0.1,1.6-0.3s1-0.5,1.4-1c0.4-0.4,0.7-1,0.9-1.6
		C-9.1,67.7-9,66.9-9,66c0-0.7-0.1-1.4-0.3-2s-0.5-1.1-0.8-1.5c-0.4-0.4-0.8-0.8-1.3-1s-1-0.4-1.6-0.4c-0.8,0-1.5,0.2-2,0.5
		c-0.6,0.3-1,0.8-1.4,1.5h-0.1v-1.8h-0.9c0,0.4,0,0.9,0.1,1.4c0,0.5,0,1,0,1.7L-17.2,75L-17.2,75z M-16.2,65.3c0-0.1,0-0.3,0.1-0.4
		l0.1-0.4c0.2-0.8,0.6-1.4,1.2-1.9c0.6-0.4,1.2-0.7,1.9-0.7c0.5,0,1,0.1,1.4,0.3c0.4,0.2,0.7,0.5,1,0.9c0.3,0.4,0.5,0.8,0.6,1.3
		c0.1,0.5,0.2,1,0.2,1.5c0,0.6-0.1,1.2-0.2,1.8c-0.1,0.5-0.4,1-0.6,1.4c-0.3,0.4-0.6,0.7-1.1,0.9c-0.4,0.2-0.9,0.3-1.4,0.3
		c-0.7,0-1.4-0.2-1.9-0.6c-0.6-0.4-0.9-1-1.1-1.8c-0.1-0.2-0.1-0.5-0.1-0.8L-16.2,65.3L-16.2,65.3z M-4.1,61.5c-0.5,0.2-1,0.5-1.4,1
		c-0.4,0.4-0.7,1-1,1.6c-0.2,0.6-0.4,1.4-0.4,2.2c0,0.8,0.1,1.4,0.3,2c0.2,0.6,0.5,1.1,0.9,1.6s0.8,0.8,1.4,1
		c0.5,0.2,1.1,0.3,1.7,0.3c0.5,0,1-0.1,1.6-0.3c0.5-0.2,1-0.5,1.4-0.9s0.8-0.9,1-1.6c0.3-0.6,0.4-1.4,0.4-2.3c0-0.7-0.1-1.4-0.3-2
		C1.3,63.5,1,63,0.6,62.5c-0.4-0.4-0.8-0.8-1.4-1c-0.5-0.2-1.1-0.4-1.8-0.4C-3,61.2-3.5,61.3-4.1,61.5z M-0.8,62.4
		c0.4,0.3,0.8,0.6,1,1c0.3,0.4,0.5,0.9,0.6,1.4S1,65.7,1,66.2c0,0.6-0.1,1.2-0.3,1.7s-0.4,1-0.7,1.3c-0.3,0.3-0.7,0.7-1.1,0.9
		s-0.9,0.3-1.4,0.3s-1-0.1-1.4-0.3s-0.8-0.5-1.1-0.9s-0.5-0.8-0.7-1.3s-0.2-1.1-0.2-1.7c0-0.5,0.1-1,0.2-1.5s0.3-1,0.6-1.4
		s0.6-0.7,1.1-1c0.4-0.3,0.9-0.4,1.5-0.4C-1.8,62-1.3,62.1-0.8,62.4z M4.3,71h0.9v-5.3c0-0.3,0-0.6,0.1-0.9c0.1-0.8,0.4-1.4,0.8-1.9
		s1-0.8,1.6-0.8H8h0.2v-0.9H8H7.8c-0.7,0-1.2,0.2-1.7,0.6c-0.5,0.4-0.8,0.9-1,1.5H5v-1.9H4.1c0,0.5,0,0.9,0.1,1.4c0,0.5,0,1,0,1.4
		C4.3,64.2,4.3,71,4.3,71z M11.6,59.6v1.8H10v0.7h1.6v6.1c0,0.4,0,0.8,0.1,1.2c0.1,0.4,0.2,0.7,0.3,0.9c0.2,0.3,0.4,0.5,0.7,0.6
		c0.3,0.1,0.6,0.2,1.1,0.2s1-0.1,1.3-0.2L15,70.2c-0.1,0-0.3,0.1-0.4,0.1c-0.2,0-0.4,0-0.6,0c-0.5,0-0.9-0.2-1.1-0.5
		s-0.3-0.8-0.3-1.5V62h2.7v-0.7h-2.7v-2.1C12.5,59.3,11.6,59.6,11.6,59.6z"/>
</g>
<g id="Layer_2">
	<g id="Layer_2_1_">
		<text transform="matrix(1 0 0 1 -13 34.5749)" class="st2 st3">Help</text>
	</g>
</g>
</svg>
