<?xml version="1.0" encoding="utf-8"?>
<!-- Generator: Adobe Illustrator 19.0.0, SVG Export Plug-In . SVG Version: 6.00 Build 0)  -->
<svg version="1.1" xmlns="http://www.w3.org/2000/svg" xmlns:xlink="http://www.w3.org/1999/xlink" x="0px" y="0px"
	 viewBox="-38 7 18 44" style="enable-background:new -38 7 18 44;" xml:space="preserve">
<style type="text/css">
	.st0{display:none;}
	.st1{display:inline;fill:#FFFFFF;}
	.st2{fill:#FFFFFF;}
</style>
<g id="Layer_1" class="st0">
	<path class="st1" d="M-23.5,22H-25v-0.5c0-2.2-2.1-3.5-4-3.5s-4,1.3-4,3.5V22h-1.5c-0.8,0-1.5,0.7-1.5,1.5v11
		c0,0.8,0.7,1.5,1.5,1.5h11c0.8,0,1.5-0.7,1.5-1.5v-11C-22,22.7-22.7,22-23.5,22z M-32,21.5c0-1.5,1.5-2.5,3-2.5s3,1,3,2.5V22h-6
		C-32,22-32,21.5-32,21.5z M-23,34.5c0,0.3-0.2,0.5-0.5,0.5h-11c-0.3,0-0.5-0.2-0.5-0.5v-11c0-0.3,0.2-0.5,0.5-0.5h11
		c0.3,0,0.5,0.2,0.5,0.5V34.5z"/>
</g>
<g id="Layer_2">
	<g>
		<rect x="-30.4" y="22.2" class="st2" width="2.9" height="2.9"/>
		<rect x="-35.8" y="22.2" class="st2" width="2.9" height="2.9"/>
		<rect x="-25" y="22.2" class="st2" width="2.9" height="2.9"/>
		<rect x="-30.4" y="27.6" class="st2" width="2.9" height="2.9"/>
		<rect x="-35.8" y="27.6" class="st2" width="2.9" height="2.9"/>
		<rect x="-25" y="27.6" class="st2" width="2.9" height="2.9"/>
		<rect x="-30.4" y="33" class="st2" width="2.9" height="2.9"/>
		<rect x="-35.8" y="33" class="st2" width="2.9" height="2.9"/>
		<rect x="-25" y="33" class="st2" width="2.9" height="2.9"/>
	</g>
</g>
</svg>
