<?xml version="1.0" encoding="utf-8"?>
<!-- Generator: Adobe Illustrator 19.0.0, SVG Export Plug-In . SVG Version: 6.00 Build 0)  -->
<svg version="1.1" id="Layer_1" xmlns="http://www.w3.org/2000/svg" xmlns:xlink="http://www.w3.org/1999/xlink" x="0px" y="0px"
	 viewBox="-38 7 18 44" style="enable-background:new -38 7 18 44;" xml:space="preserve">
<style type="text/css">
	.st0{display:none;}
	.st1{display:inline;fill:#FFFFFF;}
</style>
<g id="Layer_1_1_" class="st0">
	<path class="st1" d="M-99.5,36h-1.5v-0.5c0-2.2-2.1-3.5-4-3.5s-4,1.3-4,3.5V36h-1.5c-0.8,0-1.5,0.7-1.5,1.5v11
		c0,0.8,0.7,1.5,1.5,1.5h11c0.8,0,1.5-0.7,1.5-1.5v-11C-98,36.7-98.7,36-99.5,36z M-108,35.5c0-1.5,1.5-2.5,3-2.5s3,1,3,2.5V36h-6
		V35.5z M-99,48.5c0,0.3-0.2,0.5-0.5,0.5h-11c-0.3,0-0.5-0.2-0.5-0.5v-11c0-0.3,0.2-0.5,0.5-0.5h11c0.3,0,0.5,0.2,0.5,0.5V48.5z"/>
</g>
<g id="Layer_2">
	<g>
		<rect x="-30.5" y="22.1" width="2.9" height="2.9"/>
		<rect x="-35.8" y="22.1" width="2.9" height="2.9"/>
		<rect x="-25" y="22.1" width="2.9" height="2.9"/>
		<rect x="-30.5" y="27.5" width="2.9" height="2.9"/>
		<rect x="-35.8" y="27.5" width="2.9" height="2.9"/>
		<rect x="-25" y="27.5" width="2.9" height="2.9"/>
		<rect x="-30.5" y="33" width="2.9" height="2.9"/>
		<rect x="-35.8" y="33" width="2.9" height="2.9"/>
		<rect x="-25" y="33" width="2.9" height="2.9"/>
	</g>
</g>
</svg>
