<?xml version="1.0" encoding="utf-8"?>
<!-- Generator: Adobe Illustrator 19.0.0, SVG Export Plug-In . SVG Version: 6.00 Build 0)  -->
<svg version="1.1" id="Layer_1" xmlns="http://www.w3.org/2000/svg" xmlns:xlink="http://www.w3.org/1999/xlink" x="0px" y="0px"
	 viewBox="-38 5 19 48" style="enable-background:new -38 5 19 48;" xml:space="preserve">
<style type="text/css">
	.st0{display:none;}
	.st1{display:inline;fill:#FAFAFA;}
</style>
<g id="Layer_1_1_" class="st0">
	<path class="st1" d="M-97.5,31h-2.5c0-3-1.8-5-4.5-5s-4.5,2-4.5,5h-2.5c-0.8,0-1.5,0.7-1.5,1.5v14c0,0.8,0.7,1.5,1.5,1.5h14
		c0.8,0,1.5-0.7,1.5-1.5v-14C-96,31.7-96.7,31-97.5,31z M-104.5,27c2.5,0,3.5,2,3.5,4h-7C-108,29-107,27-104.5,27z M-97,46.5
		c0,0.3-0.2,0.5-0.5,0.5h-14c-0.3,0-0.5-0.2-0.5-0.5v-14c0-0.3,0.2-0.5,0.5-0.5h14c0.3,0,0.5,0.2,0.5,0.5V46.5z"/>
</g>
<g id="Layer_2">
	<g>
		<rect x="-30.2" y="20.9" width="3.4" height="3.4"/>
		<rect x="-36.5" y="20.9" width="3.4" height="3.4"/>
		<rect x="-23.8" y="20.9" width="3.4" height="3.4"/>
		<rect x="-30.2" y="27.2" width="3.4" height="3.4"/>
		<rect x="-36.5" y="27.2" width="3.4" height="3.4"/>
		<rect x="-23.8" y="27.2" width="3.4" height="3.4"/>
		<rect x="-30.2" y="33.7" width="3.4" height="3.4"/>
		<rect x="-36.5" y="33.7" width="3.4" height="3.4"/>
		<rect x="-23.8" y="33.7" width="3.4" height="3.4"/>
	</g>
</g>
</svg>
